<?xml version="1.0" standalone="no"?>
<!DOCTYPE svg PUBLIC "-//W3C//DTD SVG 20010904//EN"
 "http://www.w3.org/TR/2001/REC-SVG-20010904/DTD/svg10.dtd">
<svg version="1.0" xmlns="http://www.w3.org/2000/svg"
 width="1920.000000pt" height="1080.000000pt" viewBox="0 0 1920.000000 1080.000000"
 preserveAspectRatio="xMidYMid meet">

<g transform="translate(0.000000,1080.000000) scale(0.100000,-0.100000)"
fill="#000000" stroke="none">
<path d="M8598 7463 c7 -3 16 -2 19 1 4 3 -2 6 -13 5 -11 0 -14 -3 -6 -6z"/>
<path d="M8503 7443 c9 -2 23 -2 30 0 6 3 -1 5 -18 5 -16 0 -22 -2 -12 -5z"/>
<path d="M8405 7420 c-8 -13 25 -13 45 0 12 8 9 10 -12 10 -15 0 -30 -4 -33
-10z"/>
<path d="M8330 7400 c-8 -5 -28 -12 -45 -16 l-30 -8 29 -4 c16 -2 33 1 39 7 6
6 21 11 33 11 13 0 26 5 29 10 8 12 -34 12 -55 0z"/>
<path d="M11235 7363 c-38 -10 -100 -12 -265 -8 -118 4 -224 9 -235 12 -17 5
-18 4 -7 -10 10 -12 28 -14 92 -10 47 4 85 2 92 -4 7 -6 76 -14 153 -17 76 -4
146 -11 155 -16 13 -8 12 -10 -5 -11 -81 -5 -246 5 -280 17 -44 15 -94 18
-145 7 -28 -5 -15 -10 81 -29 161 -33 164 -33 151 -46 -7 -7 -68 -10 -172 -9
-129 1 -168 4 -193 18 -23 12 -74 19 -182 25 -82 4 -224 12 -315 17 -91 6
-182 10 -202 11 -26 0 -37 5 -40 17 -3 15 -4 15 -21 -1 -13 -13 -33 -18 -73
-17 -30 0 -58 3 -63 5 -4 3 -22 2 -38 -3 -37 -11 -83 -3 -83 14 0 37 -220 32
-499 -11 -63 -10 -125 -14 -158 -10 -57 7 -364 -19 -392 -33 -9 -4 -56 -14
-106 -20 -49 -7 -101 -17 -115 -21 -14 -5 -63 -14 -110 -20 -93 -12 -252 -57
-315 -90 -21 -11 -45 -20 -52 -20 -8 0 -16 -7 -19 -15 -4 -8 -14 -15 -24 -15
-30 0 -32 -17 -4 -24 23 -6 26 -11 21 -36 -8 -37 1 -39 93 -28 41 5 84 9 95 9
11 0 63 8 115 18 52 11 118 22 145 26 28 4 55 10 60 15 6 4 26 10 45 13 19 3
67 13 105 21 159 36 264 54 340 61 44 4 104 9 133 11 33 4 52 1 52 -5 0 -6 -6
-11 -12 -11 -7 0 -23 -11 -36 -24 -21 -23 -22 -25 -5 -35 17 -10 17 -12 -2
-26 -11 -9 -25 -13 -31 -11 -7 3 -41 -1 -76 -9 -34 -7 -94 -16 -133 -20 -38
-4 -75 -11 -80 -15 -6 -5 -35 -15 -65 -22 -30 -8 -55 -20 -55 -26 0 -7 -6 -17
-14 -21 -9 -6 -5 -8 13 -8 27 0 36 21 14 30 -7 3 3 3 23 0 22 -3 58 2 87 11
39 13 56 15 72 6 22 -12 105 -7 200 10 191 36 387 63 470 64 47 1 90 5 95 8 6
3 28 3 50 -1 l40 -7 -75 -17 c-41 -9 -85 -14 -96 -11 -12 3 -33 -1 -45 -9 -13
-9 -43 -21 -66 -28 -23 -6 -40 -16 -37 -20 6 -10 -21 -10 -56 0 -14 4 -36 3
-50 -2 -46 -17 -164 -47 -270 -67 -124 -24 -209 -48 -231 -67 -8 -7 -25 -13
-37 -13 -11 0 -23 -4 -26 -9 -4 -5 -27 -20 -54 -33 -63 -33 -121 -66 -153 -89
-35 -24 -116 -59 -138 -59 -10 0 -59 -20 -109 -45 -50 -25 -97 -45 -105 -45
-8 0 -20 -7 -27 -15 -7 -8 -26 -15 -42 -15 -18 0 -31 -6 -35 -17 -3 -10 -13
-26 -21 -35 -14 -17 -13 -18 10 -18 38 0 120 28 220 74 52 24 98 34 98 21 0
-3 -18 -22 -41 -42 -23 -21 -36 -39 -30 -41 6 -2 53 12 103 31 143 53 165 59
221 60 59 0 112 24 149 65 24 27 56 40 183 72 93 24 112 24 118 1 5 -22 31
-28 42 -11 3 6 19 10 35 10 16 0 41 5 55 12 20 9 28 9 38 -1 9 -10 6 -18 -18
-37 -16 -13 -40 -24 -53 -24 -13 0 -33 -5 -44 -11 -29 -15 -72 -19 -79 -7 -9
15 -59 1 -59 -16 0 -9 -15 -12 -52 -11 -36 1 -65 -4 -88 -16 -19 -11 -46 -19
-60 -19 -34 0 -121 -24 -161 -44 -18 -9 -38 -16 -45 -16 -7 0 -14 -4 -16 -8
-7 -20 -114 -85 -162 -99 -28 -8 -55 -18 -61 -23 -19 -14 -68 -18 -97 -8 -20
7 -47 7 -86 -1 -70 -13 -118 -14 -249 -6 -87 5 -106 4 -125 -11 -13 -9 -16
-14 -8 -12 8 3 23 -3 33 -12 17 -16 15 -18 -29 -24 -26 -3 -67 -6 -92 -6 -65
0 -49 -7 43 -19 44 -6 123 -17 175 -25 52 -8 127 -17 165 -21 39 -3 102 -10
140 -15 39 -5 115 -14 170 -20 55 -6 136 -15 180 -20 44 -6 143 -17 220 -25
77 -8 221 -24 320 -35 99 -11 223 -25 275 -30 220 -24 456 -58 448 -65 -2 -2
-59 -6 -128 -9 -195 -10 -430 -36 -600 -66 -30 -5 -77 -12 -105 -16 -35 -4
-45 -8 -34 -15 10 -5 30 -4 50 1 42 12 59 13 59 1 0 -4 -26 -12 -57 -16 -32
-4 -85 -11 -118 -16 -33 -4 -78 -11 -100 -14 -37 -5 -153 -25 -270 -45 -27 -5
-79 -14 -115 -20 -291 -49 -712 -148 -1020 -239 -52 -16 -104 -31 -115 -34
-11 -3 -49 -14 -85 -25 -398 -122 -489 -150 -512 -156 -46 -11 -31 8 22 29 58
22 64 35 18 36 -18 0 -26 3 -18 6 8 3 23 12 33 21 9 8 17 11 17 7 0 -4 8 1 18
12 18 20 51 38 65 34 11 -2 72 35 110 66 16 13 38 23 49 23 12 0 36 11 54 25
18 14 39 25 47 25 8 0 26 9 40 20 14 11 40 20 57 20 22 0 40 8 56 26 33 35 30
44 -15 44 -21 0 -66 3 -100 6 -52 6 -61 5 -61 -10 0 -12 -10 -16 -40 -16 -22
0 -40 5 -40 10 0 6 -18 10 -40 10 -22 0 -40 -4 -40 -8 0 -4 -108 -6 -240 -4
-209 4 -240 3 -240 -11 0 -12 -20 -15 -117 -16 -65 -1 -120 -6 -123 -10 -5 -9
-18 -11 -193 -34 -60 -8 -113 -19 -120 -26 -6 -6 -28 -11 -50 -11 -21 0 -48
-5 -60 -12 -12 -7 -38 -13 -57 -14 -55 -4 -134 -15 -150 -21 -8 -4 -19 -5 -23
-4 -4 0 -21 -6 -37 -14 -15 -8 -30 -11 -32 -7 -2 4 -19 4 -38 1 -32 -6 -32 -6
-7 -8 18 -1 27 -6 24 -13 -2 -7 -15 -12 -28 -10 -69 9 -159 10 -164 2 -4 -6
17 -10 52 -10 42 -1 54 -3 41 -10 -9 -6 -25 -9 -35 -8 -64 5 -113 -13 -65 -25
9 -2 6 -2 -8 0 -14 2 -41 6 -60 7 -122 10 -193 17 -250 26 -139 20 -365 34
-335 20 11 -5 41 -9 67 -9 26 -1 50 -5 53 -11 3 -5 18 -10 33 -10 15 0 56 -7
92 -15 36 -8 99 -20 140 -28 l75 -14 -127 -6 c-135 -8 -169 -14 -147 -28 8 -4
11 -10 8 -13 -3 -3 -82 -8 -175 -11 -250 -8 -281 -16 -188 -47 88 -29 47 -33
-302 -30 -280 2 -369 -1 -463 -14 -64 -9 -120 -20 -125 -25 -6 -5 -25 -9 -42
-9 -18 0 -35 -4 -38 -9 -3 -5 -18 -12 -32 -15 -15 -4 -54 -25 -87 -46 -100
-65 -155 -48 -160 49 l-4 54 -39 3 c-21 2 -74 9 -117 15 -43 6 -106 10 -140 7
-34 -2 -52 -3 -40 -1 13 3 23 8 23 13 0 13 -65 23 -99 17 -15 -3 -33 -1 -38 4
-17 17 -133 24 -133 9 0 -16 -55 -12 -365 29 -38 5 -133 17 -210 25 -77 9
-194 22 -260 30 -66 8 -165 20 -220 26 -55 6 -127 15 -160 20 -33 5 -89 11
-125 15 -36 4 -153 17 -260 31 -107 13 -283 33 -390 44 -107 12 -233 25 -280
30 -202 23 -210 23 -210 11 0 -6 4 -11 8 -11 4 0 102 -14 217 -31 190 -27 372
-50 630 -80 50 -6 122 -14 160 -19 39 -4 115 -13 169 -19 55 -6 190 -23 300
-37 111 -14 233 -30 271 -35 39 -5 120 -13 180 -18 61 -6 175 -20 255 -31 80
-12 246 -33 370 -46 124 -13 245 -26 270 -29 25 -3 78 -7 117 -8 64 -2 73 -4
73 -21 0 -17 -6 -18 -70 -12 -39 4 -83 11 -98 16 -15 5 -101 14 -192 20 -224
14 -251 17 -440 45 -220 33 -300 43 -395 50 -44 4 -100 10 -125 15 -25 6 -88
14 -140 20 -52 6 -147 16 -210 24 -63 8 -178 21 -255 30 -77 8 -183 20 -235
26 -52 6 -205 25 -340 42 -380 47 -463 57 -492 58 l-28 0 0 -114 0 -113 38 -6
c20 -3 87 -11 147 -17 149 -15 267 -29 345 -41 36 -5 133 -16 215 -24 83 -8
170 -19 195 -24 25 -6 106 -15 180 -21 236 -19 372 -32 480 -46 104 -14 262
-31 560 -60 153 -14 252 -27 340 -44 42 -8 93 -13 275 -25 120 -8 185 -17 190
-25 3 -5 1 -28 -5 -52 -50 -195 -62 -268 -51 -301 15 -42 14 -119 -3 -191 -15
-64 -27 -141 -48 -294 -9 -74 -9 -97 0 -113 9 -14 10 -25 1 -40 -6 -13 -8 -40
-4 -72 l7 -51 -25 17 c-30 20 -37 14 -37 -32 0 -87 126 -268 219 -315 43 -22
126 -40 316 -66 160 -22 161 -23 205 -111 21 -42 59 -108 84 -146 48 -74 172
-202 227 -236 19 -12 36 -24 39 -27 16 -16 221 -120 239 -120 5 0 14 -6 20
-13 9 -12 -22 -15 -184 -21 -379 -13 -499 -33 -511 -82 -6 -24 -8 -25 -73 -19
-134 13 -470 -25 -508 -57 -23 -19 -14 -46 27 -78 58 -46 318 -172 457 -221
175 -62 225 -80 258 -94 17 -8 66 -25 110 -40 44 -14 89 -30 100 -35 18 -8
186 -58 362 -110 102 -29 659 -167 773 -190 52 -11 138 -29 190 -40 120 -26
468 -95 580 -116 47 -9 105 -20 130 -25 56 -11 399 -66 460 -74 120 -15 692
-96 745 -105 152 -27 687 -98 1125 -150 188 -22 495 -50 665 -60 99 -5 259
-15 355 -21 96 -5 427 -13 735 -16 582 -6 744 1 1060 43 127 17 713 44 955 43
165 0 205 -3 400 -34 175 -28 298 -44 450 -60 80 -8 179 -19 220 -25 70 -9
172 -14 248 -11 21 1 32 5 30 13 -5 14 -40 24 -128 37 -121 18 -374 62 -379
66 -11 12 51 14 404 19 494 6 1026 34 1468 76 59 5 155 15 215 20 205 20 419
43 657 73 132 17 201 22 470 37 265 15 658 59 758 84 104 27 87 50 -66 91 -56
15 -127 36 -157 47 -102 36 -238 77 -291 87 -30 6 -94 22 -144 36 -78 22 -195
49 -465 109 -36 8 -104 23 -152 33 -49 9 -88 21 -88 26 0 9 31 59 41 67 14 11
90 143 119 207 17 37 35 77 41 88 5 11 24 65 42 120 35 107 50 136 109 204 66
76 109 185 154 391 21 94 44 310 44 416 0 50 3 106 6 123 6 30 8 31 60 31 32
0 54 -4 54 -11 0 -6 -8 -8 -19 -4 -11 3 -22 1 -26 -5 -5 -8 25 -9 99 -4 77 5
106 4 106 -5 0 -7 -22 -11 -62 -11 -94 0 -62 -12 59 -21 59 -5 134 -12 165
-15 38 -4 69 -2 88 6 17 7 34 9 38 5 4 -4 1 -10 -6 -12 -29 -11 4 -23 63 -23
36 0 84 -4 107 -10 24 -5 99 -16 168 -24 69 -9 193 -24 275 -35 146 -20 307
-35 530 -51 115 -8 384 -43 457 -59 24 -6 127 -15 230 -21 191 -10 308 -29
388 -60 25 -10 57 -16 71 -13 14 2 58 0 99 -6 65 -9 77 -8 93 6 15 14 23 15
51 5 18 -7 58 -12 89 -12 l57 0 0 139 0 138 -57 11 c-201 39 -191 39 -368 -8
-73 -19 -88 -20 -175 -10 -52 6 -124 18 -160 26 -36 7 -99 18 -140 24 -41 6
-109 17 -150 25 -41 8 -142 19 -225 25 -82 6 -157 13 -165 15 -8 2 -154 7
-324 10 -241 5 -317 9 -350 21 -22 9 -52 18 -66 20 -96 19 -132 31 -180 62
-49 31 -64 36 -130 38 -208 8 -279 13 -319 24 -24 6 -60 9 -80 6 -20 -3 -101
-6 -181 -8 l-144 -3 -10 27 c-6 17 -6 61 0 118 9 86 4 124 -12 107 -6 -5 -9
-56 -14 -232 0 -19 -28 31 -35 64 -4 18 -15 35 -24 38 -12 3 -16 15 -16 44 0
27 -7 46 -23 61 l-22 22 0 -32 c0 -53 -15 -41 -74 63 -50 86 -125 161 -193
193 -79 36 -189 42 -267 14 -47 -17 -56 -18 -56 -5 0 8 9 17 20 20 22 6 26 19
8 25 -9 3 -15 45 -20 134 -13 240 -19 309 -33 349 -8 22 -17 100 -20 173 l-7
132 28 0 c34 0 25 11 -13 17 -15 2 -142 5 -280 7 -139 1 -256 5 -259 9 -4 4
10 7 30 7 21 0 52 6 69 14 18 8 39 17 47 20 15 6 -137 -3 -173 -10 -10 -2 -33
-12 -51 -24 -35 -21 -130 -27 -171 -10 -16 6 -6 11 42 21 46 9 65 18 69 32 4
14 12 17 31 12 18 -4 36 1 62 19 20 13 51 27 69 31 17 4 32 10 32 15 0 4 10 8
23 8 12 0 38 3 57 7 19 4 50 8 69 9 26 1 36 7 42 25 7 17 15 22 29 18 13 -3
20 0 20 9 0 8 14 20 32 27 l32 13 -40 24 c-27 16 -53 23 -84 23 l-45 -1 31 13
c18 7 35 18 38 24 11 17 23 13 29 -9 6 -23 29 -26 47 -5 10 12 7 15 -14 21
-14 3 -26 9 -26 13 0 3 19 27 43 52 24 26 48 57 55 70 6 13 16 31 21 39 5 8
22 48 37 88 23 62 26 75 13 83 -8 5 -20 9 -27 9 -7 0 -67 55 -135 123 -183
184 -413 375 -582 482 -33 21 -61 42 -63 46 -2 5 -8 9 -12 9 -5 0 -53 26 -107
58 -54 32 -114 67 -133 77 -82 41 -187 93 -220 107 -19 9 -51 23 -70 31 -183
81 -478 170 -645 196 -38 6 -100 15 -136 21 -87 13 -277 13 -353 -1 -137 -25
-208 -41 -281 -64 -93 -30 -319 -138 -370 -178 -5 -5 -55 -39 -109 -78 -156
-108 -293 -226 -503 -433 -73 -72 -133 -126 -133 -120 0 14 258 275 349 354
34 30 74 65 87 77 110 101 320 246 449 311 363 181 707 208 1200 92 107 -25
363 -111 455 -153 123 -56 215 -98 230 -106 62 -33 148 -82 220 -125 47 -28
94 -56 105 -63 11 -7 27 -16 35 -20 8 -4 20 -11 25 -15 36 -30 120 -88 128
-88 9 0 -10 19 -35 35 -9 6 -49 35 -89 66 -65 48 -97 70 -171 114 -9 6 -51 31
-93 58 -41 26 -82 47 -90 47 -7 0 -15 4 -17 9 -4 11 -316 161 -336 161 -5 0
-32 11 -60 25 -29 14 -58 25 -66 25 -7 0 -35 9 -62 19 -85 34 -315 98 -384
108 -19 2 -49 11 -67 19 -17 8 -37 14 -45 14 -7 0 -35 11 -62 25 -27 14 -61
25 -76 25 -14 0 -30 4 -36 10 -19 19 -120 31 -264 31 -165 1 -349 -28 -437
-68 -28 -12 -56 -23 -61 -23 -5 0 -22 -6 -38 -14 -16 -8 -47 -21 -69 -31 -22
-9 -51 -23 -65 -31 -14 -8 -52 -28 -84 -44 -33 -16 -62 -33 -65 -37 -9 -12
-52 -35 -57 -30 -5 4 181 127 191 127 3 0 23 11 44 25 22 13 68 34 103 46 35
11 68 24 73 29 6 4 25 11 42 15 18 3 35 10 38 15 7 11 -7 13 -255 49 -241 35
-337 45 -300 31 18 -7 5 -8 -45 -4 -38 3 -74 9 -80 13 -26 18 -91 32 -138 30
-28 -1 -61 2 -72 8 -14 7 -34 6 -70 -4z m76 -63 c10 0 19 -4 19 -10 0 -11 -30
-13 -54 -4 -9 3 -16 11 -16 16 0 6 7 7 16 4 9 -3 24 -6 35 -6z m-2191 -145 c0
-9 -6 -12 -16 -8 -13 5 -13 7 -2 14 17 11 18 11 18 -6z m251 4 c-16 -6 -28 -6
-35 1 -7 7 1 10 25 9 32 0 33 -1 10 -10z m3511 -239 c23 -7 48 -25 67 -49 47
-59 42 -65 -37 -58 -37 4 -135 9 -217 13 -83 3 -178 12 -213 20 -34 8 -89 14
-122 13 -139 -5 -55 44 105 61 107 11 376 11 417 0z m-2142 -100 c0 -5 -4 -10
-10 -10 -5 0 -10 -4 -10 -10 0 -5 18 -10 40 -10 22 0 40 5 40 10 0 16 38 12
48 -5 4 -9 59 -33 122 -55 63 -22 123 -48 133 -59 20 -19 20 -20 -13 -50 -39
-36 -34 -50 9 -28 38 19 51 4 19 -23 -14 -12 -32 -18 -45 -15 -12 3 -29 2 -37
-1 -17 -7 -22 -34 -6 -34 6 0 10 7 10 15 0 16 25 21 34 7 2 -4 -4 -19 -14 -32
-17 -23 -20 -23 -45 -10 -20 11 -28 11 -34 2 -4 -6 -29 -23 -56 -37 -27 -15
-66 -44 -88 -67 -39 -40 -100 -73 -117 -63 -5 3 -25 -1 -45 -9 -19 -8 -35 -12
-35 -9 0 3 -11 -2 -25 -11 -42 -28 -55 -21 -55 29 0 27 -5 45 -11 45 -8 0 -8
5 1 15 8 10 11 30 7 59 -4 24 -2 70 3 103 8 49 6 73 -11 138 -11 42 -19 79
-17 80 2 1 13 5 24 9 17 5 23 1 28 -16 l7 -23 11 22 11 22 19 -22 19 -22 -5
27 c-6 26 -5 27 23 22 19 -4 33 -1 42 10 16 18 29 20 29 6z m491 -140 c-49
-45 -61 -49 -61 -21 0 12 14 27 38 39 60 33 70 25 23 -18z m82 -2 c-13 -12
-26 -19 -29 -15 -4 4 1 14 12 22 29 22 41 18 17 -7z m-1373 -100 c0 -34 20
-18 26 22 4 22 10 40 15 40 5 0 9 -18 9 -40 0 -22 -4 -40 -10 -40 -5 0 -10
-22 -10 -49 0 -27 -4 -60 -9 -73 -5 -14 -4 -46 2 -81 7 -40 7 -61 0 -68 -17
-17 -144 -14 -180 5 -18 9 -47 16 -65 17 -18 0 -28 3 -22 5 7 3 10 14 7 24 -4
14 0 20 10 20 9 0 21 9 27 20 8 16 21 20 57 20 43 0 45 1 27 14 -18 14 -18 16
-1 33 14 14 17 14 18 3 0 -8 5 -4 10 10 10 23 11 24 23 8 7 -10 16 -18 18 -18
13 0 18 75 7 101 -9 23 -9 36 1 60 l13 31 13 -24 c7 -12 13 -31 14 -40z m1260
-13 c-7 -8 -17 -15 -22 -15 -6 0 -5 7 2 15 7 8 17 15 22 15 6 0 5 -7 -2 -15z
m-1327 -31 c6 -33 -6 -38 -34 -16 -14 12 -20 25 -16 35 9 23 44 10 50 -19z
m1287 -7 c0 -7 -10 -21 -22 -31 -94 -79 -155 -134 -166 -148 -7 -10 -17 -18
-22 -18 -5 0 -21 -12 -37 -27 -31 -29 -33 -32 -128 -103 -33 -25 -62 -48 -65
-51 -3 -4 -23 -17 -45 -28 -22 -12 -47 -26 -55 -31 -41 -25 -124 -60 -140 -60
-10 0 -25 -7 -34 -15 -8 -8 -22 -15 -30 -15 -9 0 -24 -4 -34 -10 -31 -18 -227
-59 -253 -53 -15 3 -30 0 -34 -7 -4 -7 -11 -8 -19 -1 -7 6 -26 7 -48 2 -45
-11 -195 -16 -370 -15 -76 1 -138 -2 -138 -6 0 -8 -230 -3 -238 5 -3 3 28 5
69 6 41 0 88 2 104 4 17 2 89 8 160 14 72 6 177 15 235 20 58 5 122 9 143 9
84 0 232 25 372 64 82 22 87 24 185 74 75 37 114 63 333 216 11 7 29 21 40 32
12 10 38 30 57 45 19 14 40 31 45 38 17 20 120 103 128 103 4 0 7 -6 7 -13z
m-1360 -43 c0 -2 -11 -4 -25 -4 -18 0 -25 5 -25 20 0 20 1 20 25 4 14 -9 25
-18 25 -20z m-84 -1 c-10 -10 -19 5 -10 18 6 11 8 11 12 0 2 -7 1 -15 -2 -18z
m1953 -113 c37 -22 71 -40 75 -40 5 0 25 -13 45 -28 20 -16 44 -32 54 -35 24
-9 21 -26 -10 -59 -26 -27 -73 -39 -73 -18 0 6 -8 10 -19 10 -11 0 -21 9 -25
22 -4 17 -8 20 -17 11 -8 -8 -22 -5 -55 15 -24 15 -42 32 -40 38 2 6 0 17 -5
25 -6 10 -9 6 -10 -16 -2 -60 -4 -68 -16 -72 -9 -3 -11 5 -7 29 l5 33 -21 -38
c-19 -34 -40 -42 -40 -15 0 16 78 178 85 178 4 0 37 -18 74 -40z m1285 -1 c3
-3 -18 -11 -47 -18 -72 -17 -126 -31 -164 -42 -18 -6 -37 -7 -43 -4 -15 9 -12
63 4 72 16 9 241 2 250 -8z m-3294 -3 c0 -3 -4 -8 -10 -11 -5 -3 -10 -1 -10 4
0 6 5 11 10 11 6 0 10 -2 10 -4z m4850 -6 c0 -5 -2 -10 -4 -10 -3 0 -8 5 -11
10 -3 6 -1 10 4 10 6 0 11 -4 11 -10z m-23 -32 c7 -5 17 -7 23 -3 6 4 17 -1
24 -11 8 -10 20 -15 29 -11 15 6 93 -41 136 -81 136 -128 184 -178 212 -219
18 -26 36 -49 41 -51 4 -2 8 -8 8 -14 0 -6 8 -17 18 -24 11 -9 13 -16 6 -21
-6 -5 -14 -15 -17 -23 -3 -10 -6 -7 -6 8 -1 16 -6 22 -18 20 -14 -2 -18 4 -18
31 0 19 -6 36 -12 38 -8 3 -13 -5 -13 -21 0 -14 -4 -26 -10 -26 -5 0 -10 11
-10 24 0 13 -3 32 -7 42 -5 13 -3 15 8 9 10 -6 11 -5 3 4 -8 9 -18 9 -38 1
-38 -14 -51 -13 -37 3 8 11 0 21 -37 48 -26 18 -53 39 -60 46 -7 7 -19 13 -26
13 -19 0 -49 37 -41 49 3 6 -1 14 -9 17 -9 3 -13 10 -10 15 10 16 -58 84 -80
80 -11 -1 -36 2 -55 8 -20 5 -48 13 -63 16 -22 4 -28 11 -28 31 0 25 2 26 38
19 20 -4 42 -11 49 -17z m-1504 -120 c-3 -68 -9 -132 -14 -143 -6 -14 -8 -16
-8 -4 -1 28 -83 93 -173 139 -49 25 -88 49 -88 53 0 9 1 10 125 37 55 12 109
26 120 30 44 19 45 17 38 -112z m634 99 c40 -3 82 -11 93 -17 19 -10 20 -13 7
-28 -25 -28 -67 -110 -67 -129 0 -11 -4 -23 -8 -28 -5 -6 -14 -30 -21 -54 -7
-25 -18 -56 -23 -70 -10 -25 -11 -25 -18 -6 -5 11 -9 40 -9 64 -1 60 -14 44
-16 -21 -2 -29 -4 -64 -5 -78 -4 -44 -28 140 -35 268 -7 119 -7 124 11 114 11
-5 51 -12 91 -15z m-1980 -74 c2 -6 -5 -17 -16 -23 -19 -10 -21 -8 -21 15 0
19 5 26 17 23 9 -2 18 -8 20 -15z m2536 -29 c157 -48 195 -64 201 -89 9 -33 7
-143 -3 -149 -12 -8 -22 20 -15 39 4 8 3 23 -1 33 -6 14 -9 12 -20 -13 -7 -16
-14 -24 -14 -17 -1 7 -16 12 -39 12 -31 0 -41 -5 -52 -25 -10 -18 -17 -22 -24
-15 -8 8 -7 13 3 20 12 7 12 11 2 24 -21 25 -53 3 -45 -32 4 -15 4 -24 0 -21
-6 5 -9 21 -36 144 -5 27 -15 54 -20 59 -13 13 -13 46 1 46 5 0 34 -7 62 -16z
m-2674 -44 c-4 -3 -12 -18 -18 -33 -6 -15 -15 -27 -19 -27 -5 0 0 24 12 54 17
44 22 50 27 33 3 -12 2 -24 -2 -27z m-244 -35 c-37 -46 -53 -53 -72 -34 -14
14 12 59 34 59 8 0 11 4 8 10 -3 6 1 7 9 4 9 -3 16 -1 16 4 0 13 34 21 38 10
2 -5 -13 -29 -33 -53z m355 35 c0 -5 -5 -10 -11 -10 -5 0 -7 5 -4 10 3 6 8 10
11 10 2 0 4 -4 4 -10z m-510 -4 c0 -11 -19 -15 -25 -6 -3 5 1 10 9 10 9 0 16
-2 16 -4z m427 -28 c-3 -8 -6 -5 -6 6 -1 11 2 17 5 13 3 -3 4 -12 1 -19z m173
-12 c0 -8 -15 -19 -32 -25 -34 -11 -98 -60 -98 -75 0 -17 46 -56 67 -56 12 0
24 -8 27 -18 4 -10 31 -29 61 -41 45 -19 54 -26 51 -44 -2 -12 -9 -21 -15 -19
-6 1 -11 -2 -11 -7 0 -4 18 -11 41 -14 22 -3 43 -8 46 -11 11 -11 -6 -19 -34
-17 -131 6 -363 31 -363 37 0 3 17 32 38 67 20 34 48 84 62 112 29 57 86 119
104 112 7 -3 19 -1 27 4 20 13 29 11 29 -5z m-652 -20 c-7 -8 -15 -12 -17 -11
-5 6 10 25 20 25 5 0 4 -6 -3 -14z m-40 -41 c-6 -14 -13 -23 -16 -21 -7 7 9
46 18 46 5 0 4 -11 -2 -25z m142 22 c0 -2 -10 -12 -22 -23 l-23 -19 19 23 c18
21 26 27 26 19z m-1377 -84 c-7 -2 -19 -2 -25 0 -7 3 -2 5 12 5 14 0 19 -2 13
-5z m-703 -103 c0 -5 -13 -10 -30 -10 -16 0 -30 5 -30 10 0 6 14 10 30 10 17
0 30 -4 30 -10z m4477 -12 c-3 -8 -6 -5 -6 6 -1 11 2 17 5 13 3 -3 4 -12 1
-19z m-2567 -18 c0 -5 -4 -10 -10 -10 -5 0 -10 5 -10 10 0 6 5 10 10 10 6 0
10 -4 10 -10z m3935 -10 c3 -5 1 -10 -4 -10 -6 0 -11 5 -11 10 0 6 2 10 4 10
3 0 8 -4 11 -10z m-5305 -40 c15 -8 233 -23 330 -22 38 0 214 -31 220 -39 3
-4 32 -10 65 -14 33 -3 80 -10 105 -15 25 -5 101 -18 170 -30 69 -11 162 -28
208 -36 46 -8 87 -12 92 -9 6 3 17 2 25 -3 9 -5 -124 -6 -314 -4 -234 3 -331
1 -331 -6 0 -7 26 -12 63 -14 46 -2 57 -6 43 -12 -12 -6 -46 -5 -90 2 -39 6
-188 14 -331 17 -143 4 -294 8 -335 10 -103 6 -470 6 -497 1 -13 -3 -23 -1
-23 4 0 5 30 11 68 15 80 7 127 12 207 19 33 3 109 8 169 11 60 3 111 7 114
10 12 12 -500 4 -613 -10 -178 -21 -200 -30 -95 -38 47 -3 97 -5 113 -2 15 2
27 -1 27 -5 0 -5 -30 -11 -67 -15 -102 -9 -98 -8 -96 -38 1 -23 -3 -28 -40
-37 -23 -6 -69 -18 -102 -27 -215 -56 -496 -160 -492 -183 2 -12 -12 -16 -63
-18 -83 -3 -96 -7 -78 -25 27 -27 64 -41 107 -38 l43 3 -18 -25 c-16 -22 -54
-47 -70 -47 -3 0 -11 15 -19 34 -10 24 -22 35 -42 39 -35 7 -35 7 -20 -23 7
-14 21 -26 32 -28 11 -2 28 -14 38 -25 13 -15 20 -18 24 -9 7 18 36 15 29 -4
-3 -9 -6 -26 -6 -40 0 -22 -2 -23 -25 -12 -14 6 -25 17 -25 24 0 7 -10 19 -22
25 -13 7 -26 18 -31 25 -4 7 -21 19 -37 28 l-30 14 6 -41 5 -42 -25 28 c-31
33 -36 34 -36 3 0 -35 -18 -42 -32 -12 -13 29 -23 33 -32 11 -3 -8 -13 -15
-22 -15 -10 0 -14 5 -11 15 10 23 -12 29 -35 8 -21 -18 -21 -18 -15 16 5 25 4
32 -7 28 -7 -3 -44 1 -82 9 -38 8 -78 13 -89 10 -11 -3 -44 1 -75 9 -30 7
-101 14 -157 14 -103 0 -183 14 -183 31 0 6 46 10 108 10 112 1 174 10 230 37
24 11 31 20 27 32 -4 9 -9 22 -13 30 -4 11 1 13 22 9 27 -5 139 21 236 56 25
9 55 16 68 16 12 0 22 5 22 10 0 6 15 10 33 10 23 1 28 3 17 9 -8 5 -35 6 -60
1 -62 -11 -61 -5 0 15 113 38 173 50 625 136 28 5 70 14 95 20 25 6 59 11 75
11 17 0 68 6 115 14 47 8 112 14 145 14 33 1 80 5 105 10 25 6 85 12 134 14
49 3 92 9 95 14 6 10 89 22 151 22 19 0 49 4 65 9 41 13 93 13 115 1z m5323
-20 c-6 -21 -24 -23 -30 -3 -2 6 4 13 14 16 10 3 19 5 20 6 0 0 -1 -8 -4 -19z
m-40 -50 c-3 -11 -7 -20 -9 -20 -2 0 -4 9 -4 20 0 11 4 20 9 20 5 0 7 -9 4
-20z m-23 -24 c0 -2 -7 -9 -15 -16 -12 -10 -15 -10 -15 4 0 9 7 16 15 16 8 0
15 -2 15 -4z m-5160 -108 c64 -2 64 -2 -20 -7 -47 -3 -94 -4 -104 -2 -20 4
-20 4 0 12 10 5 28 6 39 4 11 -3 49 -6 85 -7z m90 -38 c0 -5 -9 -10 -20 -10
-11 0 -20 5 -20 10 0 6 9 10 20 10 11 0 20 -4 20 -10z m117 -37 c-3 -3 -11 -2
-17 2 -9 6 -9 10 1 16 14 8 27 -7 16 -18z m-1374 -174 c-13 -14 -28 -19 -38
-15 -25 9 0 36 33 36 l26 0 -21 -21z m-5958 -49 c-7 -12 -52 -12 -80 0 -15 6
-6 9 33 9 33 1 51 -3 47 -9z m7521 -15 c4 -8 17 -15 30 -15 13 0 24 -4 24 -8
0 -5 18 -15 40 -22 22 -7 40 -18 40 -23 0 -6 3 -7 6 -4 10 10 46 -13 41 -26
-2 -6 6 -20 17 -30 15 -13 17 -20 9 -23 -7 -3 -13 -12 -13 -20 0 -8 -6 -14
-14 -14 -8 0 -21 -3 -29 -6 -15 -6 -25 2 -72 60 -16 20 -38 36 -47 36 -10 0
-18 6 -18 14 0 8 -14 25 -32 37 -17 13 -26 25 -20 27 7 2 12 10 12 18 0 19 19
18 26 -1z m-2666 -69 c0 -15 -77 -89 -109 -106 -15 -7 -40 -9 -68 -5 -40 6
-44 9 -39 29 5 22 3 23 -56 22 -73 -1 -86 15 -26 33 24 7 53 17 66 22 30 12
62 11 62 -1 0 -5 6 -7 13 -4 14 5 44 -22 34 -32 -3 -3 -15 -1 -26 6 -19 10
-21 8 -21 -19 0 -42 19 -49 47 -17 13 15 31 29 41 30 9 2 26 16 37 33 19 29
45 34 45 9z m-5208 -7 c-21 -6 -39 -6 -50 0 -13 8 -5 10 33 10 48 -1 49 -1 17
-10z m5428 -2 c0 -7 -13 -23 -30 -35 -32 -24 -39 -49 -15 -58 8 -4 15 -12 15
-19 0 -17 -106 -30 -152 -19 -18 4 -42 7 -53 6 -17 -2 -16 1 9 23 26 24 30 25
45 11 10 -9 22 -16 27 -15 5 0 31 27 58 60 34 41 56 59 72 59 13 0 24 -6 24
-13z m5354 -23 c5 -12 14 -15 39 -10 18 3 54 2 81 -3 37 -7 49 -6 53 5 3 8 14
14 25 14 19 0 19 -2 6 -22 -14 -21 -25 -23 -134 -28 l-119 -5 0 -35 c0 -35 0
-35 55 -42 30 -3 103 -6 161 -7 93 -1 110 2 133 20 14 11 26 29 26 40 0 10 5
19 10 19 16 0 12 22 -7 36 -10 7 -15 15 -12 18 10 11 59 -13 57 -26 -2 -9 7
-12 29 -11 28 3 32 -1 38 -27 4 -16 11 -32 16 -35 5 -4 9 -16 9 -28 0 -12 5
-29 11 -37 7 -11 9 12 6 79 -2 64 0 88 6 74 13 -29 28 -32 232 -36 130 -2 186
-7 202 -17 18 -12 26 -12 46 -1 18 10 30 10 45 2 11 -6 39 -11 62 -11 23 0 51
-5 63 -12 27 -14 135 -14 150 1 6 6 21 11 33 11 13 0 26 5 29 10 4 6 14 10 23
9 10 -1 28 -1 41 0 19 1 21 4 12 15 -21 25 33 25 185 1 32 -5 43 -3 47 9 5 11
19 16 49 15 l43 -1 -45 -10 c-42 -9 -43 -11 -25 -25 11 -8 29 -11 40 -8 54 17
65 17 72 -1 6 -19 22 -34 34 -34 4 0 10 11 13 25 8 30 35 34 33 4 -2 -31 -52
-48 -147 -51 -84 -3 -85 -3 -88 -30 -5 -40 21 -48 160 -50 139 -2 163 5 176
55 4 18 18 36 30 42 16 7 20 15 16 30 -4 16 -3 17 5 5 8 -12 12 -9 20 13 6 16
11 32 11 37 0 19 22 21 36 4 15 -18 15 -18 11 4 -3 12 -2 22 2 22 11 0 28 -64
42 -155 6 -44 15 -105 20 -135 14 -87 29 -380 22 -432 -5 -42 -9 -48 -29 -48
-13 0 -28 -9 -34 -20 -6 -11 -20 -20 -30 -20 -11 0 -20 -2 -20 -4 0 -2 -3 -11
-6 -20 -4 -12 0 -16 15 -16 12 0 21 -5 21 -10 0 -6 -10 -8 -22 -6 -59 13 -63
11 -144 -71 -44 -45 -100 -110 -125 -144 -24 -35 -56 -76 -71 -91 -14 -15 -31
-40 -36 -55 -7 -21 -9 -8 -6 54 1 45 8 91 13 101 6 11 10 41 10 68 0 27 1 64
1 83 1 18 -6 48 -15 67 -9 19 -20 53 -25 77 -7 36 -9 39 -15 20 -16 -49 -27
-22 -20 50 7 74 2 96 -35 152 -20 30 -26 43 -34 69 -10 31 -137 74 -301 101
-55 9 -135 23 -177 31 -95 19 -102 20 -363 34 -115 6 -217 15 -226 20 -8 4
-22 5 -30 1 -8 -4 -117 -3 -244 0 -664 21 -2094 36 -2127 24 -21 -8 -31 10
-24 41 5 17 12 24 21 21 7 -3 19 1 25 9 7 8 21 14 31 14 11 0 19 5 19 10 0 6
-12 10 -26 10 -14 0 -23 4 -20 8 6 11 126 15 126 4 0 -13 64 -8 73 6 5 7 13
10 18 6 6 -3 58 0 116 7 78 9 108 9 111 1 3 -11 33 -5 42 9 3 4 21 11 40 14
19 3 39 10 45 16 5 5 21 9 36 9 15 0 31 5 34 10 4 6 25 8 54 4 31 -4 65 -1
101 10 57 17 413 33 610 28 72 -2 104 1 132 14 32 14 50 15 118 7 45 -5 84 -5
86 -1 9 14 36 9 57 -9 11 -10 17 -12 12 -4 -4 8 -2 17 6 22 21 13 36 11 43 -7z
m411 -14 c3 -5 -1 -10 -10 -10 -9 0 -13 5 -10 10 3 6 8 10 10 10 2 0 7 -4 10
-10z m-6670 -16 c22 -3 45 -10 51 -15 6 -5 40 -13 75 -19 35 -5 73 -12 84 -14
11 -2 49 -7 85 -11 36 -4 70 -11 75 -15 33 -24 209 -32 628 -27 343 3 437 1
437 -8 0 -19 -82 -26 -423 -34 -561 -13 -749 -3 -882 49 -11 4 -37 13 -58 19
-74 24 -168 72 -161 82 3 6 16 8 28 5 11 -2 39 -8 61 -12z m1296 -25 c-26 -25
-22 -35 8 -19 12 6 21 9 22 8 12 -46 3 -52 -61 -43 l-50 7 47 38 c50 39 74 46
34 9z m-191 3 c0 -11 -61 -43 -71 -36 -16 10 -9 26 9 22 12 -3 24 2 31 14 11
17 31 17 31 0z m7140 -8 c0 -8 -7 -14 -15 -14 -15 0 -21 21 -9 33 10 9 24 -2
24 -19z m-55 6 c3 -5 -1 -10 -10 -10 -9 0 -13 5 -10 10 3 6 8 10 10 10 2 0 7
-4 10 -10z m-12102 -12 c-15 -7 -30 -7 -50 0 -26 10 -24 10 22 11 42 0 46 -2
28 -11z m5387 -3 c10 -13 9 -15 -9 -15 -12 0 -21 6 -21 15 0 8 4 15 9 15 5 0
14 -7 21 -15z m2140 5 c0 -5 9 -10 21 -10 11 0 34 -9 50 -21 l29 -20 0 20 c0
12 6 21 14 21 23 0 31 -22 13 -35 -22 -16 -21 -22 4 -28 12 -3 28 0 36 8 7 8
20 12 27 9 8 -3 17 -1 21 5 15 25 27 10 21 -28 -5 -34 -1 -46 33 -97 22 -33
49 -68 60 -79 12 -11 31 -30 44 -43 l24 -23 47 36 c48 36 72 41 45 9 -8 -9
-24 -40 -36 -68 -12 -28 -23 -46 -24 -41 -1 6 -5 -7 -9 -28 -7 -38 15 -126 39
-150 18 -18 13 -48 -9 -54 -24 -6 -25 -16 -6 -46 17 -26 32 -147 19 -147 -5 0
-24 37 -42 83 -50 128 -134 288 -158 304 -13 9 -23 21 -23 28 0 7 -7 18 -15
25 -8 7 -15 18 -15 25 0 15 -133 155 -148 155 -21 0 -19 26 4 53 30 35 30 42
2 67 -47 43 -54 47 -81 54 -15 4 -25 11 -22 16 8 13 35 13 35 0z m-2610 -11
c12 -8 9 -9 -12 -5 -22 5 -26 3 -22 -9 5 -11 -1 -15 -20 -15 -44 0 -18 34 29
39 6 0 17 -4 25 -10z m-4832 -6 c-10 -2 -26 -2 -35 0 -10 3 -2 5 17 5 19 0 27
-2 18 -5z m7649 1 c-3 -3 -12 -4 -19 -1 -8 3 -5 6 6 6 11 1 17 -2 13 -5z m133
-14 c-19 -12 -57 -13 -65 -1 -3 6 12 11 32 13 45 4 53 0 33 -12z m-435 -21
c11 -17 0 -20 -21 -4 -17 13 -17 14 -2 15 9 0 20 -5 23 -11z m662 -55 c-3 -3
-12 -4 -19 -1 -8 3 -5 6 6 6 11 1 17 -2 13 -5z m-572 -14 c3 -5 2 -10 -4 -10
-5 0 -13 5 -16 10 -3 6 -2 10 4 10 5 0 13 -4 16 -10z m35 -30 c0 -5 -7 -10
-16 -10 -8 0 -12 5 -9 10 3 6 10 10 16 10 5 0 9 -4 9 -10z m-4573 -30 c23 -11
45 -24 48 -30 3 -5 16 -10 28 -11 13 0 16 -3 9 -6 -8 -3 -24 -1 -35 5 -12 6
-43 20 -69 32 -27 11 -48 23 -48 25 0 10 28 4 67 -15z m5094 -75 c1 -17 -18
-17 -25 0 -4 11 -1 15 10 13 8 -2 15 -7 15 -13z m-7655 -143 c21 -6 66 -16 99
-23 55 -10 131 -28 515 -120 69 -16 148 -36 175 -44 28 -7 69 -17 92 -20 24
-4 45 -10 48 -15 3 -4 22 -11 42 -15 21 -4 47 -12 58 -18 11 -6 26 -12 34 -13
47 -8 62 -16 59 -32 -2 -9 2 -17 7 -17 6 0 15 -3 20 -6 6 -4 22 -9 38 -13 43
-10 36 -43 -13 -56 -50 -13 -72 -36 -68 -68 5 -44 28 -39 28 7 0 29 4 41 14
41 11 0 13 -10 9 -42 -4 -33 -15 -52 -44 -81 -36 -36 -40 -38 -76 -28 -21 5
-72 15 -113 21 -41 6 -106 17 -145 25 -38 8 -135 26 -215 40 -80 15 -170 33
-200 40 -30 8 -98 24 -150 36 -123 28 -284 77 -335 102 -63 31 -161 98 -174
119 -10 16 -7 34 14 98 28 85 37 96 75 102 34 4 157 -8 206 -20z m11903 -358
c-8 -10 -15 -12 -22 -5 -7 7 -4 17 9 32 16 18 19 19 22 5 2 -9 -2 -24 -9 -32z
m-5318 -156 c67 -11 78 -27 19 -28 -36 0 -110 -87 -110 -129 0 -14 -5 -19 -14
-15 -11 4 -13 18 -9 60 5 42 3 54 -8 54 -9 1 -8 4 5 11 29 17 1 29 -68 29 -70
0 -66 12 7 21 83 10 104 10 178 -3z m-251 -28 c0 -5 -12 -10 -27 -9 -25 0 -26
1 -8 9 27 12 35 12 35 0z m353 -7 c-7 -2 -19 -2 -25 0 -7 3 -2 5 12 5 14 0 19
-2 13 -5z m-449 -44 c-51 -32 -124 -101 -124 -118 0 -5 -19 -20 -42 -34 -24
-14 -58 -46 -77 -71 -19 -25 -39 -46 -43 -46 -36 0 184 237 257 277 63 34 86
28 29 -8z m493 25 c-3 -3 -12 -4 -19 -1 -8 3 -5 6 6 6 11 1 17 -2 13 -5z
m-5517 -14 c0 -5 -4 -10 -10 -10 -5 0 -10 5 -10 10 0 6 5 10 10 10 6 0 10 -4
10 -10z m5591 -37 c39 -33 79 -78 116 -133 21 -30 41 -56 46 -58 4 -2 7 -11 7
-21 0 -9 5 -22 11 -28 6 -6 10 -16 8 -22 -3 -7 -13 5 -24 26 -26 50 -47 72
-53 55 -2 -6 -11 -12 -20 -12 -9 0 -28 -18 -42 -40 -13 -22 -28 -40 -32 -40
-4 0 -8 -11 -8 -25 0 -14 -7 -28 -16 -32 -11 -4 -14 -14 -10 -34 3 -18 0 -34
-10 -43 -8 -8 -14 -19 -13 -23 5 -29 -5 -50 -32 -65 -17 -10 -35 -18 -41 -18
-6 0 -16 -6 -22 -14 -6 -7 -38 -23 -72 -35 -67 -24 -107 -18 -118 17 -4 11
-16 22 -28 25 -17 5 -41 -14 -120 -94 -55 -54 -104 -99 -108 -99 -8 0 -40 -71
-47 -105 -14 -72 -14 -93 0 -106 8 -9 18 -40 22 -70 18 -135 113 -159 162 -41
19 47 34 66 42 53 4 -5 32 -11 64 -13 31 -1 57 -6 57 -10 0 -5 5 -8 10 -8 6 0
10 7 10 15 0 21 18 19 23 -2 8 -28 17 -120 11 -105 -3 6 -9 12 -14 12 -15 0
-51 -68 -54 -102 -5 -42 -23 -88 -35 -88 -5 0 -17 3 -26 6 -14 6 -14 8 0 31
23 35 12 39 -21 8 -39 -36 -87 -55 -140 -55 -48 0 -62 -19 -16 -22 15 -1 36
-2 47 -3 11 -1 28 2 38 7 29 14 40 5 20 -17 -11 -12 -19 -39 -21 -70 -1 -27
-8 -54 -15 -60 -15 -11 -42 -93 -39 -115 3 -24 -8 -60 -18 -60 -12 0 -1 251
11 265 5 5 9 15 9 22 0 17 -84 17 -98 0 -6 -7 -25 -14 -41 -15 -27 -2 -31 1
-31 22 0 13 4 26 9 28 8 3 15 51 12 86 -1 6 -9 12 -19 12 -25 0 -46 26 -61 75
-15 49 -10 92 15 130 15 23 19 48 19 115 0 81 2 88 35 137 19 29 46 56 60 61
14 5 30 11 35 13 14 5 64 100 65 123 0 22 -27 45 -53 46 -31 0 -19 54 13 58
14 2 33 11 43 20 9 8 30 17 45 18 15 2 34 11 42 21 17 22 80 53 105 53 14 0
16 -6 12 -30 -4 -16 -2 -32 4 -36 16 -10 95 37 113 67 9 16 32 34 51 41 20 7
34 17 31 24 -3 7 6 15 18 18 12 3 28 17 34 31 6 14 16 25 22 25 6 0 8 5 5 10
-4 6 -1 18 6 26 10 12 14 12 21 2 6 -8 7 0 3 21 -7 32 -6 33 18 29 23 -5 24
-3 15 22 -5 15 -25 46 -44 69 -37 43 -39 53 -3 24z m244 -70 c11 -21 23 -40
26 -43 8 -7 79 -184 79 -199 0 -6 -4 -11 -10 -11 -5 0 -10 11 -10 23 0 13 -7
39 -16 58 -9 19 -26 54 -37 79 -12 25 -29 56 -38 70 -20 32 -30 60 -21 60 4 0
16 -17 27 -37z m5200 -191 c36 -25 125 -141 125 -163 0 -21 -19 -5 -55 46 -37
54 -75 92 -125 127 -23 15 -23 17 -5 17 11 0 38 -12 60 -27z m-6305 -1 c0 -5
-7 -12 -16 -15 -14 -5 -15 -4 -4 9 14 17 20 19 20 6z m-46 -69 c-16 -33 -34
-50 -34 -33 0 6 4 11 8 11 4 0 13 14 20 32 6 17 14 29 17 26 3 -2 -2 -19 -11
-36z m-6164 18 c0 -23 210 -96 500 -174 69 -18 150 -39 180 -45 30 -7 64 -16
75 -21 11 -5 31 -11 45 -14 79 -16 142 -34 126 -35 -53 -3 -626 133 -784 186
-143 47 -162 58 -162 88 0 14 5 25 10 25 6 0 10 -4 10 -10z m12397 -36 c31 -8
19 -24 -18 -24 -16 0 -29 -4 -29 -10 0 -5 5 -10 10 -10 15 0 12 -15 -9 -39
-16 -18 -24 -20 -38 -12 -10 6 -12 11 -5 11 7 0 12 13 12 30 0 26 -5 31 -32
37 l-33 7 30 7 c40 9 85 10 112 3z m-7619 -25 c4 -23 -25 -31 -65 -18 -28 9
-32 13 -22 25 17 20 83 15 87 -7z m1335 -62 c-10 -26 -21 -47 -25 -47 -11 0
-10 8 6 38 8 15 17 36 20 46 4 10 9 17 11 14 3 -3 -3 -26 -12 -51z m6081 25
c-6 -4 -26 -36 -45 -71 -19 -35 -42 -66 -51 -69 -10 -2 -18 -11 -18 -20 0 -12
-3 -13 -11 -5 -8 8 -6 19 5 41 19 38 117 145 125 137 3 -3 1 -9 -5 -13z m1206
-32 c0 -12 -66 -12 -95 -1 -14 6 -2 9 38 10 32 0 57 -3 57 -9z m-740 -35 c6
-19 9 -41 7 -48 -3 -6 -6 -3 -7 8 0 11 -7 29 -15 39 -17 23 -19 36 -6 36 5 0
15 -16 21 -35z m-100 -25 c21 -42 27 -75 10 -65 -5 3 -20 -1 -32 -9 -13 -9
-17 -16 -9 -16 8 0 2 -9 -12 -20 -26 -21 -64 -121 -52 -140 11 -18 -109 -110
-145 -110 -11 0 -23 7 -26 15 -11 27 -33 16 -97 -50 -44 -45 -66 -77 -75 -107
-16 -59 -28 -76 -43 -61 -24 24 20 133 55 133 15 0 36 56 36 98 0 24 13 45 53
90 60 68 120 122 135 122 5 0 15 -7 22 -15 11 -14 16 -14 39 1 39 25 81 76 81
100 0 24 22 74 32 74 4 0 17 -18 28 -40z m-6482 -33 c-5 -17 -17 -59 -26 -92
-10 -33 -20 -61 -24 -63 -5 -2 -8 -14 -8 -27 0 -13 -4 -27 -10 -30 -22 -14 4
110 40 190 5 11 12 30 15 43 4 12 10 20 15 17 5 -3 4 -20 -2 -38z m6222 17 c0
-8 -4 -13 -9 -10 -5 4 -11 0 -14 -6 -2 -7 -7 -10 -11 -7 -10 10 5 39 20 39 8
0 14 -7 14 -16z m-1590 -35 c19 -5 73 -9 120 -10 73 -1 80 -2 50 -11 -92 -25
-343 -64 -540 -83 -25 -3 -76 -9 -115 -14 -106 -15 -344 -39 -495 -51 -74 -6
-163 -15 -196 -20 -34 -6 -94 -10 -133 -10 -40 0 -113 -4 -164 -9 -148 -15
-317 -21 -317 -11 0 5 21 12 48 15 26 4 70 11 97 16 28 5 93 14 145 20 52 5
105 14 118 19 13 6 43 10 68 10 28 0 43 4 39 10 -4 6 9 10 32 10 21 0 54 5 73
10 19 6 64 15 100 20 123 19 225 32 245 31 10 0 24 4 30 8 5 5 31 9 56 9 25 1
68 6 95 12 27 7 78 13 114 15 69 3 100 -11 100 -46 0 -10 5 -21 10 -24 6 -3
10 5 10 19 0 14 5 35 11 48 10 23 14 23 140 23 71 -1 134 2 141 6 12 8 61 3
118 -12z m-3547 -52 c2 -7 25 -23 51 -35 50 -26 71 -66 45 -86 -8 -6 -16 -24
-17 -39 -3 -43 -20 -67 -47 -67 -13 0 -27 -5 -31 -11 -4 -8 -9 -8 -17 0 -6 6
-21 11 -34 11 -52 0 -142 56 -143 89 0 32 64 114 104 132 48 22 82 24 89 6z
m4937 -2 c0 -8 -2 -15 -4 -15 -2 0 -6 7 -10 15 -3 8 -1 15 4 15 6 0 10 -7 10
-15z m-11103 -11 c-3 -3 -12 -4 -19 -1 -8 3 -5 6 6 6 11 1 17 -2 13 -5z
m11093 -21 c0 -14 -19 -38 -25 -32 -8 8 5 39 16 39 5 0 9 -3 9 -7z m87 -25
c-3 -8 -6 -5 -6 6 -1 11 2 17 5 13 3 -3 4 -12 1 -19z m-4808 5 c0 -5 -4 -17
-9 -28 -8 -18 -9 -17 -9 8 -1 15 4 27 9 27 6 0 10 -3 9 -7z m-1378 -146 c-8
-8 -11 -7 -11 4 0 20 13 34 18 19 3 -7 -1 -17 -7 -23z m2907 26 c-10 -2 -28
-2 -40 0 -13 2 -5 4 17 4 22 1 32 -1 23 -4z m-2301 -95 c27 -30 36 -71 22
-102 -11 -24 -13 -24 -40 -10 -16 8 -29 19 -29 25 0 5 -12 8 -27 7 -20 -2 -28
2 -31 15 -5 23 23 66 51 77 31 12 31 12 54 -12z m6050 -60 c-3 -20 -4 -21 -11
-5 -5 9 -5 29 0 45 7 25 8 26 11 5 3 -13 3 -33 0 -45z m-88 26 c22 -23 23 -30
15 -72 -8 -43 -12 -47 -46 -55 -30 -7 -46 -5 -75 10 -52 27 -57 68 -13 112 40
40 85 42 119 5z m-609 -13 c0 -16 -9 -39 -20 -52 l-21 -24 6 35 c10 54 16 70
26 70 5 0 9 -13 9 -29z m-10332 -10 c31 -10 84 -21 117 -25 72 -8 186 -35 199
-47 29 -27 -208 -4 -238 23 -6 4 -24 8 -40 8 -44 0 -113 23 -133 43 -16 16
-16 17 10 17 15 0 53 -8 85 -19z m4349 -3 c-3 -8 -6 -5 -6 6 -1 11 2 17 5 13
3 -3 4 -12 1 -19z m1214 -188 c10 6 23 4 36 -5 29 -20 31 -127 2 -163 -10 -14
-19 -33 -19 -43 0 -11 -2 -19 -4 -19 -2 0 -11 -3 -20 -6 -11 -4 -16 -1 -16 11
0 9 -5 13 -11 9 -13 -7 -69 50 -69 71 0 8 -5 17 -10 20 -6 4 -8 30 -6 61 4 46
10 60 38 87 l33 32 15 -32 c12 -24 19 -29 31 -23z m5008 41 c6 -10 12 -33 13
-50 2 -27 6 -31 30 -31 15 0 30 -4 33 -10 10 -15 35 -12 35 5 0 24 17 17 24
-10 4 -16 -1 -42 -14 -70 -11 -24 -20 -55 -20 -69 0 -41 -11 -56 -39 -56 -32
0 -79 -29 -48 -30 20 0 20 -1 6 -95 -21 -150 -22 -200 -5 -233 9 -18 20 -32
25 -32 5 0 11 -9 14 -21 7 -28 -24 -88 -45 -89 -10 0 -18 -5 -18 -12 0 -9 -3
-9 -11 -1 -28 28 -29 402 -1 436 10 11 9 17 -2 26 -19 16 -56 -2 -57 -27 0
-11 -4 -9 -10 8 -6 14 -8 43 -4 66 4 31 0 53 -21 97 -21 46 -23 61 -14 72 11
14 7 19 -12 16 -5 0 -8 6 -8 14 0 8 6 12 14 9 8 -3 17 0 21 6 4 6 16 -8 29
-32 24 -45 47 -58 71 -38 19 15 20 60 2 60 -8 0 -23 10 -35 23 -20 21 -20 24
-5 55 17 36 37 41 52 13z m-9656 -30 c23 -6 96 -19 162 -31 66 -12 163 -30
215 -40 98 -19 220 -42 325 -61 33 -6 80 -14 105 -19 25 -5 86 -16 135 -26 50
-9 103 -23 118 -31 26 -13 145 -37 307 -63 30 -4 134 -22 231 -39 97 -17 183
-32 190 -32 8 -1 -11 -5 -41 -8 -75 -8 -852 4 -1192 19 -260 11 -279 10 -307
-6 -30 -18 -35 -17 -198 14 -159 30 -306 53 -435 67 -32 4 -58 9 -58 13 0 4
39 26 88 49 84 41 185 108 258 172 39 35 39 35 97 22z m9967 -136 c6 -17 15
-22 28 -18 27 7 35 -11 33 -70 -2 -79 -34 -100 -76 -51 -18 20 -22 39 -23 91
-1 36 1 70 4 75 8 12 24 0 34 -27z m-6513 -87 c-3 -8 -6 -5 -6 6 -1 11 2 17 5
13 3 -3 4 -12 1 -19z m955 -188 c9 -17 24 -30 32 -30 9 0 16 -15 20 -47 10
-85 10 -107 -3 -145 -10 -30 -18 -38 -37 -38 -14 0 -22 -4 -19 -10 10 -17 -4
-11 -25 10 -11 11 -20 24 -20 29 0 6 -11 31 -25 57 -36 68 -34 125 7 169 17
19 36 35 42 35 6 0 19 -14 28 -30z m5456 -40 c2 -12 12 -38 23 -57 23 -41 24
-66 4 -87 -8 -8 -15 -24 -15 -36 0 -18 -3 -19 -20 -10 -11 6 -20 17 -20 25 0
8 -4 15 -9 15 -5 0 -14 23 -20 50 -14 63 -14 56 5 74 9 9 17 24 19 34 2 9 4
19 4 20 3 13 27 -9 29 -28z m-6073 -94 c21 -11 35 -27 35 -38 0 -10 5 -18 10
-18 17 0 12 -90 -6 -107 -14 -15 -19 -15 -50 0 -19 9 -34 22 -34 28 0 7 -8 17
-17 24 -14 10 -15 17 -6 36 7 17 7 29 -1 42 -9 14 -7 21 7 31 10 8 17 18 16
22 -3 17 3 29 7 14 3 -9 20 -24 39 -34z m4562 29 c136 -9 251 -19 254 -23 11
-13 53 -152 47 -157 -3 -3 -25 -2 -49 4 -93 20 -228 43 -724 120 -138 22 -356
51 -381 51 -7 0 -14 5 -14 10 0 16 584 12 867 -5z m-4284 -38 c4 3 16 -6 28
-20 11 -15 27 -27 34 -27 17 0 30 -76 20 -119 -3 -17 -6 -33 -5 -37 1 -3 -5
-11 -13 -17 -9 -7 -17 -21 -19 -31 -1 -10 -12 -24 -23 -30 -11 -6 -24 -17 -28
-23 -11 -18 -37 -16 -37 2 0 8 -4 15 -9 15 -5 0 -11 24 -15 53 -17 135 -18
155 -7 161 6 4 11 18 11 32 0 14 5 34 11 45 10 19 12 19 28 5 10 -9 21 -13 24
-9z"/>
<path d="M10800 6762 c0 -11 -10 -14 -50 -10 -42 4 -50 2 -55 -13 -4 -12 -16
-19 -31 -19 -13 0 -24 -4 -24 -9 0 -5 -12 -11 -27 -13 -33 -4 -28 -23 5 -23
12 1 22 -5 22 -12 0 -16 -1 -16 49 2 23 8 54 12 70 9 35 -7 95 21 87 42 -4 10
2 13 22 12 15 -1 30 -6 33 -11 4 -5 12 -6 19 -2 19 12 -19 39 -72 51 -41 10
-48 9 -48 -4z"/>
<path d="M10583 6652 c-9 -6 -7 -11 7 -20 20 -12 36 -1 25 18 -7 12 -16 12
-32 2z"/>
<path d="M9920 6515 c0 -8 5 -15 10 -15 6 0 10 7 10 15 0 8 -4 15 -10 15 -5 0
-10 -7 -10 -15z"/>
<path d="M11695 6300 c-3 -5 3 -10 14 -10 12 0 21 5 21 10 0 6 -6 10 -14 10
-8 0 -18 -4 -21 -10z"/>
<path d="M11660 6284 c0 -4 8 -13 18 -20 20 -16 56 -19 47 -4 -3 6 -15 10 -26
10 -10 0 -19 5 -19 10 0 6 -4 10 -10 10 -5 0 -10 -3 -10 -6z"/>
<path d="M11750 6280 c0 -5 5 -10 10 -10 6 0 10 5 10 10 0 6 -4 10 -10 10 -5
0 -10 -4 -10 -10z"/>
<path d="M11795 6241 c3 -5 -6 -11 -20 -13 -24 -3 -25 -4 -11 -23 16 -20 16
-20 36 5 24 30 25 40 4 40 -8 0 -13 -4 -9 -9z"/>
<path d="M9763 5673 c32 -2 81 -2 110 0 29 2 3 3 -58 3 -60 0 -84 -1 -52 -3z"/>
<path d="M10010 5650 c8 -5 47 -9 85 -9 53 1 63 3 40 9 -46 12 -143 12 -125 0z"/>
<path d="M10240 5164 c0 -8 5 -12 10 -9 6 3 10 10 10 16 0 5 -4 9 -10 9 -5 0
-10 -7 -10 -16z"/>
<path d="M14778 5123 c7 -3 16 -2 19 1 4 3 -2 6 -13 5 -11 0 -14 -3 -6 -6z"/>
<path d="M14630 4705 c0 -8 5 -15 10 -15 6 0 10 7 10 15 0 8 -4 15 -10 15 -5
0 -10 -7 -10 -15z"/>
<path d="M14686 4609 c-9 -45 -8 -49 9 -49 10 0 15 10 15 34 0 45 -16 55 -24
15z"/>
<path d="M10161 3954 c0 -11 3 -14 6 -6 3 7 2 16 -1 19 -3 4 -6 -2 -5 -13z"/>
<path d="M8210 7360 l-25 -8 27 -1 c15 -1 30 4 33 9 7 11 0 11 -35 0z"/>
<path d="M8148 7333 c6 -2 18 -2 25 0 6 3 1 5 -13 5 -14 0 -19 -2 -12 -5z"/>
<path d="M9775 7330 c-3 -5 3 -10 15 -10 12 0 18 5 15 10 -3 6 -10 10 -15 10
-5 0 -12 -4 -15 -10z"/>
<path d="M8070 7311 c-25 -10 -54 -21 -65 -25 -20 -8 -43 -17 -87 -35 -13 -5
-57 -25 -98 -43 -41 -19 -100 -45 -130 -58 -60 -27 -392 -194 -480 -243 -30
-16 -135 -75 -233 -129 -317 -176 -439 -234 -607 -286 -32 -10 -144 -33 -233
-47 -51 -8 -37 -25 21 -25 26 0 65 -5 87 -9 22 -5 83 -12 136 -15 87 -5 98 -4
120 15 55 47 67 56 126 102 76 58 372 248 508 327 176 101 643 340 665 340 5
0 10 5 10 10 0 6 8 10 17 10 15 0 107 36 230 91 23 11 49 19 57 19 9 0 16 5
16 10 0 13 -6 12 -60 -9z"/>
<path d="M8365 6960 c3 -5 8 -10 11 -10 2 0 4 5 4 10 0 6 -5 10 -11 10 -5 0
-7 -4 -4 -10z"/>
<path d="M8360 6751 c-25 -9 -61 -24 -80 -33 -19 -8 -47 -20 -62 -26 -16 -7
-28 -16 -28 -21 0 -6 11 -6 28 -1 15 5 46 15 69 22 23 7 45 17 49 21 4 4 16 7
26 7 10 0 18 5 18 10 0 6 6 10 14 10 7 0 19 7 26 15 17 20 -2 19 -60 -4z"/>
<path d="M14580 6430 c0 -5 5 -10 11 -10 5 0 7 5 4 10 -3 6 -8 10 -11 10 -2 0
-4 -4 -4 -10z"/>
<path d="M14660 6370 c0 -5 5 -10 11 -10 5 0 7 5 4 10 -3 6 -8 10 -11 10 -2 0
-4 -4 -4 -10z"/>
<path d="M7340 6350 c-11 -7 -7 -10 18 -10 17 0 32 5 32 10 0 13 -30 13 -50 0z"/>
<path d="M14728 6313 c54 -50 74 -65 80 -59 3 3 3 7 1 9 -2 2 -25 20 -50 40
-54 43 -75 50 -31 10z"/>
<path d="M7210 6316 c0 -13 11 -16 52 -16 60 0 55 14 -9 25 -36 6 -43 4 -43
-9z"/>
<path d="M14820 6241 c0 -5 14 -19 30 -31 17 -12 30 -18 29 -13 0 12 -59 56
-59 44z"/>
<path d="M4585 6230 c-3 -5 -15 -10 -26 -10 -34 0 -149 -41 -249 -88 -161 -75
-300 -175 -430 -309 -103 -105 -150 -161 -150 -178 0 -12 24 -4 39 13 28 31
73 62 82 56 5 -3 9 -18 9 -33 0 -16 7 -34 15 -41 13 -11 15 -7 15 24 0 20 5
36 10 36 6 0 10 5 10 11 0 19 83 94 101 91 9 -2 26 9 38 24 15 19 27 25 45 22
18 -4 26 0 30 15 3 12 10 17 20 14 8 -3 20 1 26 9 7 8 18 14 25 14 6 0 20 9
30 20 10 12 25 18 32 16 7 -3 15 -1 18 4 4 6 15 10 26 10 11 0 31 12 45 26 15
14 51 38 83 53 86 42 102 53 143 96 34 37 36 41 18 49 -18 8 -18 10 4 27 13
11 29 19 34 19 6 0 14 5 17 10 4 6 -6 10 -24 10 -16 0 -33 -4 -36 -10z m-35
-60 c-19 -13 -30 -13 -30 0 0 6 10 10 23 10 18 0 19 -2 7 -10z"/>
<path d="M14920 6145 c18 -19 36 -32 39 -30 6 7 -50 65 -63 65 -5 0 5 -16 24
-35z"/>
<path d="M15015 6060 c68 -73 86 -90 99 -90 6 0 -16 26 -49 58 -83 79 -110 97
-50 32z"/>
<path d="M15020 5615 c0 -8 5 -15 10 -15 6 0 10 7 10 15 0 8 -4 15 -10 15 -5
0 -10 -7 -10 -15z"/>
<path d="M5038 5603 c7 -3 16 -2 19 1 4 3 -2 6 -13 5 -11 0 -14 -3 -6 -6z"/>
<path d="M15070 5591 c0 -17 18 -21 24 -6 3 9 0 15 -9 15 -8 0 -15 -4 -15 -9z"/>
<path d="M4378 5523 c12 -2 32 -2 45 0 12 2 2 4 -23 4 -25 0 -35 -2 -22 -4z"/>
<path d="M5065 5480 c28 -12 37 -12 30 0 -3 6 -16 10 -28 9 -21 0 -21 -1 -2
-9z"/>
<path d="M4617 5404 c-8 -8 1 -24 14 -24 5 0 9 7 9 15 0 15 -12 20 -23 9z"/>
<path d="M4535 5370 c-3 -5 1 -10 9 -10 9 0 16 5 16 10 0 6 -4 10 -9 10 -6 0
-13 -4 -16 -10z"/>
<path d="M16005 4761 c-3 -5 -1 -12 5 -16 5 -3 10 1 10 9 0 18 -6 21 -15 7z"/>
<path d="M18060 3333 c0 -10 41 -16 198 -28 65 -6 66 -5 39 10 -34 19 -237 34
-237 18z"/>
<path d="M18640 3265 c52 -13 129 -26 170 -30 212 -17 309 -26 348 -30 36 -4
42 -2 42 14 0 16 -9 21 -52 25 -362 38 -455 46 -523 45 l-80 -1 95 -23z"/>
</g>
</svg>
