<?xml version="1.0" standalone="no"?>
<!DOCTYPE svg PUBLIC "-//W3C//DTD SVG 20010904//EN"
 "http://www.w3.org/TR/2001/REC-SVG-20010904/DTD/svg10.dtd">
<svg version="1.0" xmlns="http://www.w3.org/2000/svg"
 width="1280.000000pt" height="720.000000pt" viewBox="0 0 1280.000000 720.000000"
 preserveAspectRatio="xMidYMid meet">

<g transform="translate(0.000000,720.000000) scale(0.100000,-0.100000)"
fill="#000000" stroke="none">
<path d="M7785 4509 c-209 -3 -416 -11 -460 -17 -44 -6 -87 -11 -95 -10 -19 3
-169 -9 -340 -27 -196 -21 -232 -25 -265 -30 -16 -3 -41 -7 -55 -9 -64 -7
-253 -50 -320 -72 -25 -9 -79 -20 -120 -25 -128 -16 -389 -74 -404 -90 -6 -5
-22 -9 -37 -9 -15 0 -31 -4 -34 -10 -3 -5 -15 -10 -26 -10 -11 0 -22 -7 -25
-15 -4 -8 -17 -15 -29 -15 -13 0 -30 -7 -39 -15 -8 -9 -18 -15 -21 -14 -3 1
-15 -1 -27 -4 -18 -5 -19 -9 -9 -21 7 -8 10 -19 7 -25 -7 -11 22 -24 35 -15
17 10 59 -5 59 -21 0 -17 16 -20 24 -6 9 13 168 49 255 57 55 5 72 4 67 -4 -4
-7 -24 -12 -44 -12 -20 -1 -48 -7 -62 -15 -14 -8 -40 -14 -57 -15 -18 0 -33
-4 -33 -10 0 -5 -13 -10 -30 -10 -19 0 -34 -7 -42 -20 -7 -11 -23 -20 -36 -20
-13 0 -21 4 -18 9 3 4 -7 6 -22 2 -25 -5 -25 -6 -4 -9 12 -2 22 -10 22 -19 0
-11 -6 -14 -24 -9 -15 4 -28 0 -36 -9 -11 -13 -14 -13 -25 1 -11 15 -15 15
-43 3 -30 -13 -41 -32 -24 -42 4 -2 0 -2 -8 1 -34 10 -93 4 -85 -8 3 -5 -2
-10 -12 -10 -10 0 -45 -13 -78 -30 -48 -23 -55 -29 -35 -31 17 -1 10 -4 -20
-11 -25 -5 -60 -16 -78 -24 -33 -15 -33 -16 -13 -33 21 -18 21 -18 -8 -17 -20
1 -27 5 -23 15 4 10 1 13 -12 8 -10 -4 -20 -7 -23 -7 -3 0 1 -7 8 -16 11 -14
10 -18 -6 -30 -22 -16 -35 -18 -35 -4 0 6 5 10 10 10 6 0 10 8 10 17 0 14 -3
13 -20 -5 -12 -12 -27 -22 -35 -22 -23 0 -17 -18 7 -22 12 -2 23 -9 26 -17 4
-11 -2 -12 -24 -7 -16 4 -31 11 -34 15 -3 5 -14 5 -25 1 -16 -6 -14 -8 13 -13
50 -10 21 -35 -34 -29 -23 2 -52 -2 -64 -8 -13 -7 -71 -16 -129 -22 -58 -5
-149 -15 -201 -22 -91 -12 -93 -13 -43 -17 29 -2 238 -1 465 2 622 10 1136 8
1018 -3 -619 -59 -769 -79 -1020 -139 -124 -30 -459 -132 -575 -174 -223 -83
-282 -103 -325 -110 l-45 -7 25 19 c14 11 61 37 105 58 44 21 88 41 97 46 10
5 24 9 31 9 7 0 31 9 52 20 22 12 52 21 68 22 15 1 27 4 27 8 0 5 12 11 27 14
22 6 24 9 12 20 -11 11 -39 11 -147 2 -74 -6 -132 -13 -129 -16 3 -3 -16 -5
-41 -6 -48 0 -197 -19 -242 -29 -14 -4 -68 -11 -120 -16 -52 -5 -106 -13 -120
-18 -14 -5 -43 -9 -65 -10 -22 -1 -44 -6 -49 -11 -6 -6 -31 -10 -57 -10 -25 0
-59 -5 -75 -10 -16 -6 -74 -19 -129 -29 -55 -11 -143 -29 -195 -41 -52 -12
-104 -22 -115 -21 -16 0 -17 -2 -5 -9 13 -9 13 -11 0 -20 -8 -5 -27 -10 -42
-10 -14 0 -46 -8 -70 -19 -31 -13 -50 -16 -61 -9 -12 6 -47 1 -115 -18 -53
-14 -104 -29 -112 -34 -16 -7 -92 -25 -152 -35 -20 -3 -39 -12 -42 -20 -3 -8
-12 -15 -19 -15 -8 0 -32 -8 -53 -17 -22 -9 -41 -17 -44 -17 -20 -3 -135 -67
-179 -100 -44 -33 -50 -41 -35 -47 11 -3 24 -4 31 -2 7 3 10 -3 6 -17 -3 -11
-11 -19 -17 -17 -6 2 -19 0 -29 -5 -12 -6 -23 -5 -33 3 -12 10 -21 9 -47 -6
-18 -10 -36 -24 -40 -32 -4 -7 -15 -13 -24 -13 -21 0 -11 67 17 112 11 18 20
41 20 50 0 9 5 20 12 24 7 5 8 3 3 -6 -5 -8 -4 -11 3 -7 5 4 8 17 4 30 -5 20
-4 21 11 8 11 -9 17 -10 17 -2 0 12 -2 13 -40 15 -20 1 -24 -3 -22 -19 2 -19
2 -19 -12 -1 -13 16 -31 19 -118 21 -57 2 -120 6 -140 10 -25 5 -38 3 -38 -4
0 -6 10 -11 23 -11 43 0 38 -13 -10 -32 -29 -11 -93 -21 -158 -25 l-110 -7 68
-9 c43 -5 79 -5 97 1 22 8 30 7 34 -4 3 -8 19 -14 38 -14 31 1 32 1 14 15 -16
12 -17 15 -4 15 9 0 18 -5 20 -12 2 -6 23 -17 46 -24 35 -10 52 -9 98 2 30 8
64 12 75 9 13 -4 27 2 44 21 25 27 31 21 19 -23 -4 -14 -14 -23 -25 -23 -11 0
-19 -7 -19 -15 0 -10 -10 -15 -31 -15 -21 0 -28 4 -23 13 5 8 2 8 -9 -2 -11
-9 -17 -10 -17 -2 0 7 -20 10 -55 10 -30 -1 -55 -3 -55 -5 0 -2 13 -10 30 -19
16 -9 30 -22 30 -30 0 -8 6 -15 13 -15 9 0 9 -2 -1 -9 -8 -4 -13 -11 -13 -15
2 -16 0 -17 -14 -6 -12 10 -13 15 -4 20 6 4 -9 14 -36 24 -26 8 -52 13 -58 9
-6 -3 -7 -1 -3 5 8 14 -29 15 -59 2 -20 -8 -20 -9 1 -9 11 -1 24 -4 28 -8 4
-5 31 -13 59 -19 43 -9 49 -13 32 -20 -11 -5 -20 -16 -20 -24 0 -11 -10 -14
-39 -12 -51 4 -84 21 -65 32 7 5 26 6 41 3 17 -3 28 -1 28 6 0 6 -17 11 -41
11 -32 0 -42 4 -46 20 -5 20 -20 24 -85 23 -16 -1 -28 3 -28 7 0 29 -204 35
-328 10 -59 -12 -81 -33 -36 -36 10 -1 32 -7 47 -13 16 -6 44 -11 64 -11 29 0
36 4 46 30 13 35 42 39 117 16 l45 -14 -42 -7 c-24 -4 -43 -10 -43 -14 1 -30
67 -50 165 -50 47 0 81 -4 83 -10 5 -14 47 -20 180 -25 102 -3 115 -6 132 -26
29 -33 25 -40 -22 -40 -31 0 -39 3 -28 10 17 11 16 11 -80 36 -57 14 -104 15
-370 9 -168 -4 -352 -10 -410 -14 -101 -7 -103 -7 -60 -17 40 -9 30 -11 -100
-17 -137 -7 -205 -2 -290 22 -19 5 -63 13 -97 16 -35 4 -61 10 -59 13 2 4 -67
6 -155 4 l-159 -3 0 -118 0 -119 31 -6 c17 -3 104 -6 193 -7 366 -1 1192 -57
1235 -84 5 -2 50 -9 101 -15 52 -6 100 -16 108 -23 8 -7 42 -17 76 -22 57 -9
61 -12 66 -40 6 -30 6 -30 33 23 26 50 30 53 60 48 17 -3 37 0 44 5 8 7 23 7
47 -2 36 -13 59 -41 27 -32 -10 2 -23 -3 -30 -11 -8 -9 -20 -16 -27 -16 -16 0
-37 -46 -28 -61 3 -5 -5 -9 -18 -9 -18 0 -20 -2 -8 -10 21 -14 -55 -13 -81 0
-18 10 -18 8 3 -32 25 -46 32 -138 13 -157 -15 -15 -961 -27 -995 -13 -21 9
-14 11 43 11 37 1 67 5 67 11 0 5 12 13 28 16 15 4 32 10 37 14 9 7 86 21 197
35 62 8 67 19 18 35 -35 12 -56 40 -30 40 18 0 -13 39 -40 49 -24 10 -343 31
-469 31 -51 0 -62 -3 -58 -14 8 -21 -80 -30 -211 -22 -59 3 -180 9 -269 12
l-163 7 0 -273 0 -272 208 6 c376 11 1787 17 1800 8 12 -8 -927 -22 -1553 -22
-159 0 -327 -3 -372 -7 l-83 -6 0 -799 0 -798 5693 2 5692 3 295 43 c162 23
342 49 400 57 143 21 226 32 350 50 58 9 157 22 220 31 63 8 123 17 133 20 16
5 17 42 17 588 l0 583 -156 5 c-87 3 -159 10 -163 16 -10 16 -152 27 -161 11
-12 -18 -551 -20 -557 -1 -3 7 -21 12 -44 12 -21 0 -39 4 -39 8 0 4 64 8 142
9 118 1 143 4 150 17 11 20 28 21 28 1 0 -19 76 -21 82 -3 4 10 10 10 29 2 33
-15 129 -6 129 12 0 10 -14 14 -47 14 -27 0 -59 3 -72 7 -23 6 -23 7 -5 13 10
4 43 5 72 2 35 -3 52 -1 52 7 0 7 37 11 119 11 87 0 120 3 124 13 3 9 7 9 20
-1 9 -8 22 -10 28 -6 7 4 70 6 141 5 124 -2 128 -2 128 18 0 20 -6 21 -80 21
-53 0 -80 4 -80 11 0 8 -17 10 -50 7 -27 -3 -54 0 -60 6 -7 7 -14 6 -22 -2
-17 -17 -28 -15 -28 4 0 13 -9 15 -47 11 -63 -6 -426 14 -433 24 -3 5 -37 10
-75 12 -39 2 -1 2 83 -1 108 -3 152 -1 152 7 0 7 -28 11 -81 11 -63 0 -80 3
-76 13 4 11 -33 13 -192 12 -149 -2 -169 -1 -81 4 l115 6 -195 8 c-107 5 -253
7 -325 5 -113 -3 -104 -4 75 -7 137 -3 188 -6 155 -11 -72 -10 -346 -3 -359
10 -7 7 -3 47 14 133 30 145 35 389 11 467 -64 209 -148 349 -248 416 -63 42
-134 57 -203 44 -74 -14 -190 -67 -230 -106 -61 -58 -115 -103 -119 -99 -9 9
68 121 124 180 65 69 189 145 238 145 35 0 34 7 -6 63 -35 49 -97 98 -129 100
-11 1 -18 9 -19 22 0 20 0 20 -9 0 -8 -18 -9 -18 -10 5 -2 24 -3 23 -10 -5 -5
-18 -7 27 -6 109 1 103 -2 140 -11 143 -10 4 -13 -12 -13 -59 0 -35 -3 -80 -7
-101 -5 -31 -9 -37 -27 -35 -13 2 -24 14 -30 36 -8 30 -12 33 -38 28 -15 -3
-28 -1 -28 4 0 6 8 10 18 10 10 0 23 13 31 31 12 27 11 32 -5 50 -16 18 -16
19 -1 13 9 -3 17 -2 17 4 0 17 -22 20 -147 21 -67 0 -134 6 -149 11 l-28 11
30 19 c16 11 34 20 40 20 11 0 41 29 33 31 -2 0 -116 3 -254 5 -137 3 -254 9
-259 15 -6 5 -37 10 -70 11 -34 1 0 5 74 8 85 4 -10 6 -258 8 -216 1 -397 4
-403 7 -27 17 14 21 254 23 274 3 739 18 842 27 139 13 235 64 248 131 8 43
-6 67 -75 123 -34 29 -73 61 -86 72 -35 30 -201 143 -262 179 -178 105 -424
216 -590 268 -218 67 -357 95 -585 118 -158 15 -181 15 -326 0 -222 -23 -370
-65 -549 -156 -163 -84 -337 -205 -508 -352 -64 -56 -248 -242 -269 -273 -12
-16 -25 -27 -29 -23 -12 13 136 177 251 277 89 79 236 196 241 193 2 -1 12 5
22 15 27 27 218 149 285 181 133 65 256 110 342 127 172 33 202 36 378 35 104
0 192 -2 195 -4 4 -2 34 -7 67 -10 139 -16 362 -64 509 -112 43 -14 80 -23 82
-21 4 4 -65 31 -219 86 -33 12 -67 21 -78 21 -10 0 -19 5 -19 11 0 7 -10 9
-27 5 -17 -4 -23 -3 -15 2 14 10 -104 55 -143 55 -14 0 -25 4 -25 9 0 5 -8 8
-17 7 -10 -1 -20 0 -23 1 -3 1 -16 3 -30 5 -14 2 -50 9 -80 15 -65 14 -642 21
-634 9 6 -11 -31 -12 -54 -1 -9 4 -188 4 -397 1z m587 -241 c-9 -9 -15 -9 -24
0 -9 9 -7 12 12 12 19 0 21 -3 12 -12z m-59 -5 c-7 -2 -21 -2 -30 0 -10 3 -4
5 12 5 17 0 24 -2 18 -5z m-894 -33 c0 -8 -55 -49 -73 -56 -11 -4 -16 -1 -16
10 0 14 -6 16 -35 10 -42 -8 -49 12 -7 22 15 3 38 9 52 14 26 8 80 8 79 0z
m1909 -96 c101 -37 179 -67 241 -93 98 -41 340 -161 346 -171 9 -15 55 -203
51 -209 -2 -3 -53 -6 -113 -6 l-108 0 -9 60 c-6 33 -16 66 -23 73 -12 12 -33
74 -33 98 0 23 -30 68 -52 81 -27 15 -146 17 -183 3 -14 -5 -34 -18 -44 -27
-19 -19 -51 -108 -75 -212 -9 -35 -17 -66 -20 -68 -2 -2 -29 -7 -59 -10 l-54
-6 0 29 c0 42 -11 131 -24 189 -6 28 -9 64 -6 80 4 28 4 27 6 -7 2 -56 18 -54
24 4 4 33 3 55 -4 59 -8 5 -8 8 0 13 6 4 11 2 11 -3 0 -6 7 -11 15 -11 11 0
15 11 15 40 0 33 3 40 20 40 17 0 20 -7 22 -42 1 -37 2 -39 5 -10 4 30 7 32
44 32 29 0 39 4 39 16 0 11 -6 14 -20 9 -35 -11 -60 3 -60 35 0 30 2 30 48 14z
m-133 -74 c3 -5 1 -10 -4 -10 -6 0 -11 5 -11 10 0 6 2 10 4 10 3 0 8 -4 11
-10z m-36 -48 c0 -24 -1 -25 -9 -7 -12 28 -12 47 0 40 6 -3 10 -18 9 -33z
m-3664 -72 c-3 -5 -10 -10 -16 -10 -5 0 -9 5 -9 10 0 6 7 10 16 10 8 0 12 -4
9 -10z m4648 -52 c12 -7 24 -14 26 -15 2 -2 -2 -10 -10 -20 -13 -15 -12 -15 5
-6 20 11 57 1 82 -22 6 -5 46 -35 88 -65 71 -51 77 -57 72 -83 -14 -69 -67
-108 -179 -131 -84 -17 -98 -12 -97 33 0 20 -3 52 -6 71 -6 32 -5 34 10 21 20
-17 21 -7 0 24 -15 23 -15 27 0 49 14 22 14 29 2 64 -11 30 -12 43 -3 52 9 10
7 11 -10 6 -18 -6 -20 -4 -16 14 6 24 7 24 36 8z m-4860 -32 c4 -10 1 -13 -9
-9 -7 3 -14 9 -14 14 0 14 17 10 23 -5z m4764 -38 c-3 -8 -6 -5 -6 6 -1 11 2
17 5 13 3 -3 4 -12 1 -19z m-4877 -18 c12 -8 11 -10 -7 -10 -13 0 -23 5 -23
10 0 13 11 13 30 0z m4947 -32 c-3 -7 -5 -2 -5 12 0 14 2 19 5 13 2 -7 2 -19
0 -25z m-49 0 c-2 -6 -10 -14 -16 -16 -7 -2 -10 2 -6 12 7 18 28 22 22 4z m12
-52 c0 -13 -7 -26 -14 -29 -10 -4 -13 -1 -10 9 2 7 6 21 9 29 7 23 15 18 15
-9z m27 -148 c5 -40 -5 -49 -27 -23 -8 10 -9 15 -1 15 7 0 9 21 6 63 -4 58 -4
59 6 22 6 -22 13 -57 16 -77z m-127 41 c0 -5 -13 -9 -30 -9 -35 0 -41 17 -7
22 26 5 37 1 37 -13z m-931 -143 c-2 -1 -31 0 -64 3 l-60 5 60 6 c33 3 62 1
64 -3 1 -5 1 -9 0 -11z m26 15 c3 -5 1 -12 -5 -16 -5 -3 -10 1 -10 9 0 18 6
21 15 7z m-3825 -51 c0 -6 30 -10 70 -10 39 0 70 -4 70 -8 0 -5 -78 -35 -172
-67 -95 -32 -205 -73 -245 -91 -40 -19 -77 -34 -83 -34 -6 0 -18 -4 -28 -9
-55 -30 -232 -71 -307 -71 -44 0 -84 28 -70 49 18 30 219 97 555 185 41 11 48
14 26 15 -45 1 -27 10 65 30 101 22 119 24 119 11z m5154 -260 c-15 -13 -62
-21 -68 -11 -3 5 11 16 32 24 35 14 57 6 36 -13z m-5354 -8 c-8 -1 -23 -16
-32 -32 -17 -31 -38 -40 -38 -17 1 29 53 70 75 58 6 -3 3 -7 -5 -9z m5427 -4
c-3 -8 -6 -5 -6 6 -1 11 2 17 5 13 3 -3 4 -12 1 -19z m-164 -5 c-7 -2 -19 -2
-25 0 -7 3 -2 5 12 5 14 0 19 -2 13 -5z m-5495 -50 c-24 -6 -23 -23 2 -23 39
0 19 -17 -27 -24 -55 -7 -66 -1 -29 15 15 7 25 18 22 26 -4 9 3 13 22 12 17
-1 20 -3 10 -6z m1972 -2 c0 -6 -4 -13 -10 -16 -5 -3 -10 1 -10 9 0 9 5 16 10
16 6 0 10 -4 10 -9z m3770 -11 c0 -11 -4 -20 -9 -20 -14 0 -23 18 -16 30 10
17 25 11 25 -10z m-5800 2 c0 -4 -9 -13 -20 -20 -24 -14 -26 -32 -5 -32 8 0
15 -4 15 -9 0 -5 10 -12 23 -14 19 -4 18 -4 -5 -6 -18 0 -28 -7 -28 -16 0 -10
-10 -15 -29 -15 -33 0 -51 18 -30 31 23 14 2 21 -23 8 -13 -7 -18 -14 -11 -16
7 -3 10 -10 7 -18 -4 -8 3 -15 18 -17 13 -2 -21 -7 -74 -12 -53 -4 -106 -5
-117 -1 -21 6 -21 7 5 41 15 19 32 34 38 34 6 0 19 9 29 20 19 22 77 28 77 8
-2 -35 -37 -83 -65 -90 -23 -6 -21 -6 10 -3 22 3 46 5 54 5 8 0 11 6 7 15 -10
28 28 93 64 108 22 8 60 8 60 -1z m2318 -14 c-3 -7 -25 -14 -51 -16 -33 -2
-47 -7 -47 -18 0 -19 -19 -18 -27 2 -10 25 24 44 80 44 34 0 47 -4 45 -12z
m-2138 -29 c0 -22 -4 -30 -14 -26 -7 3 -18 1 -24 -5 -7 -7 -16 -7 -29 1 -14 8
-14 10 -3 11 9 0 27 11 40 24 32 31 30 32 30 -5z m1430 21 c13 -8 13 -10 -2
-10 -9 0 -20 5 -23 10 -8 13 5 13 25 0z m348 -16 c20 -13 26 -14 33 -3 6 10 9
11 9 2 0 -7 7 -13 15 -13 8 0 42 -28 74 -61 l59 -62 44 18 c45 19 94 20 146 6
22 -7 32 -6 36 2 3 9 7 8 14 -1 7 -11 11 -8 15 9 4 13 8 21 10 19 6 -7 16
-113 18 -195 2 -63 3 -57 13 52 6 70 16 127 24 135 9 9 12 8 13 -7 0 -11 3
-14 6 -7 8 20 23 14 24 -10 0 -13 3 -17 6 -10 2 6 19 12 37 12 18 0 36 4 42 9
5 5 86 11 179 15 191 6 274 14 293 29 8 6 12 6 12 -2 0 -8 10 -7 30 4 49 26
518 52 1005 57 l320 3 6 -35 c5 -27 7 -29 8 -10 3 54 -21 52 517 45 274 -3
531 -9 569 -13 l70 -7 -2 -125 c-2 -151 -9 -270 -16 -290 -13 -37 -13 -56 0
-68 7 -7 13 -18 12 -25 0 -9 -2 -9 -6 1 -10 25 -22 10 -33 -43 -12 -59 -27
-77 -42 -52 -4 9 -14 22 -21 29 -7 7 -28 45 -46 83 -33 68 -75 125 -94 125 -5
0 -35 15 -67 34 -71 42 -169 78 -270 100 -109 24 -118 26 -195 32 -72 6 -348
51 -375 61 -47 18 -572 17 -722 -1 -68 -8 -172 -16 -233 -17 -207 -3 -661 -72
-820 -124 -22 -7 -84 -30 -138 -50 -82 -32 -100 -43 -114 -69 -9 -17 -25 -41
-37 -53 -41 -41 -48 -55 -52 -94 -5 -53 -17 -73 -60 -99 -45 -29 -54 -21 -83
77 -20 67 -26 76 -97 140 -43 39 -102 105 -135 155 -33 47 -82 107 -110 133
-27 25 -46 51 -43 57 5 7 2 8 -5 3 -8 -4 -23 3 -39 18 -15 14 -45 35 -67 47
l-40 22 35 -7 c27 -5 32 -4 20 5 -12 9 -11 10 6 5 13 -3 28 0 36 9 8 7 23 16
34 19 35 10 146 -2 172 -19z m-1728 12 c0 -2 -7 -9 -15 -16 -13 -11 -14 -10
-9 4 5 14 24 23 24 12z m-640 -23 c0 -11 -7 -14 -25 -11 -14 3 -28 1 -31 -4
-3 -5 -12 -7 -20 -4 -8 3 -14 1 -14 -4 0 -6 -10 -10 -22 -10 -28 0 -16 11 33
30 53 21 79 22 79 3z m-5 -47 c12 5 16 4 12 -4 -8 -12 -66 -27 -74 -18 -4 3 2
13 13 20 11 8 21 10 25 5 3 -5 14 -7 24 -3z m103 -13 c-2 -11 -14 -19 -32 -21
-17 -2 -26 0 -22 7 4 5 13 8 21 4 9 -3 15 1 15 11 0 9 5 16 11 16 6 0 9 -8 7
-17z m425 10 c-7 -2 -19 -2 -25 0 -7 3 -2 5 12 5 14 0 19 -2 13 -5z m-96 -19
c-3 -3 -12 -4 -19 -1 -8 3 -5 6 6 6 11 1 17 -2 13 -5z m-817 -29 c36 -9 119
-18 185 -22 82 -4 111 -9 92 -14 -40 -11 -192 -2 -262 15 -73 17 -158 49 -110
41 17 -3 59 -12 95 -20z m520 -5 c0 -5 -20 -10 -45 -10 -58 0 -58 14 0 18 25
1 45 -2 45 -8z m-132 -17 c-16 -2 -40 -2 -55 0 -16 2 -3 4 27 4 30 0 43 -2 28
-4z m-2643 -23 c3 -5 -1 -10 -9 -10 -9 0 -16 5 -16 10 0 6 4 10 9 10 6 0 13
-4 16 -10z m143 -36 c-3 -2 -24 3 -49 11 l-44 14 43 -5 c31 -4 42 -2 43 8 1 7
3 5 6 -5 3 -10 3 -20 1 -23z m4322 5 c0 19 60 6 124 -26 60 -31 237 -204 289
-284 138 -213 183 -375 174 -629 -5 -167 -28 -282 -83 -422 -51 -129 -140
-271 -155 -247 -4 7 -17 0 -34 -15 -16 -15 -30 -24 -33 -21 -8 7 28 44 48 50
10 3 23 18 29 33 5 15 26 55 46 90 137 241 176 654 85 917 -11 33 -22 68 -25
77 -8 34 -84 162 -146 246 -93 125 -257 199 -419 190 -66 -3 -70 -3 -44 9 16
6 43 12 60 13 16 0 39 6 50 14 14 11 21 11 26 3 6 -9 8 -8 8 2z m-4410 -114
c0 -8 -2 -15 -4 -15 -2 0 -6 7 -10 15 -3 8 -1 15 4 15 6 0 10 -7 10 -15z m87
-7 c-3 -8 -6 -5 -6 6 -1 11 2 17 5 13 3 -3 4 -12 1 -19z m4360 -21 c118 -31
246 -138 322 -271 57 -100 112 -275 110 -349 l-1 -32 -8 30 c-5 17 -20 75 -34
130 -14 56 -39 128 -57 160 -53 101 -120 190 -133 178 -3 -3 -6 -1 -6 6 0 24
-96 88 -166 111 -21 7 -65 12 -98 12 -82 -1 -83 -1 -66 -12 11 -7 8 -10 -16
-10 -24 0 -33 -5 -39 -22 -4 -14 -8 -18 -12 -10 -2 6 -9 12 -14 12 -6 0 -7 -5
-3 -12 5 -8 0 -9 -15 -5 -15 3 -24 -1 -31 -14 -6 -10 -14 -18 -19 -16 -4 1
-32 -29 -61 -68 -30 -38 -59 -74 -66 -80 -11 -8 -64 -101 -64 -111 0 -2 7 -1
15 2 10 4 15 0 15 -15 0 -12 5 -21 12 -21 9 0 9 -3 1 -11 -6 -6 -9 -19 -6 -28
4 -13 3 -14 -5 -2 -9 12 -13 12 -26 2 -14 -12 -16 -10 -16 8 0 60 -48 -21 -73
-124 -20 -81 -28 -165 -17 -165 6 0 10 7 10 17 0 9 3 14 6 10 10 -10 -6 -78
-17 -72 -13 9 -10 -90 5 -160 13 -57 16 -61 20 -25 1 11 17 16 61 18 33 2 66
9 73 14 18 16 25 3 11 -20 -17 -27 14 -102 43 -102 11 0 16 -5 13 -10 -4 -6
-11 -8 -16 -5 -11 8 -12 -6 0 -24 6 -9 11 -10 15 -2 12 19 25 12 69 -35 50
-55 96 -84 129 -84 25 0 25 0 20 83 -2 45 -2 80 1 77 6 -6 14 -66 27 -205 16
-159 17 -165 45 -165 60 0 179 79 224 148 17 26 35 52 40 58 14 17 51 92 51
103 0 6 -7 8 -16 4 -15 -5 -16 0 -9 43 4 27 11 56 15 64 5 9 16 51 25 95 9 43
21 85 27 92 19 23 38 15 38 -17 0 -25 4 -30 25 -30 16 0 28 -7 31 -17 3 -10 8
-24 10 -32 11 -36 25 14 33 125 l10 119 -4 -129 c-3 -71 -9 -134 -13 -140 -5
-6 -12 -37 -16 -68 -8 -74 -44 -167 -107 -278 -57 -101 -157 -197 -259 -248
-72 -36 -79 -37 -180 -37 -99 0 -109 2 -172 34 -143 73 -246 198 -316 386 -69
186 -71 494 -3 687 29 83 83 189 122 239 82 106 207 197 300 219 54 13 150 11
206 -3z m-4417 -33 c0 -8 -9 -14 -19 -14 -22 0 -35 15 -27 29 9 13 46 1 46
-15z m1380 22 c0 -3 -4 -8 -10 -11 -5 -3 -10 -1 -10 4 0 6 5 11 10 11 6 0 10
-2 10 -4z m-1330 -26 c8 -5 12 -11 9 -14 -7 -8 -49 5 -49 15 0 12 21 11 40 -1z
m9029 -70 c98 -50 192 -201 242 -387 29 -109 37 -363 15 -488 -8 -50 -13 -101
-9 -113 3 -14 1 -22 -8 -22 -7 0 -10 -3 -6 -6 6 -7 -20 -87 -53 -159 -45 -98
-109 -166 -194 -202 -215 -93 -399 125 -436 517 -13 127 -9 204 16 347 31 181
116 364 211 455 83 79 148 96 222 58z m-5119 7 c0 -2 -10 -15 -21 -28 -146
-165 -229 -409 -229 -675 0 -263 81 -491 231 -645 64 -66 159 -121 252 -145
73 -20 87 -34 32 -34 -40 0 -145 30 -145 42 0 4 -8 8 -17 8 -16 0 -107 66
-168 122 -16 15 -33 28 -37 28 -5 0 -8 6 -8 13 0 8 -9 22 -21 33 -39 35 -122
234 -132 314 -1 14 -5 30 -8 35 -9 15 -14 124 -12 246 3 176 43 354 106 476
15 29 27 55 26 59 0 3 9 14 20 23 12 10 21 22 21 26 0 5 24 30 53 56 52 48 57
52 57 46z m4587 -139 c-3 -8 -6 -5 -6 6 -1 11 2 17 5 13 3 -3 4 -12 1 -19z
m-8519 -175 l3 -41 -36 1 c-23 1 -43 9 -57 24 l-21 23 26 0 c20 0 27 5 27 19
0 13 7 18 28 17 24 -1 27 -5 30 -43z m8172 -52 c114 -23 154 -46 134 -79 -12
-18 -158 -49 -241 -51 -41 -1 -43 0 -43 29 0 26 -4 30 -27 31 -16 0 -57 2 -93
3 -36 2 -179 4 -318 5 l-253 3 -10 26 c-13 33 0 41 66 43 28 1 93 5 145 9 170
15 521 4 640 -19z m-870 -33 l0 -33 -197 -3 c-132 -1 -199 -6 -204 -13 -4 -7
-11 -9 -16 -6 -16 10 -643 -37 -683 -51 -8 -2 -27 -4 -41 -3 -15 1 -64 -5
-109 -13 -79 -15 -159 -21 -149 -11 7 7 145 32 242 45 45 5 109 15 142 20 126
20 286 40 450 55 308 30 459 42 513 44 l52 1 0 -32z m-4360 2 c0 -5 -9 -10
-19 -10 -11 0 -23 5 -26 10 -4 6 5 10 19 10 14 0 26 -4 26 -10z m2950 -144 c0
-2 -35 -11 -77 -21 -43 -9 -98 -25 -123 -35 -25 -10 -67 -21 -95 -24 l-50 -7
48 20 c26 11 69 24 95 30 26 6 72 18 102 25 55 14 100 19 100 12z m-1643 -82
c3 -8 1 -20 -5 -26 -7 -7 -7 -19 -1 -36 12 -32 4 -40 -20 -18 -11 10 -24 15
-29 12 -23 -14 -19 26 4 54 29 34 42 37 51 14z m-5268 -59 c2 -3 -89 -5 -203
-5 -144 0 -205 3 -201 11 7 10 393 4 404 -6z m5143 -47 c9 -29 14 -55 12 -57
-7 -7 -74 28 -74 38 0 5 7 14 15 21 8 7 15 21 15 31 0 36 16 19 32 -33z
m-4039 -46 c-3 -13 -2 -27 3 -31 5 -3 18 -17 29 -30 l20 -23 -75 5 c-41 4 -80
6 -87 7 -7 0 -27 14 -45 32 l-32 31 27 -7 c22 -5 25 -4 20 11 -3 10 -3 15 2
11 4 -4 23 6 42 22 33 29 34 29 68 13 29 -14 34 -20 28 -41z m-465 27 c2 -5
13 -9 25 -9 12 0 32 -3 45 -6 47 -13 18 -21 -80 -22 -76 -1 -108 2 -125 13
-13 9 -23 11 -23 7 0 -5 -11 -7 -25 -4 -40 7 -29 22 18 23 23 1 53 5 67 9 28
9 93 2 98 -11z m242 -29 l24 -21 -54 3 c-40 2 -56 7 -58 18 -4 25 59 25 88 0z
m4364 -56 c18 -7 23 -64 6 -64 -5 0 -10 9 -10 19 0 11 -4 23 -10 26 -10 6 -14
25 -6 25 2 0 11 -3 20 -6z m453 -579 c-23 -22 -33 -18 -12 5 10 11 20 18 23
16 2 -3 -3 -12 -11 -21z"/>
<path d="M9300 4110 c0 -5 7 -10 15 -10 8 0 15 5 15 10 0 6 -7 10 -15 10 -8 0
-15 -4 -15 -10z"/>
<path d="M9200 3909 c0 -5 5 -7 10 -4 6 3 10 8 10 11 0 2 -4 4 -10 4 -5 0 -10
-5 -10 -11z"/>
<path d="M9213 3833 c9 -2 25 -2 35 0 9 3 1 5 -18 5 -19 0 -27 -2 -17 -5z"/>
<path d="M9205 3800 c3 -5 15 -10 26 -10 10 0 19 5 19 10 0 6 -12 10 -26 10
-14 0 -23 -4 -19 -10z"/>
<path d="M5662 1695 c-3 -33 9 -65 24 -65 8 0 14 7 14 15 0 8 -6 15 -14 15 -8
0 -17 12 -19 28 -2 16 -5 19 -5 7z"/>
<path d="M5760 1480 c0 -12 41 -60 50 -60 4 0 5 11 3 24 -5 23 -53 56 -53 36z"/>
<path d="M10714 2510 c-47 -24 -68 -42 -116 -102 -36 -43 -73 -117 -63 -126 2
-3 8 4 11 14 13 33 67 108 108 147 69 65 152 72 230 17 60 -42 105 -103 138
-189 24 -61 16 -63 -11 -4 -74 160 -153 219 -251 188 -35 -11 -90 -48 -90 -61
0 -6 -15 -31 -33 -55 -50 -68 -79 -126 -99 -203 -22 -84 -34 -293 -20 -351 10
-40 10 -40 11 -7 1 43 21 41 21 -2 0 -19 -4 -38 -10 -41 -5 -3 -10 -17 -10
-30 0 -32 28 -115 45 -132 11 -11 13 -3 9 44 -3 32 -10 63 -16 70 -7 9 -7 17
2 28 7 8 10 22 6 30 -3 9 0 15 8 15 8 0 16 -6 19 -14 4 -9 14 -12 28 -9 21 6
22 5 14 -61 -5 -47 -3 -71 5 -81 17 -20 66 -19 74 1 8 21 -14 157 -27 165 -14
9 0 42 16 37 6 -3 13 -22 15 -44 2 -21 8 -43 13 -49 5 -5 9 -18 9 -30 0 -11 7
-30 15 -42 9 -12 20 -59 26 -105 9 -72 19 -114 19 -80 0 7 9 12 20 12 32 0 55
69 32 95 -8 9 -32 84 -32 98 0 8 43 -5 68 -21 22 -15 25 -14 54 17 l31 33 -18
34 c-12 22 -15 43 -11 66 3 18 9 49 12 70 4 24 13 38 26 41 16 5 18 0 17 -31
-3 -46 17 -81 43 -74 22 5 22 2 3 -90 -36 -174 -102 -294 -193 -350 -41 -25
-35 -34 10 -15 120 50 238 334 238 573 0 245 -74 495 -171 578 -23 19 -48 35
-57 36 -10 0 -42 3 -72 6 -43 4 -64 0 -96 -16z m346 -372 c0 -18 3 -44 7 -58
3 -14 2 -22 -2 -17 -12 10 -23 107 -13 107 4 0 8 -15 8 -32z m17 -130 c-3 -8
-6 -5 -6 6 -1 11 2 17 5 13 3 -3 4 -12 1 -19z m-402 -68 c-6 -48 -4 -66 10
-86 16 -24 16 -26 -2 -40 -23 -17 -33 -17 -33 0 0 7 -6 19 -14 25 -13 11 -13
17 0 46 8 19 14 45 14 59 0 32 10 56 22 56 6 0 7 -22 3 -60z m65 21 c12 -24
13 -71 1 -90 -5 -8 -16 -11 -29 -7 -17 6 -19 13 -15 49 8 72 22 87 43 48z
m337 -78 c-3 -10 -5 -4 -5 12 0 17 2 24 5 18 2 -7 2 -21 0 -30z m-472 -93 c-3
-5 -10 -10 -16 -10 -5 0 -9 5 -9 10 0 6 7 10 16 10 8 0 12 -4 9 -10z"/>
<path d="M10462 2060 c0 -14 2 -19 5 -12 2 6 2 18 0 25 -3 6 -5 1 -5 -13z"/>
<path d="M10452 1884 c-3 -208 39 -367 126 -480 45 -58 110 -95 163 -93 l34 2
-40 6 c-58 10 -97 34 -138 85 -88 106 -127 235 -137 451 l-7 150 -1 -121z"/>
<path d="M4520 3760 c-9 -6 -10 -10 -3 -10 6 0 15 5 18 10 8 12 4 12 -15 0z"/>
<path d="M4458 3724 c-16 -8 -28 -17 -28 -19 0 -10 16 -4 40 15 30 23 25 25
-12 4z"/>
<path d="M4368 3673 c-1 -5 -42 -28 -90 -53 -71 -37 -83 -46 -62 -48 17 -2 47
12 95 45 72 49 88 63 70 63 -5 0 -11 -3 -13 -7z"/>
<path d="M4928 3673 c6 -2 18 -2 25 0 6 3 1 5 -13 5 -14 0 -19 -2 -12 -5z"/>
<path d="M3125 3473 c-76 -10 -287 -57 -355 -79 -168 -56 -500 -254 -500 -299
0 -6 -9 -22 -20 -35 -11 -13 -20 -30 -20 -39 0 -12 4 -10 15 6 17 24 155 108
206 124 19 6 48 17 64 24 92 41 126 55 135 55 5 0 34 11 64 25 30 14 62 25 70
25 9 0 16 4 16 9 0 5 17 12 38 16 22 3 50 12 63 19 13 7 46 19 72 26 26 8 47
18 47 22 0 4 17 12 38 18 47 13 72 29 55 37 -20 7 -15 23 6 23 11 0 23 5 27
11 3 6 17 8 29 5 13 -3 27 -2 30 4 6 10 -19 11 -80 3z"/>
<path d="M10317 3449 c19 -32 60 -66 69 -56 5 5 -71 87 -81 87 -3 0 2 -14 12
-31z"/>
<path d="M9928 3453 c6 -2 18 -2 25 0 6 3 1 5 -13 5 -14 0 -19 -2 -12 -5z"/>
<path d="M4480 3380 c0 -5 4 -10 9 -10 6 0 13 5 16 10 3 6 -1 10 -9 10 -9 0
-16 -4 -16 -10z"/>
<path d="M10405 3370 c-10 -17 -4 -18 45 -10 28 5 35 8 18 9 -14 0 -33 4 -41
7 -8 3 -18 0 -22 -6z"/>
<path d="M10307 3349 c7 -7 21 -7 44 -1 l34 10 -44 1 c-32 1 -42 -2 -34 -10z"/>
<path d="M2825 3259 c-16 -6 -73 -24 -125 -41 -91 -29 -216 -85 -208 -93 6 -6
373 127 387 141 7 7 -23 3 -54 -7z"/>
<path d="M0 3157 c0 -71 3 -84 20 -95 11 -7 20 -17 20 -22 0 -6 -9 -10 -20
-10 -16 0 -20 -7 -20 -30 0 -26 4 -30 28 -31 21 0 23 -2 9 -8 -15 -5 -6 -12
40 -34 62 -29 105 -35 100 -15 -4 23 33 19 67 -7 l35 -26 20 20 c12 12 25 21
30 21 6 0 9 9 8 20 -1 17 -3 18 -17 5 -25 -23 -33 -18 -9 6 17 17 26 19 44 11
12 -6 26 -7 32 -4 13 9 26 45 13 37 -6 -3 -10 -1 -10 4 0 6 7 11 15 11 8 0 15
5 15 10 0 6 -9 10 -21 10 -14 0 -19 5 -17 18 2 9 9 16 16 15 19 -4 2 26 -19
32 -10 4 -19 13 -19 21 0 8 -8 15 -17 15 -10 1 -34 3 -53 4 -20 1 -46 8 -59
14 -12 7 -29 10 -38 7 -24 -9 -87 11 -119 39 -16 14 -35 25 -41 25 -7 0 -13 5
-13 10 0 6 -4 10 -10 10 -6 0 -10 -34 -10 -83z m140 -17 c0 -5 -4 -10 -10 -10
-5 0 -10 5 -10 10 0 6 5 10 10 10 6 0 10 -4 10 -10z m194 -99 c-7 -8 -35 9
-29 19 4 6 11 5 20 -3 7 -6 11 -14 9 -16z m-254 -21 c0 -5 -4 -10 -9 -10 -6 0
-13 5 -16 10 -3 6 1 10 9 10 9 0 16 -4 16 -10z m57 -6 c-3 -3 -12 -4 -19 -1
-8 3 -5 6 6 6 11 1 17 -2 13 -5z m13 -94 c12 -8 11 -10 -7 -10 -13 0 -23 5
-23 10 0 13 11 13 30 0z"/>
<path d="M2275 3160 c-3 -5 -1 -10 4 -10 6 0 11 5 11 10 0 6 -2 10 -4 10 -3 0
-8 -4 -11 -10z"/>
<path d="M2181 3076 c-13 -14 -21 -30 -19 -37 4 -12 58 37 58 53 0 15 -17 8
-39 -16z"/>
<path d="M545 3052 c11 -10 105 -43 105 -37 0 5 -54 29 -91 40 -16 5 -21 4
-14 -3z"/>
<path d="M741 3003 c13 -15 11 -16 -11 -9 -14 4 -34 9 -45 10 -11 2 -12 1 -3
-1 9 -2 22 -11 28 -19 7 -8 20 -14 30 -14 10 0 23 -7 31 -16 10 -13 10 -17 -2
-25 -8 -5 -22 -7 -32 -5 -40 10 -8 -20 39 -36 44 -15 51 -15 66 -1 10 9 25 12
36 8 11 -3 23 -1 27 5 4 7 11 7 18 2 7 -5 21 -12 32 -15 17 -6 17 -4 -4 13
-13 11 -31 20 -41 20 -10 0 -20 7 -24 15 -3 8 -12 15 -20 15 -8 0 -22 10 -30
22 -8 12 -32 27 -53 35 -50 17 -58 16 -42 -4z"/>
<path d="M915 2990 c3 -5 12 -10 19 -10 7 0 22 -10 35 -21 13 -12 34 -21 47
-21 13 0 24 -4 24 -9 0 -5 5 -9 11 -9 6 0 9 7 5 15 -8 23 22 18 36 -5 8 -12
24 -20 40 -20 15 0 31 -6 35 -14 5 -9 34 -16 88 -19 44 -3 68 -3 53 -1 -42 8
-33 24 12 24 27 0 40 -4 40 -14 0 -16 96 -20 106 -5 3 5 9 7 14 4 4 -3 10 2
14 10 3 9 18 15 35 15 16 0 33 5 36 11 5 7 -5 8 -30 3 -36 -6 -81 8 -97 31 -4
5 -58 11 -120 13 -62 1 -122 3 -133 3 -11 1 -52 8 -92 15 -85 16 -187 19 -178
4z"/>
<path d="M625 2969 c-19 -7 -19 -8 3 -8 12 -1 22 -5 22 -11 0 -5 5 -10 10 -10
14 0 12 27 -2 33 -7 2 -22 1 -33 -4z"/>
<path d="M1538 2883 c7 -3 16 -2 19 1 4 3 -2 6 -13 5 -11 0 -14 -3 -6 -6z"/>
<path d="M505 2858 c-27 -6 -68 -16 -90 -23 l-40 -13 48 -12 c26 -7 47 -17 47
-22 0 -6 -10 -8 -23 -4 -14 3 -33 -1 -46 -10 -29 -21 -118 -21 -323 1 l-78 8
0 -28 c0 -25 2 -27 30 -22 22 5 34 1 47 -12 17 -18 45 -20 373 -29 195 -5 387
-9 425 -9 39 0 104 -3 146 -8 109 -11 133 6 45 31 -36 10 -66 21 -66 24 0 3
-91 6 -202 8 -112 1 -214 4 -228 6 -41 5 -19 21 30 22 70 1 119 13 129 32 9
16 11 15 28 -1 18 -15 33 -14 33 3 0 4 -27 21 -60 38 -65 35 -122 39 -225 20z"/>
<path d="M295 2850 c3 -5 16 -10 28 -10 18 0 19 2 7 10 -20 13 -43 13 -35 0z"/>
<path d="M782 2838 c2 -6 17 -12 34 -13 16 -1 44 -6 62 -10 36 -8 45 7 13 25
-27 14 -114 13 -109 -2z"/>
<path d="M1040 2840 c0 -4 20 -10 45 -12 24 -1 41 0 37 3 -12 10 -82 18 -82 9z"/>
<path d="M1000 2830 c0 -5 5 -10 10 -10 6 0 10 5 10 10 0 6 -4 10 -10 10 -5 0
-10 -4 -10 -10z"/>
<path d="M648 2633 c7 -3 16 -2 19 1 4 3 -2 6 -13 5 -11 0 -14 -3 -6 -6z"/>
<path d="M11880 2290 c-105 -13 -140 -14 -349 -11 -101 1 -187 -1 -192 -6 -4
-4 -10 -30 -13 -58 -8 -69 -29 -172 -38 -181 -5 -4 -8 -17 -8 -30 0 -21 4 -22
118 -28 64 -4 182 -11 262 -16 366 -25 481 -31 710 -40 135 -6 287 -13 338
-17 l92 -6 0 117 0 116 -72 0 c-40 0 -113 5 -163 10 -49 5 -215 15 -367 21
-153 7 -276 14 -274 16 2 2 45 6 97 9 95 5 134 14 63 14 -21 0 -48 7 -58 15
-11 8 -35 15 -53 15 -18 0 -33 5 -33 12 0 8 39 9 148 4 176 -8 449 -33 465
-43 6 -4 57 -10 112 -14 55 -4 108 -10 118 -14 14 -6 17 -2 17 28 0 25 -5 37
-17 40 -17 4 -17 5 0 6 9 0 17 4 17 9 0 4 -48 8 -108 8 -59 1 -190 6 -292 13
-284 17 -438 21 -520 11z m-140 -51 c69 -15 79 -20 50 -29 -23 -7 -22 -8 10
-10 19 -1 46 -1 60 0 14 1 22 -2 17 -6 -10 -10 -160 -6 -167 5 -7 10 -71 22
-138 26 -58 3 -83 14 -36 17 22 1 18 3 -16 9 -28 5 -3 6 65 3 61 -3 130 -10
155 -15z m163 14 c-13 -2 -33 -2 -45 0 -13 2 -3 4 22 4 25 0 35 -2 23 -4z
m-456 -80 c-20 -2 -52 -2 -70 0 -17 2 0 4 38 4 39 0 53 -2 32 -4z m256 -10
c-7 -2 -21 -2 -30 0 -10 3 -4 5 12 5 17 0 24 -2 18 -5z m557 -112 c22 -7 20
-8 -17 -14 -48 -8 -123 1 -123 14 0 11 104 10 140 0z m487 -57 c-3 -3 -12 -4
-19 -1 -8 3 -5 6 6 6 11 1 17 -2 13 -5z"/>
<path d="M0 2240 c0 -27 3 -30 33 -30 17 0 55 7 82 14 l50 14 -43 1 c-26 1
-41 5 -37 11 3 6 -1 7 -9 4 -9 -3 -16 -1 -16 5 0 6 -13 11 -30 11 -27 0 -30
-3 -30 -30z"/>
<path d="M11270 2260 c0 -5 7 -10 15 -10 8 0 15 5 15 10 0 6 -7 10 -15 10 -8
0 -15 -4 -15 -10z"/>
<path d="M11283 1934 c11 -11 423 -33 454 -25 22 7 13 9 -47 14 -125 11 -414
18 -407 11z"/>
<path d="M12268 1893 c12 -2 30 -2 40 0 9 3 -1 5 -23 4 -22 0 -30 -2 -17 -4z"/>
<path d="M11256 1883 c-3 -3 -3 -16 0 -28 3 -13 -1 -27 -10 -34 -24 -20 -19
-37 17 -63 l32 -23 349 3 c192 2 358 8 370 12 17 7 18 9 4 9 -25 1 -22 17 5
26 l22 8 -22 4 c-25 5 -32 33 -8 33 8 0 15 5 15 11 0 7 -12 8 -32 5 -26 -5
-28 -4 -12 3 23 10 239 -1 251 -12 3 -4 -2 -7 -12 -7 -13 0 -15 -3 -6 -13 8
-11 5 -16 -15 -26 -14 -6 -30 -9 -35 -6 -5 4 -9 1 -9 -4 0 -6 12 -11 28 -11
18 0 23 -3 14 -9 -24 -15 119 -21 361 -14 l237 6 0 69 0 69 -134 -3 c-74 -2
-132 -6 -130 -10 14 -23 -129 -26 -376 -9 -185 13 -482 12 -491 -1 -3 -5 -33
-5 -70 1 -77 12 -334 23 -343 14z m515 -24 c11 -5 17 -14 14 -20 -7 -11 -88
-12 -99 -2 -5 6 32 25 62 32 2 1 12 -4 23 -10z m-303 -20 c25 0 26 -1 5 -9
-23 -9 -63 -3 -63 10 0 12 24 19 28 9 2 -5 16 -9 30 -10z m885 -6 c-18 -2 -48
-2 -65 0 -18 2 -4 4 32 4 36 0 50 -2 33 -4z"/>
<path d="M12098 1703 c12 -2 32 -2 45 0 12 2 2 4 -23 4 -25 0 -35 -2 -22 -4z"/>
<path d="M12360 1691 c-26 -4 8 -7 83 -7 70 -1 129 2 131 5 5 8 -156 9 -214 2z"/>
<path d="M12168 1683 c7 -3 16 -2 19 1 4 3 -2 6 -13 5 -11 0 -14 -3 -6 -6z"/>
<path d="M12240 1655 c78 -10 160 -8 160 4 0 5 -53 8 -117 7 l-118 -1 75 -10z"/>
<path d="M12498 1653 c12 -2 32 -2 45 0 12 2 2 4 -23 4 -25 0 -35 -2 -22 -4z"/>
<path d="M12738 1513 c12 -2 32 -2 45 0 12 2 2 4 -23 4 -25 0 -35 -2 -22 -4z"/>
<path d="M12560 1410 c0 -5 18 -10 40 -10 22 0 40 5 40 10 0 6 -18 10 -40 10
-22 0 -40 -4 -40 -10z"/>
<path d="M12650 39 c-63 -10 -135 -21 -159 -24 -89 -10 -50 -15 127 -15 l182
0 0 30 c0 35 7 35 -150 9z"/>
</g>
</svg>
