<?xml version="1.0" standalone="no"?>
<!DOCTYPE svg PUBLIC "-//W3C//DTD SVG 20010904//EN"
 "http://www.w3.org/TR/2001/REC-SVG-20010904/DTD/svg10.dtd">
<svg version="1.0" xmlns="http://www.w3.org/2000/svg"
 width="2880.000000pt" height="1800.000000pt" viewBox="0 0 2880.000000 1800.000000"
 preserveAspectRatio="xMidYMid meet">

<g transform="translate(0.000000,1800.000000) scale(0.100000,-0.100000)"
fill="#000000" stroke="none">
<path d="M0 17080 l0 -920 40 0 c33 0 40 -3 40 -20 0 -17 7 -20 40 -20 33 0
40 3 40 20 0 20 7 20 280 20 l280 0 0 40 0 40 40 0 c33 0 40 -3 40 -20 0 -17
7 -20 40 -20 33 0 40 3 40 20 0 19 7 20 120 20 113 0 120 -1 120 -20 0 -18 7
-20 80 -20 73 0 80 2 80 20 0 17 7 20 40 20 33 0 40 -3 40 -20 0 -17 7 -20 40
-20 33 0 40 3 40 20 0 17 7 20 40 20 33 0 40 -3 40 -20 0 -17 7 -20 40 -20 33
0 40 3 40 20 0 19 7 20 120 20 l120 0 0 40 0 40 240 0 c233 0 240 -1 240 -20
0 -17 7 -20 40 -20 33 0 40 3 40 20 0 19 7 20 120 20 113 0 120 -1 120 -20 0
-17 7 -20 40 -20 33 0 40 3 40 20 0 19 7 20 120 20 l120 0 0 40 0 40 40 0 40
0 0 -40 0 -40 40 0 c33 0 40 3 40 20 0 18 7 20 80 20 73 0 80 2 80 20 0 18 7
20 80 20 73 0 80 -2 80 -20 0 -18 7 -20 80 -20 73 0 80 2 80 20 0 20 7 20 440
20 l440 0 0 40 0 40 160 0 c153 0 160 -1 160 -20 0 -18 7 -20 80 -20 73 0 80
2 80 20 0 17 7 20 40 20 33 0 40 -3 40 -20 0 -19 7 -20 120 -20 113 0 120 1
120 20 0 19 7 20 160 20 153 0 160 -1 160 -20 0 -17 7 -20 40 -20 33 0 40 3
40 20 0 17 7 20 40 20 33 0 40 -3 40 -20 0 -17 7 -20 40 -20 33 0 40 3 40 20
0 19 7 20 200 20 l200 0 0 40 0 40 40 0 c33 0 40 -3 40 -20 0 -17 7 -20 40
-20 33 0 40 3 40 20 0 18 7 20 80 20 73 0 80 -2 80 -20 0 -18 7 -20 80 -20 73
0 80 -2 80 -20 0 -19 7 -20 240 -20 l240 0 0 40 0 40 40 0 40 0 0 -40 0 -40
80 0 80 0 0 40 0 40 40 0 c33 0 40 -3 40 -20 0 -17 7 -20 40 -20 33 0 40 3 40
20 0 18 7 20 80 20 73 0 80 -2 80 -20 0 -19 7 -20 120 -20 113 0 120 1 120 20
0 19 7 20 120 20 113 0 120 -1 120 -20 0 -19 7 -20 120 -20 113 0 120 1 120
20 0 17 7 20 40 20 33 0 40 -3 40 -20 0 -17 7 -20 40 -20 33 0 40 3 40 20 0
20 7 20 600 20 l600 0 0 40 0 40 40 0 c33 0 40 -3 40 -20 0 -17 7 -20 40 -20
33 0 40 3 40 20 0 19 7 20 240 20 233 0 240 -1 240 -20 0 -18 7 -20 80 -20 73
0 80 2 80 20 0 17 7 20 40 20 33 0 40 -3 40 -20 0 -17 7 -20 40 -20 33 0 40 3
40 20 0 20 7 20 280 20 273 0 280 0 280 -20 0 -17 7 -20 40 -20 33 0 40 3 40
20 0 17 7 20 40 20 33 0 40 -3 40 -20 0 -18 7 -20 80 -20 73 0 80 2 80 20 0
18 7 20 80 20 73 0 80 -2 80 -20 0 -17 7 -20 40 -20 33 0 40 3 40 20 0 20 7
20 360 20 353 0 360 0 360 20 0 18 7 20 80 20 73 0 80 2 80 20 0 17 7 20 40
20 l40 0 0 -40 0 -40 40 0 40 0 0 40 0 40 240 0 c233 0 240 -1 240 -20 0 -18
7 -20 80 -20 73 0 80 2 80 20 0 19 7 20 120 20 113 0 120 -1 120 -20 0 -17 7
-20 40 -20 33 0 40 3 40 20 0 17 7 20 40 20 33 0 40 -3 40 -20 0 -17 7 -20 40
-20 33 0 40 3 40 20 0 19 7 20 120 20 113 0 120 -1 120 -20 0 -17 7 -20 40
-20 33 0 40 3 40 20 0 19 7 20 120 20 113 0 120 -1 120 -20 0 -17 7 -20 40
-20 33 0 40 3 40 20 0 19 7 20 120 20 113 0 120 -1 120 -20 0 -17 7 -20 40
-20 33 0 40 3 40 20 0 19 7 20 160 20 l160 0 0 40 0 40 40 0 40 0 0 -40 0 -40
80 0 80 0 0 40 0 40 80 0 c73 0 80 -2 80 -20 0 -17 7 -20 40 -20 33 0 40 3 40
20 0 20 7 20 320 20 l320 0 0 40 0 40 80 0 c73 0 80 -2 80 -20 0 -17 7 -20 40
-20 33 0 40 3 40 20 0 19 7 20 120 20 113 0 120 -1 120 -20 0 -17 7 -20 40
-20 33 0 40 3 40 20 0 17 7 20 40 20 33 0 40 -3 40 -20 0 -17 7 -20 40 -20 33
0 40 3 40 20 0 20 7 20 440 20 l440 0 0 40 0 40 680 0 680 0 0 40 0 40 280 0
c273 0 280 0 280 20 0 17 7 20 40 20 33 0 40 -3 40 -20 0 -18 7 -20 80 -20
l80 0 0 40 0 40 480 0 480 0 0 40 0 40 160 0 c153 0 160 -1 160 -20 0 -18 7
-20 80 -20 73 0 80 2 80 20 0 20 7 20 360 20 353 0 360 0 360 20 0 19 7 20
120 20 113 0 120 1 120 20 0 18 7 20 80 20 73 0 80 -2 80 -20 0 -19 7 -20 120
-20 113 0 120 1 120 20 0 19 7 20 240 20 233 0 240 1 240 20 0 17 7 20 40 20
33 0 40 3 40 20 0 17 7 20 40 20 33 0 40 -3 40 -20 0 -18 7 -20 80 -20 73 0
80 2 80 20 0 19 7 20 160 20 153 0 160 1 160 20 0 19 7 20 160 20 153 0 160 1
160 20 0 19 7 20 120 20 113 0 120 1 120 20 0 19 7 20 200 20 193 0 200 1 200
20 0 19 7 20 120 20 l120 0 0 40 0 40 80 0 c73 0 80 -2 80 -20 0 -17 7 -20 40
-20 33 0 40 3 40 20 0 19 7 20 120 20 113 0 120 1 120 20 0 17 7 20 40 20 33
0 40 3 40 20 0 18 7 20 80 20 73 0 80 -2 80 -20 0 -17 7 -20 40 -20 33 0 40
-3 40 -20 0 -17 7 -20 40 -20 33 0 40 3 40 20 0 17 7 20 40 20 33 0 40 -3 40
-20 0 -17 7 -20 40 -20 l40 0 0 40 0 40 80 0 80 0 0 40 0 40 240 0 240 0 0 40
0 40 40 0 c33 0 40 -3 40 -20 0 -18 7 -20 80 -20 73 0 80 2 80 20 0 19 7 20
120 20 l120 0 0 40 0 40 120 0 c113 0 120 -1 120 -20 0 -17 7 -20 40 -20 l40
0 0 60 0 60 -13920 0 -13920 0 0 -920z"/>
<path d="M27920 17980 c0 -17 7 -20 40 -20 33 0 40 3 40 20 0 17 -7 20 -40 20
-33 0 -40 -3 -40 -20z"/>
<path d="M80 16060 c0 -23 10 -26 28 -8 18 18 15 28 -8 28 -13 0 -20 -7 -20
-20z"/>
<path d="M17765 11770 c-44 -5 -96 -7 -116 -4 -41 6 -239 -26 -348 -56 -41
-12 -80 -19 -88 -16 -8 3 -12 2 -9 -3 3 -5 -5 -11 -19 -13 -14 -3 -25 -2 -25
2 0 17 -46 22 -277 26 -217 4 -243 3 -243 -11 0 -13 -9 -15 -42 -13 -24 2 -42
8 -41 14 1 8 -14 8 -50 3 -29 -5 -59 -7 -67 -5 -8 3 -55 7 -105 11 -49 3 -146
10 -215 15 -403 29 -581 35 -1100 35 -447 -1 -589 -4 -730 -18 -210 -21 -333
-37 -340 -44 -3 -3 14 -3 38 1 255 39 858 61 1297 46 284 -9 739 -35 770 -44
5 -1 -52 -6 -127 -9 -75 -4 -144 -4 -152 -1 -9 3 -16 1 -16 -5 0 -7 -24 -11
-63 -11 -35 0 -112 -6 -173 -14 -60 -8 -172 -17 -249 -21 -77 -4 -156 -11
-175 -17 -19 -5 -64 -11 -100 -14 -93 -6 -131 -11 -167 -23 -18 -5 -63 -12
-100 -16 -103 -10 -278 -42 -373 -68 -30 -9 -88 -21 -127 -27 -40 -7 -73 -16
-73 -21 0 -5 -18 -9 -40 -9 -22 0 -40 -4 -40 -10 0 -5 -13 -10 -29 -10 -16 0
-42 -5 -58 -11 -15 -6 -53 -17 -83 -24 -30 -7 -95 -25 -145 -39 -49 -14 -97
-23 -107 -20 -9 2 -19 0 -23 -6 -3 -5 -18 -10 -33 -10 -15 0 -38 -7 -51 -16
-13 -9 -37 -20 -55 -24 -17 -4 -42 -10 -55 -15 -16 -5 -21 -4 -17 4 4 7 -1 11
-13 11 -23 0 -28 -16 -8 -23 6 -2 -6 -8 -28 -12 -22 -3 -57 -13 -78 -21 -20
-8 -45 -14 -55 -14 -9 0 -39 -12 -67 -25 -27 -14 -57 -25 -66 -25 -9 0 -34 -7
-54 -16 -30 -12 -35 -18 -24 -25 10 -7 7 -8 -11 -4 -27 6 -185 -38 -195 -55
-3 -6 -22 -10 -41 -10 -21 0 -33 -4 -29 -10 3 -5 -3 -10 -14 -10 -12 0 -21 -4
-21 -9 0 -5 -18 -12 -39 -16 -22 -4 -42 -12 -45 -20 -2 -7 -19 -16 -36 -20
-17 -4 -43 -13 -58 -21 -15 -8 -30 -14 -34 -14 -8 0 -80 -33 -204 -91 -33 -16
-68 -29 -77 -29 -17 0 -57 -19 -67 -31 -3 -3 -17 -9 -32 -12 -15 -4 -33 -14
-42 -22 -8 -8 -21 -15 -28 -15 -8 0 -18 -4 -23 -9 -6 -5 -38 -18 -73 -30 -34
-12 -70 -25 -80 -30 -9 -5 -37 -17 -62 -27 -25 -10 -62 -28 -82 -41 -21 -13
-46 -23 -56 -23 -11 0 -52 -18 -93 -41 -52 -28 -92 -43 -134 -48 -46 -5 -10
-8 150 -14 378 -13 1451 -68 1690 -87 66 -5 252 -17 412 -25 161 -9 300 -18
310 -22 33 -13 -58 -33 -266 -58 -113 -14 -282 -35 -376 -46 -93 -11 -278 -36
-410 -54 -132 -19 -341 -48 -465 -65 -402 -54 -753 -115 -1015 -175 -313 -72
-482 -115 -710 -182 -121 -35 -599 -192 -645 -211 -14 -6 -81 -32 -148 -57
-68 -25 -190 -72 -270 -104 -175 -70 -192 -75 -192 -62 0 5 9 13 20 16 13 4
20 15 20 30 0 26 50 66 125 99 22 10 63 29 90 42 56 26 201 81 255 95 19 6 44
14 55 19 11 5 47 18 80 28 87 27 235 72 270 82 17 4 68 19 115 33 47 14 112
33 145 41 33 9 74 21 90 26 17 4 49 11 72 15 24 4 45 11 49 16 3 5 18 9 33 9
16 0 46 7 67 16 21 9 60 17 86 18 26 0 42 3 36 5 -16 5 43 21 282 75 36 9 77
15 93 16 15 0 36 9 48 21 12 12 29 19 40 16 23 -6 114 17 134 33 8 6 23 9 34
5 11 -3 28 -2 38 3 13 8 3 12 -42 18 -33 4 -78 7 -100 5 -22 -1 -132 -5 -245
-7 -120 -3 -207 -9 -211 -15 -3 -5 -92 -14 -200 -19 -117 -6 -195 -13 -197
-20 -2 -6 -37 -10 -83 -10 -46 0 -79 -4 -79 -10 0 -6 -46 -10 -119 -10 -68 0
-121 -4 -123 -10 -1 -5 -59 -14 -128 -19 -148 -12 -230 -25 -258 -40 -11 -6
-55 -11 -96 -11 -61 0 -76 -3 -76 -15 0 -12 -13 -15 -57 -15 -91 0 -274 -21
-318 -36 -23 -8 -55 -14 -72 -14 -17 0 -33 -4 -35 -9 -1 -5 -53 -17 -115 -25
-61 -9 -131 -22 -155 -30 -24 -8 -65 -17 -93 -20 -76 -8 -267 -53 -274 -64 -3
-5 -26 -12 -51 -15 -54 -5 -230 -51 -258 -66 -12 -6 -35 -11 -53 -11 -17 0
-37 -6 -43 -14 -6 -7 -51 -21 -100 -30 -49 -9 -112 -26 -140 -38 -85 -34 -89
-35 -161 -52 -129 -31 -140 -34 -170 -44 -38 -14 -145 -44 -300 -86 -66 -18
-130 -38 -142 -44 -12 -7 -40 -12 -62 -12 -23 0 -41 -4 -41 -10 0 -5 -19 -14
-43 -21 -23 -6 -50 -15 -60 -20 -9 -5 -42 -19 -72 -30 -62 -23 -182 -84 -195
-100 -3 -3 -34 -13 -70 -23 -90 -25 -160 -64 -160 -90 0 -15 3 -17 11 -9 8 8
19 9 38 2 31 -12 145 -39 307 -73 178 -37 257 -78 294 -153 l18 -38 7 60 c4
33 11 78 15 100 9 39 -1 68 -14 46 -11 -17 -26 -13 -26 8 0 11 9 21 23 25 38
10 47 7 47 -16 l0 -21 23 21 24 22 27 -21 c25 -20 26 -23 12 -37 -14 -15 -17
-14 -30 3 -13 18 -15 17 -31 -20 -18 -42 -65 -224 -65 -250 0 -8 -4 -15 -10
-15 -5 0 -10 7 -10 16 0 8 -7 22 -15 30 -19 19 -19 14 1 -36 l17 -41 26 38
c64 96 123 161 158 178 33 16 55 17 198 11 269 -12 855 -52 862 -60 4 -3 -24
-4 -63 -1 -166 14 -766 45 -856 45 -144 0 -183 -26 -292 -192 -17 -26 -34 -48
-37 -48 -3 0 -21 33 -39 73 -95 210 -102 218 -217 242 -94 21 -340 80 -368 90
-11 3 -6 -1 10 -11 17 -9 49 -35 72 -58 26 -25 69 -51 110 -68 38 -15 62 -27
55 -27 -7 -1 -21 3 -31 9 -46 24 -125 28 -167 8 -28 -13 -98 22 -118 60 l-14
27 -11 -28 c-22 -58 -9 -107 29 -107 21 0 100 -39 80 -40 -9 0 -16 -9 -17 -20
-1 -12 3 -18 9 -14 6 4 9 1 6 -6 -2 -7 -19 -18 -38 -24 -24 -8 -34 -17 -32
-29 2 -9 -2 -26 -8 -38 -8 -14 -8 -24 -1 -33 8 -9 6 -22 -5 -46 -21 -40 -31
-120 -16 -120 19 0 18 -44 -1 -63 -18 -18 -18 -19 5 -34 12 -9 28 -21 33 -27
6 -6 19 -16 29 -21 11 -6 23 -21 27 -32 8 -21 7 -22 -80 -16 -100 7 -113 0
-131 -68 -16 -57 6 -123 64 -196 32 -42 45 -67 44 -86 -1 -15 -3 -27 -5 -27
-21 0 -117 47 -128 63 -8 12 -15 17 -15 11 0 -5 5 -15 12 -22 9 -9 9 -12 -3
-12 -18 -1 28 -40 47 -40 8 0 14 -4 14 -10 0 -6 -10 -5 -25 2 -14 6 -27 9 -29
7 -3 -2 13 -92 34 -199 21 -107 41 -217 44 -245 4 -27 9 -58 12 -67 5 -16 3
-16 -30 -3 -19 8 -46 15 -59 15 -30 0 -77 -42 -77 -69 0 -43 93 -93 236 -127
40 -10 72 -19 71 -21 -2 -1 -80 -14 -173 -27 -104 -15 -269 -29 -429 -36 -143
-6 -332 -15 -420 -21 -88 -5 -232 -9 -320 -9 -158 0 -789 -25 -895 -35 -977
-93 -1136 -117 -1215 -180 -17 -14 -20 -27 -19 -103 2 -114 14 -214 28 -227
29 -27 172 -92 301 -137 201 -69 758 -193 1028 -229 82 -10 159 -21 170 -24
12 -2 49 -6 82 -9 33 -2 71 -7 85 -10 14 -3 86 -10 160 -16 257 -21 515 -45
854 -80 110 -11 258 -23 330 -26 72 -3 187 -17 256 -30 177 -33 473 -57 1040
-84 124 -5 362 -17 530 -25 168 -8 431 -17 585 -20 154 -3 332 -10 395 -16
526 -44 1054 -57 1615 -39 214 6 423 16 465 22 41 5 311 13 600 18 1118 19
1568 35 1840 65 152 17 226 32 245 51 33 33 256 134 317 143 123 20 937 88
1378 116 47 3 173 12 280 20 107 8 294 22 415 30 121 9 342 25 490 35 149 11
396 29 550 40 154 11 366 26 470 34 105 9 260 20 345 26 85 6 207 15 270 20
63 6 243 19 400 30 157 11 362 25 455 32 122 9 491 13 1305 13 1233 0 1165 -3
1275 53 67 34 177 125 226 186 80 98 171 298 255 559 25 78 32 90 61 104 45
21 77 93 113 251 24 104 47 271 49 342 3 156 1 346 -4 385 -10 76 -53 275 -71
323 -9 23 -21 42 -27 42 -6 0 -2 7 9 16 18 14 15 15 -33 11 -42 -3 -52 -1 -56
13 -4 15 -1 16 24 7 21 -8 32 -8 40 0 9 9 7 11 -10 6 -15 -4 -21 -1 -21 12 0
13 -6 16 -24 13 -20 -4 -27 1 -36 23 -17 40 7 99 39 99 6 0 -10 41 -36 92 -76
145 -208 268 -344 319 -70 26 -217 36 -301 20 -35 -7 -98 -28 -140 -46 -43
-18 -78 -32 -78 -29 0 2 25 18 55 35 52 29 93 64 45 39 -18 -10 -21 -9 -18 2
3 7 15 14 27 16 19 3 20 6 9 19 -11 14 -10 16 17 10 17 -3 25 -4 18 -1 -18 8
67 89 103 99 54 14 136 17 143 6 4 -6 27 -12 51 -14 52 -4 96 -23 125 -53 11
-11 28 -24 38 -27 11 -4 21 -16 24 -27 3 -11 12 -20 19 -20 8 0 17 -6 20 -14
3 -8 14 -16 26 -19 15 -4 18 -11 13 -26 -6 -19 -2 -21 45 -21 28 0 64 7 80 15
16 8 35 12 43 9 9 -3 22 8 35 30 12 20 26 36 32 36 5 0 10 9 10 20 0 11 6 20
14 20 8 0 16 16 20 40 3 22 10 40 15 40 5 0 11 9 14 21 3 12 9 19 14 16 5 -3
8 7 7 21 -1 31 23 93 40 105 7 5 2 15 -16 32 -16 13 -28 29 -28 35 0 5 -6 10
-14 10 -9 0 -17 15 -21 39 -3 21 -14 46 -23 55 -76 70 -97 85 -103 75 -4 -8
-18 0 -38 22 -24 27 -33 31 -40 20 -7 -11 -16 -10 -53 8 -33 15 -63 21 -116
21 -41 0 -72 4 -72 10 0 6 -18 10 -39 10 -22 0 -41 5 -43 11 -5 16 -329 24
-420 12 -59 -8 -68 -8 -68 6 -1 11 -5 8 -14 -8 -10 -18 -15 -20 -20 -10 -3 8
-3 4 0 -8 3 -13 1 -23 -5 -23 -7 0 -11 -29 -11 -77 0 -43 -4 -84 -8 -91 -5 -7
-7 36 -4 96 4 102 -4 157 -35 230 -6 16 593 10 715 -8 46 -7 85 -10 87 -8 7 6
-331 72 -530 103 -256 41 -274 45 -269 58 6 17 178 53 267 57 19 0 4 19 -20
25 -35 8 -55 24 -46 38 3 6 1 7 -6 3 -6 -4 -8 -12 -5 -18 5 -8 -3 -9 -27 -4
-99 22 -92 22 -402 17 -99 -1 -181 0 -184 3 -3 2 12 14 34 24 100 52 181 166
191 272 2 28 7 50 10 50 6 0 263 -193 385 -289 43 -34 75 -66 73 -70 -3 -5 4
-17 17 -27 l22 -19 -19 23 c-23 27 -8 29 25 3 31 -24 113 -65 105 -53 -3 5
-56 46 -118 91 -62 44 -178 130 -258 191 -159 122 -426 310 -505 355 -27 16
-78 55 -113 88 -34 33 -65 57 -69 54 -3 -4 11 -23 33 -42 l39 -35 -85 46 c-47
25 -149 77 -228 115 -126 61 -195 92 -412 184 -51 21 -192 73 -300 109 -316
106 -731 195 -1085 232 -224 23 -647 15 -820 -15 -286 -51 -501 -127 -750
-266 -127 -71 -239 -144 -232 -151 2 -3 33 12 68 32 35 21 89 51 119 67 30 17
64 37 74 46 11 9 16 11 12 4 -5 -9 0 -10 24 -2 16 6 27 15 24 21 -3 5 0 8 7 7
18 -4 89 31 89 43 0 5 5 6 10 3 6 -4 22 0 35 9 13 9 31 16 40 16 9 0 14 4 11
9 -5 8 20 17 71 27 6 1 21 9 33 17 12 8 31 12 42 9 16 -4 19 -2 13 8 -5 8 -4
11 3 6 6 -4 19 -2 29 3 22 11 184 45 313 66 440 69 1001 26 1555 -120 541
-142 1154 -411 1589 -698 l119 -79 -6 -57 c-6 -70 -44 -148 -97 -201 -43 -43
-85 -67 -186 -105 -64 -24 -68 -25 -88 -8 -20 17 -20 17 -7 0 8 -9 12 -20 9
-22 -2 -3 -74 -23 -159 -44 -159 -41 -390 -82 -563 -101 -105 -11 -136 -20
-71 -20 22 0 35 -4 30 -8 -10 -8 -90 -34 -150 -49 -27 -6 -25 -8 25 -14 30 -3
91 -11 135 -17 44 -6 137 -18 208 -26 70 -9 136 -20 146 -26 59 -31 179 -22
879 68 47 7 65 5 73 -4 20 -24 39 -107 37 -163 -1 -43 -2 -47 -5 -18 -3 21 -9
35 -14 31 -6 -3 -7 5 -4 23 l6 28 -14 -25 -15 -24 -5 24 c-3 19 -5 20 -6 5 -1
-18 -7 -20 -51 -17 -28 2 -67 -2 -88 -10 -20 -8 -62 -13 -92 -12 -37 1 -49 -1
-35 -6 16 -7 13 -9 -15 -9 -102 -3 -385 -42 -407 -56 -28 -19 -25 -32 4 -16
19 9 321 41 396 41 l36 0 -13 -37 c-22 -65 -38 -70 -265 -87 -112 -9 -208 -13
-213 -10 -5 3 -4 12 3 20 6 8 9 18 5 22 -4 4 -12 -1 -17 -11 -6 -9 -15 -17
-21 -17 -7 0 -6 6 2 15 16 19 6 32 -13 17 -16 -14 -358 -27 -584 -24 -109 2
-163 0 -163 -7 0 -7 -43 -11 -120 -11 -73 0 -120 -4 -120 -10 0 -5 -18 -10
-40 -10 -22 0 -40 -4 -40 -10 0 -6 -33 -10 -80 -10 -47 0 -80 -4 -80 -10 0 -5
-18 -10 -40 -10 -22 0 -40 5 -40 10 0 6 -18 10 -40 10 -22 0 -40 -4 -40 -10 0
-5 -18 -10 -40 -10 -33 0 -40 3 -40 20 0 17 -7 20 -50 20 -47 0 -50 -2 -50
-25 0 -14 -4 -25 -9 -25 -5 0 -7 9 -4 20 3 11 1 20 -5 20 -16 0 -19 -22 -7
-70 11 -40 12 -42 19 -20 l8 25 8 -25 c5 -17 8 -19 9 -7 1 12 10 17 29 18 15
0 101 4 192 9 91 5 255 12 365 15 110 4 218 10 240 14 61 12 662 5 718 -8 27
-6 52 -9 56 -7 4 3 25 -1 47 -9 66 -23 47 -25 -486 -50 -576 -28 -1118 -60
-1168 -70 -30 -5 -36 12 -56 151 -14 94 -71 335 -91 385 -5 15 13 17 167 23
285 11 542 28 563 37 12 5 -15 7 -70 4 -197 -12 -514 -25 -591 -25 l-82 0 -4
34 -4 34 101 6 c55 3 210 11 345 16 422 18 956 68 1140 106 113 23 322 74 345
84 11 4 36 14 55 20 80 29 148 68 193 111 26 25 47 51 47 58 0 7 -4 9 -10 6
-6 -4 -10 6 -10 22 0 18 -16 50 -45 88 -25 33 -49 74 -55 90 -6 17 -27 41 -48
55 -244 160 -567 321 -877 437 -388 145 -739 231 -1205 295 -131 18 -673 18
-800 0 -318 -45 -586 -141 -860 -307 -120 -73 -151 -97 -146 -111 6 -14 -78
-96 -121 -118 -18 -9 -46 -23 -63 -31 -16 -9 -35 -15 -42 -13 -7 1 -24 -4 -38
-12 -47 -25 -300 -237 -440 -366 -117 -108 -164 -149 -223 -193 -32 -23 -79
-71 -104 -107 -40 -55 -51 -64 -77 -63 -79 1 -76 6 81 165 185 189 430 411
637 580 188 153 206 168 186 158 -38 -19 -109 -73 -225 -169 -297 -248 -411
-350 -590 -528 l-190 -189 -105 1 c-149 1 -536 21 -595 31 -34 6 -4 7 95 5 80
-2 136 0 125 4 -15 6 -9 9 24 14 24 3 47 11 51 17 4 7 16 9 29 5 12 -3 21 -2
21 4 0 5 17 13 38 17 44 7 265 99 304 126 14 10 29 18 32 18 6 0 65 39 76 50
7 7 39 27 83 50 20 11 37 24 37 29 0 4 10 12 23 18 19 9 136 99 177 136 12 12
158 125 231 180 44 34 79 57 85 57 4 0 25 16 48 36 50 43 56 48 115 92 25 19
48 39 49 44 2 4 10 8 18 8 8 0 14 4 14 9 0 5 9 12 19 16 11 3 37 18 58 32 21
14 66 41 101 58 34 17 59 35 55 38 -3 4 -1 7 6 7 7 0 25 8 39 19 15 10 39 21
54 25 16 3 27 11 25 17 -1 6 7 13 17 15 10 1 22 6 25 11 12 16 69 43 93 44 12
0 17 3 10 6 -13 5 140 72 166 73 6 0 12 4 12 10 0 6 10 6 27 -1 15 -6 24 -7
21 -3 -21 20 117 60 357 104 334 60 679 63 1020 10 72 -12 166 -26 210 -31 44
-6 112 -17 150 -25 39 -8 81 -17 95 -19 60 -11 80 -17 76 -23 -5 -8 60 -9 68
-1 7 7 -296 83 -434 108 -137 25 -284 49 -390 61 -114 14 -655 21 -755 10z
m-137 -17 c-10 -2 -26 -2 -35 0 -10 3 -2 5 17 5 19 0 27 -2 18 -5z m-83 -13
c-16 -4 -39 -8 -50 -8 -16 0 -15 2 5 8 14 4 36 8 50 8 22 0 22 -1 -5 -8z
m-1255 -61 c49 -7 46 -8 -24 -4 -43 3 -103 5 -133 5 -29 0 -53 4 -53 8 0 10
125 4 210 -9z m587 -15 c-3 -3 -12 -4 -19 -1 -8 3 -5 6 6 6 11 1 17 -2 13 -5z
m80 -10 c-3 -3 -12 -4 -19 -1 -8 3 -5 6 6 6 11 1 17 -2 13 -5z m148 -4 c-11
-5 -27 -9 -35 -9 -9 0 -8 4 5 9 11 5 27 9 35 9 9 0 8 -4 -5 -9z m-3078 -256
c-3 -3 -12 -4 -19 -1 -8 3 -5 6 6 6 11 1 17 -2 13 -5z m341 -42 c8 -24 26 -52
43 -64 16 -12 29 -28 29 -35 0 -7 -44 -79 -98 -160 -91 -137 -187 -292 -290
-469 l-41 -72 -768 -5 c-422 -3 -869 -11 -991 -17 -123 -6 -226 -9 -229 -6
-13 13 37 70 82 94 28 15 52 29 55 33 5 5 68 41 179 101 102 56 404 204 506
248 55 24 120 52 144 62 24 11 67 28 95 39 28 11 60 24 71 29 111 50 363 132
574 186 124 32 503 83 595 80 25 -1 31 -7 44 -44z m931 -18 l54 -7 -33 -16
c-49 -24 -70 -58 -96 -162 -21 -82 -23 -87 -19 -39 8 77 1 90 -46 90 -31 0
-41 4 -48 22 -7 19 -9 17 -25 -22 -9 -24 -26 -54 -37 -68 -10 -14 -19 -31 -19
-39 0 -23 -51 -136 -57 -129 -6 6 69 190 79 194 4 2 8 11 8 19 0 54 123 179
165 169 11 -3 44 -8 74 -12z m3178 -76 c-3 -8 -6 -5 -6 6 -1 11 2 17 5 13 3
-3 4 -12 1 -19z m-2727 -20 c0 7 8 8 28 2 15 -5 64 -16 110 -26 45 -9 82 -21
82 -25 0 -12 -17 -11 -40 1 -10 6 -45 14 -77 19 -32 5 -69 12 -83 16 -23 6
-24 5 -7 -8 13 -11 15 -16 5 -19 -10 -4 -9 -9 5 -22 9 -10 17 -29 16 -44 -1
-23 -2 -24 -8 -7 -4 11 -18 43 -31 70 -32 66 -34 74 -16 51 9 -11 16 -15 16
-8z m-638 -63 c-2 -14 -9 -25 -14 -25 -6 0 -7 7 -4 16 3 9 6 22 6 30 0 9 4 13
9 10 4 -3 6 -17 3 -31z m987 -21 c3 -3 -11 -3 -31 1 -26 5 -38 4 -38 -4 0 -6
-4 -11 -10 -11 -5 0 -6 8 -3 17 5 12 2 15 -10 10 -9 -3 -19 -2 -22 3 -9 15 19
17 64 3 24 -7 47 -16 50 -19z m-132 -10 c-6 -6 -47 9 -47 17 0 5 11 3 25 -3
14 -6 24 -13 22 -14z m100 -10 c-3 -3 -12 -4 -19 -1 -8 3 -5 6 6 6 11 1 17 -2
13 -5z m-102 -30 c-16 -8 -33 -21 -37 -27 -6 -9 -8 -9 -8 0 0 15 39 43 60 43
8 0 2 -7 -15 -16z m75 12 c0 -2 -16 -14 -35 -26 -20 -12 -41 -27 -48 -34 -6
-6 -34 -27 -62 -46 -27 -19 -53 -39 -56 -44 -6 -8 -49 106 -49 128 0 20 20
-19 31 -61 6 -24 13 -43 15 -43 8 0 89 54 114 76 31 27 90 60 90 50z m-1009
-92 c-5 -16 -10 -21 -10 -12 -1 18 10 51 15 45 2 -1 -1 -16 -5 -33z m126 -6
c-3 -8 -6 -5 -6 6 -1 11 2 17 5 13 3 -3 4 -12 1 -19z m43 0 c0 -19 -2 -20 -10
-8 -13 19 -13 30 0 30 6 0 10 -10 10 -22z m-2395 2 c3 -6 -1 -7 -9 -4 -18 7
-21 14 -7 14 6 0 13 -4 16 -10z m2332 -52 c-3 -8 -6 -5 -6 6 -1 11 2 17 5 13
3 -3 4 -12 1 -19z m36 -145 l-6 -160 -131 -12 c-72 -6 -148 -14 -168 -17 l-37
-6 25 63 c14 35 31 78 38 94 7 17 19 46 26 65 7 19 17 39 22 44 4 6 8 19 9 30
0 12 3 15 6 8 5 -13 -2 -35 -37 -117 -25 -58 -60 -154 -60 -165 0 -5 14 -5 33
1 17 5 77 12 132 15 55 3 105 6 111 6 7 1 14 34 17 82 11 150 20 236 23 233 2
-2 1 -75 -3 -164z m-153 147 c0 -5 -4 -10 -10 -10 -5 0 -10 5 -10 10 0 6 5 10
10 10 6 0 10 -4 10 -10z m3158 -89 c3 -81 2 -84 -15 -69 -10 8 -43 28 -73 44
-30 16 -56 32 -58 37 -2 4 -10 7 -18 7 -8 0 -14 3 -14 8 0 4 -3 16 -6 27 -5
18 0 20 53 23 32 2 60 6 63 8 2 3 18 4 35 2 l30 -3 3 -84z m1199 83 c-7 -7
-169 -6 -176 1 -2 3 38 5 89 5 51 0 90 -3 87 -6z m-2643 -40 l47 -26 -7 -92
c-3 -50 -7 -96 -9 -102 -2 -6 -25 -14 -52 -18 -66 -8 -146 -50 -202 -104 -42
-41 -101 -70 -119 -58 -4 2 -4 48 0 102 l7 98 68 64 c78 72 193 161 209 162 6
0 32 -12 58 -26z m3391 -30 c9 -15 12 -23 6 -20 -11 7 -35 46 -28 46 3 0 12
-12 22 -26z m-183 -4 c91 -21 103 -28 130 -80 7 -14 24 -43 37 -65 43 -70 111
-204 111 -219 0 -8 4 -16 8 -18 8 -3 72 -116 72 -127 0 -12 -325 1 -332 12 -4
7 -12 37 -18 67 -19 98 -90 333 -102 338 -4 2 -8 16 -8 31 0 15 -7 36 -15 47
-31 41 -15 43 117 14z m-4801 -125 c-7 -70 -9 -74 -10 -28 0 28 -4 60 -7 70
-5 15 -4 15 5 3 8 -12 11 -5 12 30 1 25 3 36 5 25 2 -11 0 -56 -5 -100z m-186
17 c-3 -3 -5 1 -6 9 0 8 -7 1 -14 -16 l-14 -30 -1 28 c0 15 5 27 10 27 6 0 10
8 11 18 0 12 3 10 10 -7 5 -13 7 -26 4 -29z m5218 28 c3 -11 1 -18 -4 -14 -5
3 -9 12 -9 20 0 20 7 17 13 -6z m-3828 -187 c-12 -210 -22 -242 -18 -60 1 93
6 173 9 178 14 24 16 -1 9 -118z m-1391 102 c3 -8 1 -15 -4 -15 -6 0 -10 7
-10 15 0 8 2 15 4 15 2 0 6 -7 10 -15z m166 -15 c0 -6 -28 -9 -67 -8 l-68 1
60 7 c33 4 63 7 68 8 4 1 7 -2 7 -8z m-17 -27 c-13 -2 -33 -2 -45 0 -13 2 -3
4 22 4 25 0 35 -2 23 -4z m5173 -60 c-5 -5 -36 50 -36 64 0 4 9 -7 21 -26 11
-18 18 -35 15 -38z m-1369 25 c-3 -8 -6 -5 -6 6 -1 11 2 17 5 13 3 -3 4 -12 1
-19z m-1874 5 c-7 -2 -19 -2 -25 0 -7 3 -2 5 12 5 14 0 19 -2 13 -5z m175 -24
c62 -12 111 -23 108 -26 -3 -4 -154 21 -241 40 l-20 5 20 1 c11 1 71 -8 133
-20z m3090 -44 c-3 -3 -9 2 -12 12 -6 14 -5 15 5 6 7 -7 10 -15 7 -18z m-2941
9 c-3 -3 -12 -4 -19 -1 -8 3 -5 6 6 6 11 1 17 -2 13 -5z m1573 -14 c0 -5 -4
-10 -10 -10 -5 0 -10 5 -10 10 0 6 5 10 10 10 6 0 10 -4 10 -10z m-2704 -70
c2 -54 9 -49 -91 -65 l-40 -6 60 60 c33 34 62 61 65 61 3 0 6 -22 6 -50z
m2703 13 c0 -31 -2 -34 -9 -18 -12 28 -12 55 0 55 6 0 10 -17 9 -37z m288 5
c-3 -7 -5 -2 -5 12 0 14 2 19 5 13 2 -7 2 -19 0 -25z m22 -52 c-9 -8 -10 -7
-5 7 3 10 7 33 8 50 1 28 2 28 5 -7 3 -22 -1 -43 -8 -50z m1099 39 c-3 -3 -9
2 -12 12 -6 14 -5 15 5 6 7 -7 10 -15 7 -18z m-2750 -1 c12 -4 31 -40 47 -94
7 -22 6 -23 -9 -11 -9 7 -34 15 -56 16 -22 2 -54 10 -71 19 -18 9 -38 16 -46
16 -19 0 -16 47 5 59 15 9 95 6 130 -5z m2777 -50 c15 -37 19 -51 10 -43 -8 9
-35 79 -30 79 2 0 12 -16 20 -36z m-1425 0 c0 -14 11 -15 87 -9 48 4 101 12
118 16 45 13 64 9 30 -6 -16 -8 -50 -14 -75 -15 -25 0 -64 -5 -87 -10 -48 -11
-93 1 -93 25 0 8 5 15 10 15 6 0 10 -7 10 -16z m260 -23 c0 -5 -9 -13 -21 -16
-25 -8 -129 -8 -137 0 -3 3 24 5 61 5 36 0 69 5 72 10 8 13 25 13 25 1z m50
-16 c0 -14 -4 -25 -10 -25 -5 0 -10 11 -10 25 0 14 5 25 10 25 6 0 10 -11 10
-25z m-33 -21 c-3 -3 -12 -4 -19 -1 -8 3 -5 6 6 6 11 1 17 -2 13 -5z m1193
-29 c0 -5 -5 -3 -10 5 -5 8 -10 20 -10 25 0 6 5 3 10 -5 5 -8 10 -19 10 -25z
m407 -41 c-3 -3 -12 -4 -19 -1 -8 3 -5 6 6 6 11 1 17 -2 13 -5z m-3153 -39 c4
-12 -6 -15 -62 -15 -53 1 -63 3 -48 11 10 6 33 9 52 6 19 -3 34 -2 34 4 0 15
17 10 24 -6z m-621 -38 c-3 -5 75 -6 173 -1 279 12 474 11 474 -2 0 -21 -46
-79 -73 -92 -33 -16 -35 -30 -4 -26 12 2 175 8 362 14 187 6 422 13 522 16
l183 6 10 -28 c22 -57 114 -50 -1010 -79 -589 -15 -1024 -17 -1195 -6 -95 7
-99 7 -70 21 44 20 360 31 399 13 37 -16 35 -17 29 10 -4 20 -3 21 10 5 13
-16 35 -18 203 -18 209 0 342 11 452 36 70 17 104 42 40 30 -25 -4 -668 -10
-724 -7 -10 1 -64 73 -64 85 0 2 49 5 110 8 62 2 114 8 121 15 12 12 60 12 52
0z m-1590 -17 c103 -5 192 -12 197 -15 6 -4 0 -25 -14 -53 -13 -26 -29 -71
-37 -100 -9 -36 -17 -51 -26 -48 -15 6 -50 11 -198 26 -127 13 -340 52 -367
66 -19 11 11 42 65 67 84 38 92 43 90 56 -4 13 38 13 290 1z m1287 -4 c0 -8
16 -35 35 -60 37 -49 45 -67 20 -46 -20 17 -199 14 -500 -6 -264 -18 -617 -29
-639 -21 -15 6 -14 11 5 49 40 79 15 74 346 77 261 3 704 15 726 19 4 1 7 -4
7 -12z m-1950 -27 c-53 -46 -110 -84 -177 -118 -93 -47 -89 -36 5 14 46 24
109 65 140 89 65 51 84 60 32 15z m1016 -136 c7 -2 24 -20 38 -38 l25 -33 -47
4 c-26 3 -48 8 -49 12 -2 4 -34 7 -73 6 l-70 -1 0 35 0 35 81 -8 c45 -3 87 -9
95 -12z m2923 -85 c16 -51 36 -140 45 -198 9 -58 23 -140 32 -183 8 -44 14
-80 12 -81 -2 -2 -84 -8 -183 -15 -200 -13 -539 -37 -715 -51 -63 -5 -178 -14
-255 -20 -176 -13 -687 -56 -820 -69 -55 -6 -131 -13 -170 -16 -38 -3 -108
-10 -155 -15 -47 -5 -155 -14 -240 -20 -85 -6 -211 -17 -280 -25 -69 -8 -153
-17 -187 -20 l-63 -6 0 29 c0 28 2 29 53 31 55 2 201 22 302 42 33 6 70 11 83
11 25 0 26 2 11 31 -10 18 -7 17 13 -5 33 -35 82 -48 203 -55 79 -4 103 -3
112 8 19 23 61 208 68 299 10 135 -7 221 -60 305 l-19 30 20 -17 c22 -19 44
-23 60 -10 10 10 133 29 233 38 36 3 67 7 70 9 10 5 253 15 816 31 496 15 908
28 962 32 19 2 26 -9 52 -90z m-4202 66 c-3 -3 -12 -4 -19 -1 -8 3 -5 6 6 6
11 1 17 -2 13 -5z m-44 -11 c-7 -2 -19 -2 -25 0 -7 3 -2 5 12 5 14 0 19 -2 13
-5z m2295 -20 c-60 -2 -156 -2 -215 0 -60 1 -11 3 107 3 118 0 167 -2 108 -3z
m-1174 -73 c5 -17 4 -20 -2 -10 -5 8 -13 26 -16 40 -5 17 -4 20 2 10 5 -8 13
-26 16 -40z m-3359 -40 c-38 -4 -77 -10 -85 -14 -8 -3 -49 -10 -90 -16 -41 -5
-102 -14 -135 -19 -33 -5 -96 -15 -140 -21 -44 -6 -109 -16 -145 -21 -106 -16
-168 -20 -145 -10 11 5 37 10 57 10 20 1 38 5 40 10 2 4 28 11 58 15 30 4 78
11 105 16 52 10 233 35 319 45 28 3 51 7 52 8 2 1 42 3 91 3 l88 2 -70 -8z
m8745 -10 c0 -5 -2 -10 -4 -10 -3 0 -8 5 -11 10 -3 6 -1 10 4 10 6 0 11 -4 11
-10z m-5154 -19 c107 0 170 -3 178 -11 21 -16 95 -168 111 -225 7 -27 20 -68
28 -90 21 -58 30 -104 17 -85 -5 8 -10 22 -10 31 0 9 -7 22 -15 29 -8 7 -15 8
-15 3 0 -5 -42 -10 -92 -12 -91 -2 -214 -16 -252 -27 -10 -4 -22 0 -27 7 -6
10 -9 8 -9 -9 0 -43 -17 -13 -24 43 -3 30 -20 121 -36 202 -28 138 -35 185
-23 155 4 -9 45 -12 169 -11z m-198 -23 c31 -101 81 -402 69 -414 -2 -3 -7 9
-10 25 -6 28 -9 29 -34 21 -15 -5 -89 -14 -163 -20 -168 -14 -198 -19 -179
-32 10 -6 6 -7 -11 -2 -14 5 -61 6 -105 4 -44 -2 -98 -4 -120 -4 -22 0 -43 -3
-46 -8 -3 -5 -17 -5 -31 1 -14 5 -48 6 -79 1 l-54 -8 70 -2 c55 -2 64 -4 40
-10 -16 -4 -49 -8 -73 -9 -24 0 -52 -6 -63 -11 -13 -7 -19 -7 -19 0 0 5 -4 10
-10 10 -5 0 -10 -6 -10 -13 0 -8 -6 -14 -13 -14 -24 0 -157 -68 -157 -80 0 -7
-6 -13 -12 -13 -7 -1 -26 -19 -43 -40 -16 -21 -37 -39 -45 -40 -11 0 -11 -3
-2 -12 16 -16 15 -45 0 -50 -9 -3 -4 -16 15 -41 32 -42 22 -50 -14 -11 -13 14
-64 60 -114 100 -119 99 -113 94 -123 94 -5 0 -15 7 -22 15 -7 9 -19 14 -27
11 -7 -3 -13 -2 -13 3 0 28 -146 55 -185 34 -12 -6 -58 -18 -103 -27 -46 -9
-91 -20 -101 -26 -10 -5 -21 -6 -25 -3 -21 22 -399 -6 -476 -35 -14 -5 -38
-12 -55 -16 -28 -6 -29 -5 -11 8 18 14 17 15 -8 22 -15 3 -46 3 -69 -1 -58 -9
-69 -9 -92 0 -18 8 -18 7 -6 -8 7 -9 9 -17 3 -17 -9 0 -137 72 -149 84 -9 9
171 90 266 120 47 15 150 38 229 52 132 22 153 24 255 13 138 -13 289 -45 340
-71 21 -10 44 -17 50 -14 7 2 4 5 -5 5 -10 1 -18 6 -18 11 0 6 -6 10 -14 10
-19 0 -32 20 -19 29 15 10 23 39 11 43 -36 12 61 147 127 178 93 43 293 84
505 104 96 10 182 19 190 21 62 19 444 53 640 58 52 2 98 4 102 5 3 1 11 -13
16 -30z m4505 -105 c-13 -2 -33 -2 -45 0 -13 2 -3 4 22 4 25 0 35 -2 23 -4z
m440 -40 c-13 -2 -35 -2 -50 0 -16 2 -5 4 22 4 28 0 40 -2 28 -4z m-5370 -290
c-13 -2 -33 -2 -45 0 -13 2 -3 4 22 4 25 0 35 -2 23 -4z m-3289 -39 c-10 -14
-45 -45 -79 -70 -58 -41 -95 -74 -82 -74 3 0 36 24 73 53 143 109 160 117 257
117 48 0 87 -3 87 -7 0 -5 -26 -26 -57 -48 -59 -42 -233 -179 -269 -211 -27
-26 -46 -37 -134 -83 -41 -21 -92 -51 -113 -65 -58 -40 -88 -53 -137 -61 -25
-4 -85 -22 -135 -40 -49 -18 -106 -38 -125 -44 -72 -22 -300 -61 -440 -76 -80
-8 -162 -17 -183 -20 -29 -4 -59 3 -127 32 -50 21 -90 41 -90 44 0 3 41 9 92
13 135 10 330 33 438 52 102 18 146 33 97 34 -39 0 -30 24 11 28 24 2 32 8 32
23 0 10 -4 19 -9 19 -5 0 -11 9 -14 19 -4 16 2 21 24 26 16 4 29 11 29 16 0
13 56 -18 92 -50 l27 -24 43 28 c65 43 117 95 111 111 -3 9 2 14 17 14 20 0
70 39 184 143 l30 27 -157 0 c-123 0 -157 -3 -157 -13 0 -7 -17 -21 -37 -31
-27 -13 -33 -14 -25 -3 7 7 9 17 5 20 -3 4 -1 7 5 7 7 0 12 5 12 10 0 15 -147
12 -285 -5 -65 -8 -129 -12 -142 -9 -28 7 -241 -12 -343 -31 -41 -8 -118 -19
-170 -24 -100 -11 -368 -59 -507 -92 -122 -28 -288 -83 -472 -156 l-163 -65
-21 21 -21 20 56 25 c84 37 392 151 478 176 285 84 748 166 1245 219 256 28
239 27 678 29 l387 2 -16 -26z m3429 -11 c-7 -2 -19 -2 -25 0 -7 3 -2 5 12 5
14 0 19 -2 13 -5z m-123 -15 c-30 -5 -64 -11 -75 -13 -14 -3 -33 -33 -65 -101
-25 -52 -50 -100 -56 -105 -13 -10 -58 37 -111 115 -15 22 -34 47 -40 54 -7 7
-13 20 -13 28 0 17 -12 15 174 20 82 2 151 6 154 9 3 3 24 4 46 4 40 -2 39 -2
-14 -11z m190 -20 c31 -20 50 -23 158 -25 79 -2 122 1 122 8 0 6 5 7 10 4 6
-3 10 -20 10 -36 0 -17 -4 -28 -9 -24 -14 8 -368 -33 -437 -51 -58 -15 -95
-34 -168 -86 -36 -26 -86 -38 -86 -20 0 4 26 19 58 34 46 21 149 94 197 139
24 23 -18 6 -65 -27 -40 -28 -51 -32 -48 -18 4 24 60 55 105 59 24 3 47 14 67
34 37 37 41 37 86 9z m-2407 -66 c105 -64 137 -87 137 -96 0 -5 -8 -2 -17 6
-25 21 -139 88 -149 88 -5 -1 5 -12 21 -27 30 -25 30 -26 2 -9 -15 9 -33 14
-39 10 -7 -4 -8 -3 -4 4 3 6 -2 16 -13 21 -14 8 -29 5 -65 -14 -59 -32 -78
-32 -45 -1 29 27 78 55 97 56 7 0 40 -17 75 -38z m904 2 c-3 -3 -12 -4 -19 -1
-8 3 -5 6 6 6 11 1 17 -2 13 -5z m-2879 -21 c-3 -12 -12 -17 -27 -15 -13 1
-30 -3 -37 -9 -7 -6 -47 -13 -88 -16 -65 -5 -76 -4 -76 10 0 10 13 17 40 22
22 4 42 11 46 16 3 5 37 9 75 9 62 0 70 -2 67 -17z m457 7 c-3 -5 -11 -10 -16
-10 -6 0 -7 5 -4 10 3 6 11 10 16 10 6 0 7 -4 4 -10z m-330 -11 c11 -17 -1
-21 -15 -4 -8 9 -8 15 -2 15 6 0 14 -5 17 -11z m-610 -39 c4 -6 -18 -10 -59
-10 -59 0 -66 -2 -66 -20 0 -15 -7 -20 -25 -20 -15 0 -25 6 -25 14 0 8 -10 17
-22 19 -19 3 -17 5 7 6 17 1 39 6 50 11 28 12 133 12 140 0z m541 -21 c5 -9
-1 -10 -20 -5 -18 4 -25 3 -21 -3 13 -22 -182 -91 -257 -91 -20 0 -26 -4 -22
-15 7 -17 -11 -21 -21 -5 -3 6 -25 10 -47 10 -49 0 -47 7 2 13 19 2 43 8 52
12 9 4 22 4 28 0 5 -3 10 -1 10 4 0 6 9 11 19 11 11 0 26 6 33 14 8 8 50 22
94 31 43 10 83 21 89 26 13 13 53 11 61 -2z m-796 -3 c0 -2 -9 -6 -20 -9 -11
-3 -20 -1 -20 4 0 5 9 9 20 9 11 0 20 -2 20 -4z m-275 -65 c-15 -14 -75 -24
-75 -12 0 9 24 17 65 20 11 0 15 -3 10 -8z m3565 -26 c-52 -7 -115 -16 -140
-19 -36 -5 -40 -4 -21 4 29 13 139 27 206 28 36 0 23 -4 -45 -13z m-2940 -15
c0 -5 -8 -10 -17 -10 -15 0 -16 2 -3 10 19 12 20 12 20 0z m-325 -20 c-16 -4
-55 -7 -85 -7 l-55 0 60 7 c33 4 71 7 85 7 22 1 21 0 -5 -7z m72 4 c-3 -3 -12
-4 -19 -1 -8 3 -5 6 6 6 11 1 17 -2 13 -5z m791 -23 c3 -8 -1 -12 -9 -9 -7 2
-15 10 -17 17 -3 8 1 12 9 9 7 -2 15 -10 17 -17z m-1208 -1 c-8 -5 -40 -9 -70
-9 -42 1 -49 3 -30 9 38 12 119 12 100 0z m123 3 c-7 -2 -21 -2 -30 0 -10 3
-4 5 12 5 17 0 24 -2 18 -5z m589 -45 c-1 -8 7 -23 18 -33 16 -14 22 -15 35
-5 8 7 15 22 15 33 0 19 1 19 19 3 10 -9 21 -29 24 -42 4 -23 2 -25 -22 -19
-14 4 -30 7 -35 8 -6 1 -9 -13 -7 -30 2 -30 0 -33 -23 -33 -29 0 -36 20 -8 21
10 0 12 3 5 6 -7 2 -13 11 -13 18 0 17 -34 37 -46 27 -5 -4 -2 1 5 10 11 15
11 19 -3 24 -9 3 -16 14 -16 24 0 15 5 17 28 11 16 -5 26 -14 24 -23z m302 1
c-3 -5 -10 -7 -15 -3 -5 3 -7 10 -3 15 3 5 10 7 15 3 5 -3 7 -10 3 -15z
m-3597 -20 c24 -11 43 -25 43 -30 0 -13 -4 -12 -45 12 -35 21 -81 23 -127 4
-10 -4 -18 -3 -18 3 0 12 45 30 79 31 14 1 44 -8 68 -20z m2276 -26 c-7 -2
-21 -2 -30 0 -10 3 -4 5 12 5 17 0 24 -2 18 -5z m344 1 c33 -9 19 -21 -16 -16
-17 2 -28 8 -25 13 6 10 11 11 41 3z m623 -3 c0 -5 9 -13 21 -16 25 -8 22 -48
-4 -53 -15 -3 -18 0 -13 16 5 15 1 22 -13 27 -12 4 -18 12 -14 21 6 16 23 19
23 5z m310 5 c0 -11 -19 -15 -25 -6 -3 5 1 10 9 10 9 0 16 -2 16 -4z m10670
-6 c-8 -5 -22 -10 -30 -10 -24 0 -132 -54 -187 -94 -61 -44 -77 -34 -25 16 50
46 87 69 142 84 56 15 122 18 100 4z m-11600 -30 c22 -7 21 -8 -12 -9 -20 -1
-40 4 -43 9 -7 12 19 12 55 0z m328 -30 c-23 -28 -47 -42 -31 -17 29 45 38 55
45 51 5 -3 -2 -18 -14 -34z m-578 5 c-6 -8 -17 -12 -23 -10 -7 2 -25 7 -42 11
-29 8 -29 8 15 14 53 7 65 3 50 -15z m4037 -2 c101 -23 84 -28 -23 -7 -97 18
-230 15 -319 -7 -78 -19 -213 -80 -294 -133 -73 -48 -199 -165 -280 -261 -23
-27 -34 -37 -24 -20 25 42 48 69 128 150 170 173 366 274 575 295 87 9 137 5
237 -17z m8357 -9 c3 -8 2 -12 -4 -9 -6 3 -10 10 -10 16 0 14 7 11 14 -7z
m-15269 -4 l20 -9 -20 0 c-11 0 -27 4 -35 9 -13 9 -13 10 0 9 8 0 24 -4 35 -9z
m3560 -10 c-3 -5 -28 -10 -56 -10 -27 0 -49 5 -49 10 0 6 25 10 56 10 34 0 53
-4 49 -10z m3557 -50 c98 -50 144 -85 237 -180 35 -36 77 -85 94 -110 17 -25
34 -47 38 -50 17 -12 123 -239 150 -321 43 -131 34 -131 -14 1 -114 306 -264
503 -482 631 -33 20 -76 42 -95 49 -19 7 -39 17 -44 21 -18 16 54 -10 116 -41z
m-4672 18 c10 -6 7 -7 -10 -2 -14 3 -32 11 -40 16 -10 6 -7 7 10 2 14 -3 32
-11 40 -16z m995 -7 c-11 -5 -119 -11 -240 -13 -235 -6 -215 -2 60 11 94 4
177 8 185 9 8 0 6 -3 -5 -7z m-597 -28 c-16 -2 -40 -2 -55 0 -16 2 -3 4 27 4
30 0 43 -2 28 -4z m12039 -19 c191 -65 337 -291 397 -613 9 -46 16 -95 15
-110 0 -14 -7 10 -15 54 -8 44 -19 91 -24 103 -6 13 -20 58 -31 100 -33 123
-151 336 -183 330 -6 -1 -24 5 -41 15 -16 9 -26 16 -20 17 16 0 -62 50 -79 50
-9 0 -16 5 -16 10 0 6 -8 10 -18 10 -10 0 -23 5 -29 11 -5 5 -37 9 -69 7 -55
-3 -59 -5 -62 -29 -3 -27 -29 -46 -69 -52 -12 -2 -26 -6 -29 -10 -4 -4 -14 -7
-22 -7 -12 0 -12 3 -2 15 8 9 8 15 2 15 -6 0 -20 -12 -31 -26 -12 -15 -21 -23
-21 -19 0 14 -75 -58 -113 -108 -34 -45 -68 -109 -67 -126 1 -3 7 6 16 21 25
48 75 59 58 14 -4 -9 -1 -30 6 -47 11 -25 10 -36 -4 -68 -10 -20 -18 -55 -19
-77 -2 -47 -10 -54 -62 -54 -45 -1 -85 -27 -85 -57 0 -15 -2 -15 -9 -4 -6 9
-6 23 1 35 8 16 7 18 -1 11 -6 -6 -22 -47 -35 -90 -29 -96 -33 -80 -7 25 71
279 238 537 403 621 102 52 180 62 265 33z m-8352 -24 c3 -5 -27 -43 -68 -85
-72 -75 -74 -76 -94 -58 -12 10 -23 32 -26 50 -6 30 -4 32 56 61 95 45 120 51
132 32z m8882 -86 c-3 -3 -12 -4 -19 -1 -8 3 -5 6 6 6 11 1 17 -2 13 -5z
m-7355 -86 c5 -38 2 -185 -4 -182 -4 3 -5 -2 -2 -11 8 -21 32 -2 36 28 2 12 9
22 17 22 8 0 17 9 22 20 7 20 8 20 8 -1 1 -12 -4 -34 -9 -51 -6 -16 -16 -63
-23 -104 l-13 -74 -31 95 c-18 53 -41 116 -52 140 -25 55 -28 83 -6 54 15 -18
15 -18 9 9 -4 16 -2 27 4 27 6 0 14 9 17 20 7 22 24 27 27 8z m111 -48 c-3
-12 -8 -19 -11 -16 -5 6 5 36 12 36 2 0 2 -9 -1 -20z m-2027 -25 c-9 -13 -16
-27 -16 -30 0 -3 23 -5 50 -5 48 0 56 -6 51 -34 -6 -31 11 -55 42 -58 19 -2
31 -8 30 -15 -2 -7 2 -13 8 -13 6 0 9 -7 5 -15 -3 -8 0 -15 7 -16 9 0 9 -2 0
-6 -8 -3 -13 -24 -13 -54 0 -30 -7 -61 -17 -77 -26 -41 -82 -92 -102 -92 -10
0 -21 -3 -25 -7 -15 -15 -101 -31 -118 -22 -9 5 -24 9 -33 9 -31 0 -104 61
-116 97 -9 30 -8 39 17 81 66 113 115 180 167 230 60 56 91 70 63 27z m-256
-199 c-17 -31 -33 -56 -35 -56 -6 0 17 49 40 87 33 54 29 27 -5 -31z m-47 -81
c-3 -9 -8 -14 -10 -11 -3 3 -2 9 2 15 9 16 15 13 8 -4z m-23 -65 c-16 -31 -23
-18 -8 15 7 15 14 23 16 17 2 -6 -2 -21 -8 -32z m-6101 -26 l31 -7 -25 -23
c-14 -13 -34 -42 -43 -65 l-18 -41 -28 52 -29 53 24 18 c26 20 40 22 88 13z
m321 -50 c0 -2 -11 -4 -25 -4 -14 0 -25 4 -25 9 0 4 11 6 25 3 14 -2 25 -6 25
-8z m6130 -33 c0 -6 -4 -13 -10 -16 -5 -3 -10 1 -10 9 0 9 5 16 10 16 6 0 10
-4 10 -9z m1518 -81 c0 -9 -3 -7 -8 5 -5 11 -8 29 -8 40 0 16 2 15 8 -5 4 -14
8 -32 8 -40z m7619 -2 c-2 -13 -4 -5 -4 17 -1 22 1 32 4 23 2 -10 2 -28 0 -40z
m-1110 20 c-3 -8 -6 -5 -6 6 -1 11 2 17 5 13 3 -3 4 -12 1 -19z m94 -93 c32
-33 36 -60 15 -120 -7 -22 -24 -73 -36 -112 -13 -40 -27 -73 -32 -73 -4 0 -8
-7 -8 -15 0 -8 -11 -30 -24 -49 -31 -46 -36 -33 -36 97 0 116 13 248 31 306
l11 39 26 -22 c13 -11 38 -34 53 -51z m-104 33 c-3 -8 -6 -5 -6 6 -1 11 2 17
5 13 3 -3 4 -12 1 -19z m-950 -42 c54 -13 121 -33 149 -44 40 -16 54 -18 64
-9 12 12 12 11 -5 -52 -4 -15 -19 -21 -58 -26 -29 -4 -95 -17 -147 -31 -52
-13 -124 -28 -160 -33 -36 -6 -120 -21 -187 -35 -104 -22 -166 -27 -415 -36
-264 -9 -436 -20 -524 -35 -31 -5 -31 -5 -53 67 -11 40 -21 84 -20 98 1 14 3
18 6 9 3 -13 11 -15 46 -8 23 4 53 12 67 17 14 5 48 12 75 16 65 9 245 44 315
61 30 7 98 19 150 25 52 6 109 15 125 20 117 36 416 34 572 -4z m2289 8 c-3
-9 -6 -18 -6 -20 0 -2 -6 -4 -14 -4 -8 0 -17 -6 -19 -12 -3 -7 -6 -5 -6 6 -1
10 7 25 17 32 23 18 35 17 28 -2z m-9786 -126 c-7 -40 -18 -109 -25 -153 -19
-110 -25 -195 -27 -362 -2 -79 -6 -143 -10 -143 -10 0 -14 158 -7 330 4 105
14 186 29 250 38 167 62 213 40 78z m2422 30 c-9 -9 -12 -4 -11 23 0 32 1 33
11 11 8 -17 8 -26 0 -34z m5328 -18 c-20 -12 -22 -7 -14 26 7 28 7 28 17 5 8
-17 7 -25 -3 -31z m1169 18 c15 -43 -8 -70 -58 -66 -30 2 -35 6 -32 23 2 11 4
27 5 35 1 20 26 39 53 40 15 0 24 -9 32 -32z m-2775 -157 c9 -24 16 -47 16
-51 0 -10 -34 -14 -470 -55 -206 -19 -469 -44 -585 -55 -115 -11 -229 -22
-252 -25 -24 -2 -43 -1 -43 4 0 5 -6 11 -12 14 -7 2 -3 2 10 0 37 -6 126 9
110 18 -9 6 -6 9 11 9 13 0 62 9 110 19 172 38 243 51 251 46 5 -3 21 -1 35 5
32 12 168 42 303 66 50 9 95 20 98 25 3 5 25 9 50 9 25 0 54 4 64 10 10 5 49
15 87 20 37 6 91 15 118 19 35 6 52 5 57 -3 5 -6 6 12 3 39 l-5 50 15 -60 c7
-33 21 -80 29 -104z m2980 102 c-6 -89 -14 -142 -24 -148 -14 -9 -23 15 -11
29 6 7 10 26 10 42 0 16 0 53 0 82 0 38 4 52 14 52 11 0 13 -13 11 -57z
m-9124 -135 c-18 -83 -23 -66 -8 28 7 43 14 68 16 55 2 -14 -2 -51 -8 -83z
m8793 50 c8 -55 -8 -54 -19 0 -4 19 -2 32 4 32 5 0 12 -15 15 -32z m-8373 -22
c0 -14 -5 -28 -11 -31 -13 -9 -16 -6 -24 28 -6 23 -4 27 14 27 16 0 21 -6 21
-24z m481 -26 c36 -20 68 -109 34 -96 -9 3 -18 -1 -22 -10 -3 -8 -11 -13 -18
-10 -6 2 -18 0 -25 -4 -9 -5 -18 -3 -25 7 -6 8 -28 16 -48 16 -43 1 -45 7 -16
53 32 52 75 68 120 44z m7988 -62 c1 -20 4 -38 9 -40 7 -3 42 -62 42 -72 0 -3
-11 -6 -25 -6 -19 0 -26 7 -31 28 -4 15 -13 51 -20 81 -11 42 -11 57 -2 69 10
12 13 11 19 -5 4 -10 8 -34 8 -55z m-6384 -9 c10 -32 -3 -121 -30 -197 -27
-77 -32 -73 -10 8 8 30 15 90 15 133 0 74 11 100 25 56z m-1782 -142 c0 -18
-9 -53 -21 -79 -12 -26 -22 -50 -22 -53 0 -3 -12 -22 -27 -41 -39 -47 -71 -46
-106 6 -24 35 -21 55 12 92 17 18 38 44 48 56 13 17 30 24 56 25 34 1 37 3 37
31 1 27 2 29 11 13 6 -11 11 -33 12 -50z m4048 53 c-19 -5 -44 -4 -55 0 -15 6
-5 9 34 8 50 0 52 -1 21 -8z m-4021 -36 c0 -8 -4 -12 -10 -9 -5 3 -10 13 -10
21 0 8 5 12 10 9 6 -3 10 -13 10 -21z m-2399 -16 c-108 -115 -142 -148 -153
-148 -7 0 -2 8 12 17 29 18 110 109 110 123 0 9 -241 5 -325 -5 -35 -5 -40 -9
-42 -32 0 -15 -8 -32 -17 -39 -9 -6 -16 -26 -16 -46 0 -38 -15 -58 -42 -58
-22 0 -22 11 -3 94 8 35 13 71 9 79 -4 12 30 15 223 21 125 4 232 12 238 17 5
5 15 9 23 9 8 0 2 -13 -17 -32z m10129 -8 c0 -4 18 -1 41 6 35 13 42 12 55 -1
9 -8 20 -13 25 -10 5 4 9 -1 9 -9 0 -8 -5 -18 -10 -21 -6 -4 -8 -10 -5 -15 3
-5 1 -19 -5 -30 -11 -21 -11 -22 43 -23 23 -1 26 -4 21 -22 -4 -11 -17 -33
-30 -48 -24 -28 -28 -44 -24 -103 1 -20 -4 -33 -14 -37 -38 -15 4 -140 64
-191 36 -29 52 -34 43 -10 -3 8 -1 25 5 37 5 12 16 43 22 70 11 39 16 47 36
47 17 0 24 -6 24 -19 0 -10 7 -24 15 -31 9 -7 14 -19 11 -26 -3 -7 2 -15 11
-18 10 -4 13 -12 8 -24 -12 -27 -22 -100 -16 -110 7 -11 98 -42 122 -42 9 0
19 -6 22 -13 5 -14 103 -16 147 -2 20 6 89 53 110 75 3 3 19 16 35 30 27 23
27 22 -5 -15 -42 -48 -99 -94 -160 -126 -38 -20 -60 -24 -135 -24 -79 0 -97 4
-147 28 -33 16 -85 55 -121 92 -119 119 -227 389 -227 567 0 29 3 36 15 32 8
-4 15 -10 15 -14z m-10640 0 c0 -5 -15 -10 -33 -10 -39 0 -895 -27 -1122 -35
-98 -4 -156 -2 -150 3 6 5 271 17 590 26 319 10 587 19 595 20 36 8 120 5 120
-4z m2925 -30 c7 0 22 -8 34 -17 15 -14 18 -22 11 -33 -9 -13 -15 -9 -40 20
-16 19 -29 40 -29 45 0 6 3 4 6 -2 2 -7 11 -13 18 -13z m-2682 3 c-7 -2 -19
-2 -25 0 -7 3 -2 5 12 5 14 0 19 -2 13 -5z m-13 -32 c0 -5 -9 -11 -21 -14 -16
-4 -18 -3 -8 9 13 16 29 19 29 5z m-63 -58 c-3 -10 -5 -4 -5 12 0 17 2 24 5
18 2 -7 2 -21 0 -30z m9393 19 c0 -4 -13 -15 -29 -25 -24 -14 -124 -25 -513
-57 -266 -22 -512 -42 -548 -45 -533 -45 -2954 -228 -3195 -242 -86 -5 -102
-3 -114 11 -8 9 -12 18 -10 20 5 4 429 38 819 66 306 22 346 25 1340 100 809
62 1156 89 1695 134 394 33 477 40 533 44 12 1 22 -2 22 -6z m-9303 -24 c-3
-8 -6 -5 -6 6 -1 11 2 17 5 13 3 -3 4 -12 1 -19z m-127 -8 c0 -5 9 -10 20 -10
11 0 20 -6 20 -14 0 -10 -11 -14 -35 -13 -26 1 -34 5 -30 15 3 7 5 18 5 23 0
5 5 9 10 9 6 0 10 -4 10 -10z m4467 -42 c-3 -8 -6 -5 -6 6 -1 11 2 17 5 13 3
-3 4 -12 1 -19z m-4647 -28 c0 -5 -12 -10 -27 -10 -16 0 -230 -7 -478 -14
-675 -22 -913 -27 -885 -17 14 4 162 11 330 16 242 6 682 20 1023 34 20 0 37
-3 37 -9z m120 -6 c0 -2 -13 -4 -30 -4 -16 0 -30 4 -30 8 0 5 14 7 30 4 17 -2
30 -6 30 -8z m97 10 c-3 -3 -12 -4 -19 -1 -8 3 -5 6 6 6 11 1 17 -2 13 -5z
m10825 -81 c8 -10 24 -35 36 -55 18 -32 18 -36 4 -31 -18 7 -62 53 -62 65 0 3
-3 13 -6 22 -8 21 9 20 28 -1z m114 -27 c3 -14 2 -32 -3 -41 -9 -15 -11 -15
-22 -1 -14 17 -7 66 9 66 5 0 12 -11 16 -24z m-8986 -31 c0 -11 5 -27 11 -35
8 -12 9 -9 5 10 -4 15 2 9 14 -15 11 -22 20 -48 20 -58 0 -10 12 -49 26 -85
14 -37 31 -80 37 -97 73 -196 201 -356 382 -476 74 -49 91 -65 78 -71 -16 -6
-16 -7 2 -7 18 -1 103 -39 115 -51 12 -13 75 -38 83 -33 4 3 17 -3 28 -13 17
-15 39 -18 154 -19 81 0 127 -3 118 -9 -9 -5 -81 -9 -162 -10 -163 -1 -206 8
-339 72 -254 121 -477 420 -562 751 -24 94 -37 203 -21 181 6 -8 11 -24 11
-35z m9438 10 c-6 -14 -13 -23 -15 -21 -5 5 15 46 22 46 3 0 -1 -11 -7 -25z
m-2068 -105 c-71 -18 -340 -38 -1200 -90 -179 -11 -462 -29 -630 -40 -168 -11
-480 -31 -695 -45 -214 -14 -516 -34 -670 -45 -154 -11 -449 -31 -655 -45
-588 -40 -642 -44 -869 -65 -263 -25 -342 -37 -404 -61 -50 -20 -155 -27 -127
-9 8 5 33 10 55 10 22 0 60 10 85 21 85 39 345 63 1515 139 259 17 526 34 595
39 69 5 175 12 235 16 61 3 162 10 225 15 63 5 266 19 450 30 184 11 351 22
370 25 19 2 85 7 145 10 61 4 142 10 180 15 39 5 136 12 217 16 81 4 146 10
143 13 -2 4 31 8 72 8 42 1 117 7 166 13 49 7 115 9 146 6 40 -4 50 -3 36 4
-14 7 15 9 98 7 64 -2 117 0 117 3 0 4 53 7 117 9 64 1 118 3 119 4 1 1 47 3
101 4 74 1 89 0 63 -7z m1971 -53 c-10 -9 -11 -8 -5 6 3 10 9 15 12 12 3 -3 0
-11 -7 -18z m-9073 -135 c15 -9 36 -13 62 -9 22 3 40 1 40 -4 0 -5 -5 -9 -11
-9 -5 0 -7 -5 -4 -10 4 -6 11 -8 16 -4 14 8 76 -15 83 -31 3 -9 19 -15 40 -15
29 0 34 -4 33 -20 -1 -19 -6 -20 -47 -14 -93 14 -195 64 -274 135 -14 13 37
-3 62 -19z m240 -69 c-10 -2 -26 -2 -35 0 -10 3 -2 5 17 5 19 0 27 -2 18 -5z
m8592 -73 c-8 -5 -22 -9 -30 -9 -10 0 -8 3 5 9 27 12 43 12 25 0z m-7955 -520
c-11 -5 -27 -9 -35 -9 -13 -1 -13 0 0 9 8 5 24 9 35 9 l20 0 -20 -9z"/>
<path d="M15159 11293 c-13 -15 -12 -15 9 -4 23 12 28 21 13 21 -5 0 -15 -7
-22 -17z"/>
<path d="M15231 11266 c-7 -8 -14 -31 -17 -53 l-5 -38 14 35 c8 19 18 43 22
53 9 21 2 22 -14 3z"/>
<path d="M19888 10770 c3 -14 10 -50 17 -80 l12 -55 -1 84 c-1 46 -2 76 -4 67
-4 -19 -19 -21 -25 -3 -2 6 -2 1 1 -13z"/>
<path d="M20080 10661 c0 -10 19 -25 25 -20 1 2 -3 10 -11 17 -8 7 -14 8 -14
3z"/>
<path d="M19925 10629 c-4 -5 0 -25 9 -42 8 -18 20 -64 26 -102 13 -82 19 -93
21 -39 l2 39 10 -47 10 -47 144 0 c132 0 142 1 127 16 -13 14 -17 14 -25 2 -6
-10 -9 -10 -9 -1 0 6 -7 12 -15 12 -8 0 -15 5 -15 10 0 14 27 12 33 -2 3 -7 6
-3 6 8 1 17 -7 23 -36 30 l-38 7 30 8 c17 4 -4 5 -47 2 l-78 -5 0 81 0 81 -40
0 c-27 0 -43 -5 -46 -15 -4 -8 -13 -15 -20 -15 -8 0 -17 7 -20 15 -7 17 -20
19 -29 4z m71 -65 c-3 -9 -6 -25 -6 -35 0 -11 -4 -17 -10 -14 -17 11 -12 65 6
65 11 0 14 -5 10 -16z"/>
<path d="M20167 10566 c-3 -8 -2 -18 3 -21 13 -8 24 15 12 27 -6 6 -11 4 -15
-6z"/>
<path d="M20160 10520 c0 -5 12 -10 26 -10 14 0 23 4 19 10 -3 6 -15 10 -26
10 -10 0 -19 -4 -19 -10z"/>
<path d="M16873 10073 c9 -2 23 -2 30 0 6 3 -1 5 -18 5 -16 0 -22 -2 -12 -5z"/>
<path d="M15914 10188 c-4 -13 -11 -26 -17 -29 -5 -4 -8 -12 -5 -19 3 -11 48
50 48 66 0 14 -20 0 -26 -18z"/>
<path d="M18365 9763 c-183 -17 -277 -32 -300 -47 -30 -20 -27 -33 3 -17 17 9
142 23 406 46 l58 5 -6 -32 c-8 -42 -32 -77 -59 -87 -12 -5 -94 -14 -182 -20
-88 -6 -190 -14 -228 -17 l-67 -6 9 25 c9 22 8 25 -7 20 -15 -6 -15 -5 -3 10
12 15 11 17 -5 17 -15 0 -16 2 -5 9 10 6 3 9 -21 8 -21 0 -34 -5 -32 -11 3 -7
-13 -11 -38 -11 -131 0 -514 -18 -523 -25 -10 -8 -62 -12 -378 -29 -97 -6
-181 -12 -185 -15 -5 -3 -50 -6 -101 -7 l-92 -1 -13 -32 c-18 -43 -27 -106
-15 -106 5 0 9 4 9 9 0 5 10 9 23 9 12 -1 65 4 117 10 52 6 133 14 180 17 47
3 97 8 111 11 30 6 90 10 349 23 255 14 467 30 517 40 24 5 40 5 38 0 -3 -4
-1 -10 5 -14 6 -3 10 4 10 17 1 20 2 21 11 6 5 -10 18 -18 27 -18 16 1 16 1 0
11 -10 5 -18 17 -18 26 0 15 1 15 13 0 11 -16 28 -15 254 3 149 12 249 24 263
32 26 16 60 85 60 121 0 27 0 27 -72 25 -40 -1 -91 -3 -113 -5z m-1736 -263
c0 -10 -3 -8 -9 5 -12 27 -12 43 0 25 5 -8 9 -22 9 -30z"/>
<path d="M18734 9710 c4 -27 3 -31 -5 -17 -8 14 -24 17 -88 17 -75 0 -78 -1
-91 -27 -8 -16 -25 -40 -39 -55 -14 -16 -20 -28 -13 -28 6 0 14 5 17 10 3 6
11 10 16 10 6 0 8 -4 5 -8 -3 -5 1 -9 9 -9 8 0 12 4 9 9 -4 6 32 8 85 6 53 -2
91 1 91 6 0 6 7 1 15 -10 13 -18 14 -18 15 -1 0 10 5 15 10 12 12 -8 12 50 -1
85 -9 25 -9 25 -5 -3 2 -15 -1 -30 -5 -33 -5 -3 -9 5 -9 18 0 13 -5 30 -11 38
-8 11 -9 6 -5 -20z"/>
<path d="M18298 9573 c7 -3 16 -2 19 1 4 3 -2 6 -13 5 -11 0 -14 -3 -6 -6z"/>
<path d="M18123 9563 c9 -2 23 -2 30 0 6 3 -1 5 -18 5 -16 0 -22 -2 -12 -5z"/>
<path d="M18018 9553 c12 -2 32 -2 45 0 12 2 2 4 -23 4 -25 0 -35 -2 -22 -4z"/>
<path d="M16090 9649 c0 -8 7 -24 15 -35 18 -24 19 -7 0 26 -9 16 -14 19 -15
9z"/>
<path d="M13065 9280 c3 -5 11 -10 16 -10 6 0 7 5 4 10 -3 6 -11 10 -16 10 -6
0 -7 -4 -4 -10z"/>
<path d="M14506 9155 c4 -8 10 -15 15 -15 5 0 9 7 9 15 0 8 -7 15 -15 15 -9 0
-12 -6 -9 -15z"/>
<path d="M11136 8987 c-7 -27 1 -35 18 -16 12 12 12 16 1 26 -10 9 -14 7 -19
-10z"/>
<path d="M11058 8943 c6 -2 18 -2 25 0 6 3 1 5 -13 5 -14 0 -19 -2 -12 -5z"/>
<path d="M12950 9280 c20 -13 33 -13 25 0 -3 6 -14 10 -23 10 -15 0 -15 -2 -2
-10z"/>
<path d="M21176 8285 c-3 -9 -6 -22 -5 -28 0 -7 5 -1 10 12 5 13 8 26 5 28 -2
2 -6 -3 -10 -12z"/>
<path d="M12841 8266 c-32 -50 -25 -56 14 -12 40 45 40 46 21 46 -8 0 -24 -15
-35 -34z"/>
<path d="M12801 8204 c0 -11 3 -14 6 -6 3 7 2 16 -1 19 -3 4 -6 -2 -5 -13z"/>
<path d="M17608 7503 c7 -3 16 -2 19 1 4 3 -2 6 -13 5 -11 0 -14 -3 -6 -6z"/>
<path d="M19208 6933 c7 -3 16 -2 19 1 4 3 -2 6 -13 5 -11 0 -14 -3 -6 -6z"/>
<path d="M13068 6683 c7 -3 16 -2 19 1 4 3 -2 6 -13 5 -11 0 -14 -3 -6 -6z"/>
<path d="M16488 11713 c6 -2 18 -2 25 0 6 3 1 5 -13 5 -14 0 -19 -2 -12 -5z"/>
<path d="M15768 11703 c7 -3 16 -2 19 1 4 3 -2 6 -13 5 -11 0 -14 -3 -6 -6z"/>
<path d="M15833 11693 c9 -2 23 -2 30 0 6 3 -1 5 -18 5 -16 0 -22 -2 -12 -5z"/>
<path d="M13883 11683 c9 -2 23 -2 30 0 6 3 -1 5 -18 5 -16 0 -22 -2 -12 -5z"/>
<path d="M15608 11683 c7 -3 16 -2 19 1 4 3 -2 6 -13 5 -11 0 -14 -3 -6 -6z"/>
<path d="M13818 11673 c6 -2 18 -2 25 0 6 3 1 5 -13 5 -14 0 -19 -2 -12 -5z"/>
<path d="M19360 11581 c0 -5 12 -11 28 -14 15 -3 38 -8 52 -13 14 -4 22 -4 18
0 -10 12 -98 36 -98 27z"/>
<path d="M13080 11476 c-114 -39 -216 -80 -415 -164 -203 -85 -939 -440 -980
-472 -21 -17 -554 -279 -617 -304 -36 -14 -117 -39 -180 -56 l-113 -30 135 7
c108 5 140 9 162 24 14 11 29 19 32 19 3 0 29 15 58 34 152 97 794 431 1173
611 289 137 645 287 818 344 37 13 67 25 67 27 0 7 -13 4 -140 -40z"/>
<path d="M20564 11071 c20 -22 26 -25 26 -13 0 4 -10 13 -22 21 -23 14 -23 14
-4 -8z"/>
<path d="M21481 10349 c21 -18 22 -20 4 -14 -15 5 -17 3 -8 -6 6 -6 16 -8 23
-4 12 8 -15 45 -33 45 -5 0 1 -9 14 -21z"/>
<path d="M9115 10285 c-594 -79 -1081 -221 -1490 -434 -277 -144 -486 -291
-672 -474 -82 -80 -96 -100 -51 -76 12 7 28 13 33 14 6 0 37 13 70 29 70 33
143 65 405 181 58 26 118 53 134 61 16 8 35 14 42 14 7 0 14 3 16 8 2 4 41 22
88 40 47 18 97 40 111 47 23 13 202 84 379 152 36 13 81 31 100 38 19 8 53 20
75 27 22 7 42 15 45 18 3 3 52 22 110 42 205 71 305 108 332 123 14 8 32 15
40 15 33 0 274 101 287 120 7 11 24 20 37 20 28 0 32 17 7 22 -10 3 7 8 37 12
61 9 103 26 60 25 -14 -1 -101 -11 -195 -24z"/>
<path d="M0 10002 l0 -160 243 -7 c133 -3 487 -8 787 -10 528 -3 724 -7 1880
-39 300 -9 748 -20 995 -26 760 -17 2459 -59 2854 -70 l374 -11 36 34 c50 47
121 94 225 148 l88 46 -173 7 c-96 3 -329 11 -519 16 -190 5 -462 14 -605 20
-380 15 -1033 38 -1400 50 -176 6 -509 17 -740 25 -1630 57 -2367 82 -2865 95
-374 10 -785 24 -1037 36 l-143 7 0 -161z"/>
<path d="M11760 10100 c0 -5 18 -10 40 -10 22 0 40 5 40 10 0 6 -18 10 -40 10
-22 0 -40 -4 -40 -10z"/>
<path d="M11848 10073 c7 -3 16 -2 19 1 4 3 -2 6 -13 5 -11 0 -14 -3 -6 -6z"/>
<path d="M18822 9740 c0 -14 2 -19 5 -12 2 6 2 18 0 25 -3 6 -5 1 -5 -13z"/>
<path d="M22520 9688 c-13 -75 -31 -133 -56 -180 -15 -28 -20 -68 -6 -52 5 5
19 37 33 72 22 59 26 63 52 59 17 -2 26 1 24 7 -2 6 -14 12 -26 14 -16 3 -21
8 -16 19 8 22 19 133 13 133 -3 0 -11 -33 -18 -72z"/>
<path d="M22480 9620 c0 -5 5 -10 11 -10 5 0 7 5 4 10 -3 6 -8 10 -11 10 -2 0
-4 -4 -4 -10z"/>
<path d="M22478 9362 c36 -32 71 -43 131 -41 33 1 34 2 11 9 -14 4 -38 9 -55
9 -16 1 -40 7 -51 14 -62 36 -68 37 -36 9z"/>
<path d="M122 9363 l-122 -4 0 -136 0 -136 268 7 c552 14 2440 8 4012 -14 388
-5 1077 -12 1532 -15 l827 -6 56 86 c31 48 55 89 53 90 -2 2 -253 9 -558 14
-1316 25 -1627 31 -2010 36 -1006 13 -1840 31 -2170 45 -478 20 -1623 40
-1888 33z"/>
<path d="M22680 9330 c0 -17 6 -32 13 -35 6 -2 309 -11 672 -19 898 -22 2074
-54 2218 -60 153 -7 308 3 332 20 10 8 17 15 14 18 -2 2 -60 6 -129 8 -69 3
-109 2 -90 -2 33 -7 33 -7 7 -9 -36 -1 -92 50 -74 68 8 8 -3 11 -44 12 -29 1
-150 4 -267 8 -116 3 -212 3 -212 -1 0 -4 37 -9 83 -11 66 -2 59 -3 -40 -5
-71 -1 -123 2 -123 7 0 5 8 12 18 14 9 2 4 3 -12 1 -16 -2 -43 -4 -60 -5 -30
-1 -30 -1 -6 -10 19 -7 17 -7 -10 -2 -19 3 -48 6 -65 5 -16 0 -109 -3 -205 -7
-430 -16 -1405 -8 -1725 15 -71 5 -163 8 -202 7 -40 -2 -73 1 -73 5 0 4 -4 8
-10 8 -5 0 -10 -14 -10 -30z m2705 -9 l40 -9 -50 -1 c-27 0 -57 4 -65 9 -12 8
-10 10 10 9 14 0 43 -4 65 -8z m-152 -18 c-7 -2 -19 -2 -25 0 -7 3 -2 5 12 5
14 0 19 -2 13 -5z"/>
<path d="M6787 9261 c-24 -42 -21 -52 4 -13 12 18 20 35 17 37 -2 2 -12 -9
-21 -24z"/>
<path d="M26600 9250 c-8 -5 -71 -6 -147 -3 -97 4 -133 3 -133 -5 0 -7 -16
-12 -40 -12 -65 0 -45 -17 28 -24 62 -6 478 -18 1077 -31 138 -3 387 -10 555
-15 699 -21 860 -23 860 -7 0 18 -69 24 -344 26 -110 1 -242 4 -295 6 -53 3
-204 7 -336 10 -513 11 -959 32 -1075 50 -111 17 -130 18 -150 5z"/>
<path d="M22636 9082 c-25 -73 -35 -121 -16 -77 34 83 58 155 50 155 -4 0 -20
-35 -34 -78z"/>
<path d="M22647 9020 c-32 -71 -66 -167 -73 -209 -5 -30 -13 -46 -28 -52 -17
-8 -16 -8 8 -4 24 5 27 4 19 -7 -6 -7 -20 -62 -32 -121 -12 -60 -32 -128 -44
-152 -22 -42 -23 -43 -33 -20 -8 17 -8 27 -1 34 8 8 8 11 0 11 -7 0 -15 -5
-18 -10 -4 -6 -15 -8 -26 -5 -10 4 -19 2 -19 -3 0 -12 29 -24 41 -16 5 3 9 -1
9 -9 0 -8 -9 -18 -21 -23 -19 -9 -20 -11 -5 -23 14 -11 16 -11 16 3 0 9 5 16
10 16 15 0 12 -21 -4 -34 -11 -8 -13 -24 -9 -57 5 -46 6 -46 25 -27 21 21 49
21 56 0 2 -8 -4 -11 -19 -10 -17 2 -25 -5 -36 -30 -7 -17 -10 -31 -6 -31 20 3
24 -2 13 -16 -11 -13 -11 -23 0 -55 8 -24 10 -53 5 -77 -19 -98 -19 -93 4 -93
12 0 33 -7 46 -16 31 -20 49 -9 42 26 -8 36 2 70 19 70 9 0 14 11 14 29 0 16
4 31 10 33 15 5 18 200 3 205 -22 8 -14 33 13 45 24 11 24 13 8 25 -16 11 -16
17 -3 55 10 32 11 42 1 46 -13 4 -17 64 -4 76 4 4 7 45 7 91 l1 84 -26 -5
c-21 -5 -23 -3 -10 8 18 15 28 84 11 74 -16 -10 -14 26 3 49 7 11 16 36 20 56
4 21 14 43 23 50 14 12 15 11 9 -9 -8 -23 8 -32 17 -9 4 9 6 9 6 0 1 -6 -3
-15 -9 -18 -5 -3 -10 -14 -10 -24 0 -16 19 -18 238 -24 130 -4 532 -7 892 -8
360 0 898 -4 1195 -8 297 -5 542 -6 545 -3 3 2 -1 7 -8 9 -21 8 18 61 47 66
14 2 -82 5 -214 7 -132 2 -269 4 -305 5 -36 1 -289 6 -564 9 -676 10 -893 14
-1361 22 -220 4 -414 7 -432 7 -21 0 -33 6 -36 16 -2 11 -9 4 -20 -19z m1625
-62 c52 -11 52 -12 21 -18 -37 -8 -156 3 -133 13 50 19 49 19 112 5z m-1675
-150 c-3 -8 -6 -5 -6 6 -1 11 2 17 5 13 3 -3 4 -12 1 -19z m11 -395 c-2 -9 -8
-18 -15 -20 -7 -3 -9 3 -6 16 6 25 26 28 21 4z m-127 -150 c-12 -20 -14 -14
-5 12 4 9 9 14 11 11 3 -2 0 -13 -6 -23z m126 -80 c-3 -10 -5 -4 -5 12 0 17 2
24 5 18 2 -7 2 -21 0 -30z"/>
<path d="M22597 8967 c-11 -29 -9 -43 4 -30 6 6 9 19 7 29 -3 18 -4 18 -11 1z"/>
<path d="M26565 8960 c3 -5 41 -9 83 -9 71 1 74 2 32 10 -65 11 -122 11 -115
-1z"/>
<path d="M26580 8930 c0 -5 14 -10 30 -10 17 0 30 5 30 10 0 6 -13 10 -30 10
-16 0 -30 -4 -30 -10z"/>
<path d="M22637 8861 c-5 -29 -6 -56 -3 -58 7 -8 18 61 14 88 -2 15 -7 3 -11
-30z"/>
<path d="M26560 8900 c0 -12 87 -12 115 0 14 6 -1 9 -47 9 -39 1 -68 -3 -68
-9z"/>
<path d="M22616 8885 c-9 -26 -7 -32 5 -12 6 10 9 21 6 23 -2 3 -7 -2 -11 -11z"/>
<path d="M22420 8725 c-36 -13 -58 -24 -50 -24 8 0 47 10 85 24 39 13 61 23
50 23 -11 0 -49 -11 -85 -23z"/>
<path d="M25803 8673 c43 -2 110 -2 150 0 40 1 5 3 -78 3 -82 0 -115 -2 -72
-3z"/>
<path d="M0 8618 l0 -35 88 3 c106 4 810 16 942 15 56 0 89 3 80 8 -29 17
-301 31 -702 38 l-408 6 0 -35z"/>
<path d="M22476 8483 c-6 -14 -5 -15 5 -6 7 7 10 15 7 18 -3 3 -9 -2 -12 -12z"/>
<path d="M22627 8358 c6 -7 13 -20 16 -28 3 -9 6 -3 6 13 1 19 -4 27 -15 27
-12 0 -14 -4 -7 -12z"/>
<path d="M22462 8105 c0 -16 2 -22 5 -12 2 9 2 23 0 30 -3 6 -5 -1 -5 -18z"/>
</g>
</svg>
