<?xml version="1.0" standalone="no"?>
<!DOCTYPE svg PUBLIC "-//W3C//DTD SVG 20010904//EN"
 "http://www.w3.org/TR/2001/REC-SVG-20010904/DTD/svg10.dtd">
<svg version="1.0" xmlns="http://www.w3.org/2000/svg"
 width="1200.000000pt" height="627.000000pt" viewBox="0 0 1200.000000 627.000000"
 preserveAspectRatio="xMidYMid meet">

<g transform="translate(0.000000,627.000000) scale(0.100000,-0.100000)"
fill="#000000" stroke="none">
<path d="M10568 5003 c7 -3 16 -2 19 1 4 3 -2 6 -13 5 -11 0 -14 -3 -6 -6z"/>
<path d="M10604 4982 c4 -6 -3 -12 -16 -15 -13 -2 -4 -3 20 -1 41 2 74 14 39
14 -8 0 -23 3 -33 7 -11 4 -15 3 -10 -5z"/>
<path d="M9428 4973 c7 -3 16 -2 19 1 4 3 -2 6 -13 5 -11 0 -14 -3 -6 -6z"/>
<path d="M9998 4963 c7 -3 16 -2 19 1 4 3 -2 6 -13 5 -11 0 -14 -3 -6 -6z"/>
<path d="M9958 4953 c7 -3 16 -2 19 1 4 3 -2 6 -13 5 -11 0 -14 -3 -6 -6z"/>
<path d="M10615 4940 c-3 -5 -11 -7 -19 -4 -7 3 -13 -2 -13 -11 0 -10 6 -14
14 -10 8 3 29 5 46 5 29 0 30 1 11 15 -23 17 -31 18 -39 5z"/>
<path d="M10830 4940 c-18 -12 -2 -12 25 0 13 6 15 9 5 9 -8 0 -22 -4 -30 -9z"/>
<path d="M10175 4930 c-8 -13 25 -13 45 0 12 8 9 10 -12 10 -15 0 -30 -4 -33
-10z"/>
<path d="M10365 4930 c-4 -6 3 -10 14 -10 25 0 27 6 6 13 -8 4 -17 2 -20 -3z"/>
<path d="M10490 4936 c0 -2 7 -7 16 -10 8 -3 12 -2 9 4 -6 10 -25 14 -25 6z"/>
<path d="M10748 4933 c7 -3 16 -2 19 1 4 3 -2 6 -13 5 -11 0 -14 -3 -6 -6z"/>
<path d="M9892 4919 c3 -8 18 -17 34 -21 19 -5 13 -5 -16 -2 -42 5 -44 4 -25
-10 11 -9 30 -16 43 -16 12 0 22 -4 22 -10 0 -11 -64 -30 -102 -30 -16 0 -28
-5 -28 -10 0 -19 28 -22 54 -5 22 15 26 15 26 3 0 -8 -17 -23 -37 -34 -21 -10
-43 -25 -49 -33 -10 -12 -16 -12 -43 -1 -37 15 -34 21 16 30 l38 8 -45 1 c-25
0 -52 -4 -60 -9 -13 -9 -12 -12 4 -25 18 -14 17 -15 -25 -15 -24 1 -55 7 -68
14 l-24 13 29 11 c25 9 26 11 7 11 -25 1 -33 21 -9 21 8 0 17 4 20 8 2 4 -20
8 -50 8 -29 0 -59 5 -66 12 -9 9 -7 12 10 12 12 0 22 5 22 11 0 7 -10 9 -27 5
l-28 -6 25 15 c24 14 22 15 -35 12 -45 -1 -59 1 -57 11 1 8 -2 11 -6 8 -5 -3
-7 -17 -4 -31 4 -23 1 -25 -29 -25 -41 0 -79 -10 -79 -20 0 -8 72 -37 110 -43
14 -2 -9 -5 -50 -7 -57 -2 -67 -4 -40 -9 33 -6 33 -7 10 -13 -48 -14 -7 -22
115 -23 124 0 149 -5 127 -27 -9 -9 -22 -9 -57 0 -57 15 -125 16 -125 1 0 -7
11 -9 29 -6 18 4 36 0 47 -9 17 -13 16 -14 -21 -8 -39 6 -39 6 -20 -11 l20
-17 -20 7 c-11 4 -28 9 -37 12 -9 3 -14 11 -12 18 7 18 -58 27 -69 9 -4 -8
-19 -14 -32 -14 -13 0 -26 -4 -29 -9 -7 -10 51 -21 118 -21 72 0 45 -19 -34
-24 -36 -3 -67 -5 -70 -6 -3 -1 -9 -2 -13 -1 -5 1 -6 -3 -2 -9 3 -6 -4 -10
-17 -11 l-23 0 23 -9 c45 -19 20 -44 -64 -66 -32 -8 -68 -13 -80 -10 -12 3
-38 -1 -58 -9 -19 -8 -48 -15 -63 -15 -24 -1 -25 -2 -10 -11 25 -14 21 -38 -8
-49 -14 -5 -25 -11 -25 -13 0 -2 30 -24 67 -48 137 -88 307 -237 452 -394 157
-172 228 -238 282 -265 69 -35 119 -76 119 -98 0 -9 9 -25 20 -37 36 -39 57
-239 25 -251 -23 -9 -32 3 -27 36 3 19 10 30 21 31 13 0 12 2 -3 8 -18 7 -18
8 -3 14 9 3 17 14 16 24 0 11 -3 13 -6 6 -2 -7 -18 -13 -34 -13 -22 0 -32 -6
-39 -26 -22 -56 -8 -84 46 -93 l39 -6 8 -205 c5 -113 9 -259 10 -324 l3 -120
39 2 c212 10 281 16 350 34 90 22 118 35 110 49 -6 9 1 13 48 23 15 4 27 13
27 21 0 9 13 18 29 21 17 4 38 15 47 25 9 11 25 19 34 19 10 0 23 7 30 15 7 8
28 17 49 21 20 3 45 12 56 19 11 6 32 15 46 18 14 4 36 16 49 27 13 11 31 20
41 20 26 0 149 52 144 60 -3 4 17 10 44 12 27 3 57 12 66 21 9 10 24 17 34 17
22 0 41 19 41 42 0 10 7 18 18 18 17 0 109 32 148 51 11 6 27 9 35 8 25 -5 59
24 59 51 0 38 15 57 33 42 15 -13 137 -6 137 8 0 14 -47 50 -66 50 -11 0 -29
7 -40 15 -10 8 -34 15 -51 15 -32 0 -33 1 -33 43 0 38 3 44 28 54 27 10 27 10
-15 18 -44 8 -58 30 -25 38 16 4 16 5 0 6 -10 0 -18 5 -18 10 0 6 -12 6 -31
-1 -39 -14 -79 5 -76 36 1 15 -4 22 -22 24 -13 2 -27 -1 -31 -8 -5 -8 -11 -6
-20 5 -10 12 -10 15 4 15 9 0 16 7 16 15 0 11 -11 15 -40 15 -34 0 -40 3 -40
20 0 11 -8 24 -17 27 -9 4 -25 15 -35 25 -21 21 -42 14 -35 -12 2 -9 -4 -22
-13 -28 -15 -9 -20 -8 -26 6 -11 25 -6 39 22 69 l24 26 -35 29 c-23 20 -35 39
-36 56 -1 17 -3 21 -6 10 -2 -10 -13 -18 -24 -18 -16 0 -19 7 -19 46 0 44 -1
46 -25 42 -23 -5 -25 -2 -25 33 0 28 -4 39 -15 39 -11 0 -15 12 -15 50 0 45
-3 51 -30 65 -18 9 -56 15 -100 15 -56 0 -70 3 -70 15 0 12 -10 15 -42 13
l-43 -3 -3 43 c-2 28 -8 42 -18 42 -17 0 -18 12 -2 28 18 18 28 15 28 -8 0
-13 7 -20 20 -20 17 0 20 7 20 41 0 36 3 40 23 39 62 -5 67 -2 67 40 0 29 4
40 15 40 9 0 15 9 15 23 0 13 5 28 12 35 9 9 1 12 -37 13 -47 1 -46 2 20 10
39 5 89 18 111 29 23 10 75 23 115 28 54 7 68 12 52 17 -23 7 -32 25 -13 25 6
0 10 13 10 29 0 25 6 30 48 45 l47 16 -40 -6 c-22 -3 -44 -10 -50 -15 -12 -12
-28 -12 -20 1 4 6 -7 8 -27 4 -27 -4 -25 -2 12 12 59 21 63 26 15 19 -39 -6
-84 11 -59 21 7 3 10 13 7 22 -3 14 -18 17 -75 19 -77 3 -108 9 -108 24 0 5
12 9 26 9 14 0 23 4 19 10 -3 6 -17 10 -30 10 -13 0 -27 -4 -30 -10 -3 -5 -19
-10 -34 -10 -16 0 -34 -7 -41 -16 -19 -22 -61 -14 -71 14 -8 21 -6 22 49 24
l57 1 -60 6 c-33 3 -61 6 -62 6 -1 0 -4 -14 -6 -30 -4 -26 -8 -30 -33 -28 -25
2 -26 1 -9 -7 22 -10 22 -10 -67 -15 -31 -1 -72 -8 -92 -15 -20 -6 -45 -8 -57
-5 -15 5 -19 4 -14 -4 3 -6 21 -11 38 -11 47 0 86 -6 94 -13 3 -4 -7 -7 -23
-7 -32 0 -82 -28 -54 -30 27 -2 -23 -19 -55 -18 -29 0 -29 0 -5 8 23 7 23 8
-9 9 -25 1 -32 5 -27 16 4 12 -1 14 -33 9 -24 -4 -41 -2 -45 5 -4 6 -21 11
-37 11 -19 0 -28 4 -23 11 3 6 20 8 38 5 17 -3 38 -1 46 4 12 7 8 11 -17 16
-18 4 -33 10 -33 15 0 13 -47 11 -72 -2 -13 -7 -24 -7 -30 -1 -16 16 46 32 84
21 18 -5 42 -8 53 -8 11 1 -1 6 -27 13 -61 15 -68 23 -24 31 59 11 56 28 -3
20 -42 -6 -50 -4 -46 7 5 11 -1 14 -25 10 -23 -3 -28 -7 -20 -17 5 -6 7 -15 3
-18 -3 -4 1 -7 10 -7 10 0 17 -5 17 -11 0 -7 -12 -9 -35 -5 -28 6 -35 4 -35
-9 0 -16 -17 -19 -44 -9 -23 9 -20 34 4 34 11 0 20 5 20 11 0 6 -6 9 -14 6
-16 -6 -36 11 -36 30 0 8 13 13 33 14 l32 1 -30 8 c-16 4 -25 8 -20 9 15 2
-26 31 -44 31 -14 0 -14 -2 -1 -11 12 -8 10 -10 -10 -6 -14 3 -36 9 -49 13
-18 5 -23 4 -19 -7z m-414 -70 c-30 -17 0 -37 48 -31 25 2 44 0 48 -7 8 -12 8
-12 -51 -15 -24 -1 -43 2 -43 7 0 5 -9 7 -19 4 -10 -2 -25 -1 -32 4 -11 7 -11
9 -1 9 7 0 11 4 7 9 -6 11 22 30 45 30 12 0 11 -2 -2 -10z m122 -78 c0 -14
-29 -22 -57 -15 -18 5 -21 9 -11 15 17 11 68 11 68 0z m353 2 c-7 -2 -19 -2
-25 0 -7 3 -2 5 12 5 14 0 19 -2 13 -5z m-446 -9 c-3 -3 -12 -4 -19 -1 -8 3
-5 6 6 6 11 1 17 -2 13 -5z m1129 -18 c1 -17 -5 -26 -20 -30 -33 -9 -76 -7
-76 3 0 5 -14 12 -31 16 -44 10 -30 16 47 21 37 2 70 6 72 9 3 3 6 5 6 5 1 0
2 -11 2 -24z m254 14 c11 -7 8 -9 -15 -8 -16 1 -50 -2 -75 -5 -36 -5 -38 -5
-12 2 18 5 36 11 39 15 9 9 46 7 63 -4z m-1467 -7 c-7 -2 -19 -2 -25 0 -7 3
-2 5 12 5 14 0 19 -2 13 -5z m645 0 c-10 -2 -26 -2 -35 0 -10 3 -2 5 17 5 19
0 27 -2 18 -5z m-91 -18 c0 -8 -6 -15 -12 -15 -6 0 -12 7 -12 15 0 8 6 15 12
15 6 0 12 -7 12 -15z m154 -4 c-8 -5 -20 -7 -28 -4 -21 8 -15 13 15 13 20 0
23 -3 13 -9z m-426 -19 c-2 -3 0 -11 6 -19 9 -10 6 -13 -14 -13 -29 0 -42 14
-33 35 3 8 13 11 26 8 11 -3 18 -8 15 -11z m162 2 c-3 -3 -12 -4 -19 -1 -8 3
-5 6 6 6 11 1 17 -2 13 -5z m322 -14 c20 0 8 -10 -17 -15 -11 -2 -27 4 -34 12
-11 15 -10 16 12 10 14 -4 31 -7 39 -7z m-122 -11 c-14 -8 -22 -8 -30 0 -8 8
-3 11 19 11 25 -1 27 -2 11 -11z m708 1 c4 -6 -5 -10 -20 -10 -15 0 -24 4 -20
10 3 6 12 10 20 10 8 0 17 -4 20 -10z m185 -10 c0 -5 -5 -10 -11 -10 -5 0 -7
5 -4 10 3 6 8 10 11 10 2 0 4 -4 4 -10z m-1385 -10 c3 -5 -1 -10 -9 -10 -8 0
-18 5 -21 10 -3 6 1 10 9 10 8 0 18 -4 21 -10z m704 1 c39 -25 -42 -77 -95
-62 l-29 8 30 8 c26 7 27 9 10 15 -16 6 -13 9 17 15 21 4 35 11 32 16 -7 12
17 11 35 0z m761 -41 c0 -29 -4 -40 -15 -40 -11 0 -15 11 -15 40 0 29 4 40 15
40 11 0 15 -11 15 -40z m-990 11 c0 -16 -20 -23 -33 -13 -7 5 -21 12 -32 15
-11 2 -1 5 23 6 23 0 42 -3 42 -8z m-618 -23 c-9 -9 -15 -9 -24 0 -9 9 -7 12
12 12 19 0 21 -3 12 -12z m551 -2 c8 -21 -2 -26 -47 -26 -30 0 -37 3 -26 10 8
5 26 10 40 11 23 0 23 1 5 9 -19 8 -19 9 1 9 12 1 24 -5 27 -13z m-605 -5 c20
-12 -31 -23 -65 -14 l-28 7 35 7 c19 3 37 7 40 8 3 0 11 -3 18 -8z m57 -31 c3
-5 -3 -10 -13 -10 -11 0 -35 -3 -53 -6 -32 -5 -33 -5 -15 10 22 18 72 21 81 6z
m62 -66 c-3 -3 -12 -4 -19 -1 -8 3 -5 6 6 6 11 1 17 -2 13 -5z m1223 -33 c0
-6 -4 -12 -9 -15 -13 -8 -42 4 -35 15 7 12 44 12 44 0z m-40 -45 c0 -2 -11 -6
-25 -8 -13 -3 -22 -1 -19 3 5 9 44 13 44 5z m-127 -253 c-7 -2 -19 -2 -25 0
-7 3 -2 5 12 5 14 0 19 -2 13 -5z m4 -49 c-3 -3 -12 -4 -19 -1 -8 3 -5 6 6 6
11 1 17 -2 13 -5z m240 -340 c-3 -3 -12 -4 -19 -1 -8 3 -5 6 6 6 11 1 17 -2
13 -5z m350 -170 c-3 -3 -12 -4 -19 -1 -8 3 -5 6 6 6 11 1 17 -2 13 -5z m213
-139 c0 -8 -7 -15 -16 -15 -14 0 -14 3 -4 15 7 8 14 15 16 15 2 0 4 -7 4 -15z"/>
<path d="M10568 4733 c6 -2 18 -2 25 0 6 3 1 5 -13 5 -14 0 -19 -2 -12 -5z"/>
<path d="M9578 4913 c7 -3 16 -2 19 1 4 3 -2 6 -13 5 -11 0 -14 -3 -6 -6z"/>
<path d="M10348 4903 c-27 -2 -48 -9 -48 -15 0 -12 90 -1 105 13 6 6 6 8 0 7
-6 -1 -31 -3 -57 -5z"/>
<path d="M10650 4900 c-8 -5 -11 -12 -7 -16 4 -4 13 -2 19 4 15 15 7 24 -12
12z"/>
<path d="M10733 4903 c9 -2 23 -2 30 0 6 3 -1 5 -18 5 -16 0 -22 -2 -12 -5z"/>
<path d="M10958 4903 c7 -3 16 -2 19 1 4 3 -2 6 -13 5 -11 0 -14 -3 -6 -6z"/>
<path d="M10185 4890 c-4 -6 8 -10 30 -10 22 0 34 4 30 10 -3 6 -17 10 -30 10
-13 0 -27 -4 -30 -10z"/>
<path d="M10570 4870 c0 -5 7 -10 15 -10 8 0 15 5 15 10 0 6 -7 10 -15 10 -8
0 -15 -4 -15 -10z"/>
<path d="M10787 4873 c-15 -2 -25 -9 -22 -14 9 -13 37 -10 59 6 21 16 18 16
-37 8z"/>
<path d="M11148 4873 c7 -3 16 -2 19 1 4 3 -2 6 -13 5 -11 0 -14 -3 -6 -6z"/>
<path d="M10984 4855 c34 -18 52 -19 62 -4 5 9 -1 10 -20 5 -15 -4 -26 -2 -26
4 0 5 -10 10 -22 10 -21 0 -21 -1 6 -15z"/>
<path d="M10290 4850 c0 -5 6 -10 14 -10 8 0 18 5 21 10 3 6 -3 10 -14 10 -12
0 -21 -4 -21 -10z"/>
<path d="M10408 4833 c7 -3 16 -2 19 1 4 3 -2 6 -13 5 -11 0 -14 -3 -6 -6z"/>
<path d="M10890 4830 c-12 -8 -11 -10 7 -10 12 0 23 -6 26 -12 2 -7 8 -10 12
-6 8 7 -12 38 -24 38 -3 0 -13 -5 -21 -10z"/>
<path d="M10546 4821 c-19 -7 -19 -8 1 -13 14 -4 24 0 27 8 6 15 1 16 -28 5z"/>
<path d="M8868 4813 c6 -2 18 -2 25 0 6 3 1 5 -13 5 -14 0 -19 -2 -12 -5z"/>
<path d="M10495 4811 c-3 -5 -1 -12 4 -15 5 -3 11 1 15 9 6 16 -9 21 -19 6z"/>
<path d="M10998 4803 c7 -3 16 -2 19 1 4 3 -2 6 -13 5 -11 0 -14 -3 -6 -6z"/>
<path d="M8805 4784 l-30 -14 35 5 c19 3 39 10 44 15 15 15 -14 12 -49 -6z"/>
<path d="M10298 4763 c6 -2 18 -2 25 0 6 3 1 5 -13 5 -14 0 -19 -2 -12 -5z"/>
<path d="M8810 4753 c8 -2 25 -9 36 -15 24 -11 55 -8 55 7 0 5 -5 11 -13 13
-9 2 -8 0 2 -7 12 -9 11 -11 -8 -11 -13 0 -20 4 -17 10 4 6 -9 10 -32 9 -21 0
-31 -3 -23 -6z"/>
<path d="M9288 4748 c5 -5 16 -8 23 -6 8 3 3 7 -10 11 -17 4 -21 3 -13 -5z"/>
<path d="M8698 4743 c7 -3 16 -2 19 1 4 3 -2 6 -13 5 -11 0 -14 -3 -6 -6z"/>
<path d="M8768 4743 c22 -9 2 -23 -32 -23 -30 0 -33 -2 -28 -26 3 -17 7 -22
12 -14 7 12 25 11 122 -6 25 -4 43 -1 57 8 18 13 14 14 -39 10 -40 -3 -60 -1
-60 7 0 6 5 11 12 11 6 0 3 9 -7 20 -10 11 -25 20 -34 19 -10 0 -12 -2 -3 -6z"/>
<path d="M11138 4713 c7 -3 16 -2 19 1 4 3 -2 6 -13 5 -11 0 -14 -3 -6 -6z"/>
<path d="M8555 4670 c3 -6 -1 -13 -10 -17 -10 -3 -20 -1 -24 5 -5 8 -17 9 -45
1 -51 -14 -40 -23 79 -64 69 -24 103 -32 114 -25 11 6 12 9 3 10 -7 0 -11 4
-7 9 3 6 -11 13 -32 17 -49 9 -58 14 -42 25 17 10 19 31 4 41 -15 11 -47 9
-40 -2z"/>
<path d="M7285 4660 c3 -6 -11 -6 -490 -14 -365 -6 -389 -7 -495 -25 -36 -6
-119 -17 -185 -26 -66 -9 -138 -19 -160 -22 -23 -3 -50 -16 -64 -29 l-24 -24
27 0 c14 0 26 -4 26 -10 0 -5 -7 -7 -15 -4 -8 3 -20 2 -27 -2 -7 -5 -34 -9
-60 -10 -25 -2 -56 -8 -68 -14 -12 -7 -63 -22 -114 -35 -79 -20 -85 -24 -49
-24 53 -1 65 -18 18 -27 -19 -3 -38 -10 -41 -15 -3 -5 -16 -9 -30 -9 -14 0
-22 -4 -19 -10 4 -6 -18 -11 -57 -12 -95 -2 -112 -4 -135 -16 -11 -6 -23 -9
-26 -5 -4 3 -17 -1 -30 -10 -13 -9 -40 -19 -60 -22 -20 -4 -42 -13 -48 -21 -8
-10 -22 -12 -44 -8 -19 3 -35 1 -39 -5 -4 -5 -28 -13 -54 -16 -26 -4 -61 -13
-79 -21 -17 -8 -38 -14 -47 -14 -9 0 -16 -4 -16 -10 0 -5 -7 -10 -15 -10 -8 0
-23 -4 -33 -9 -62 -34 -152 -71 -170 -71 -12 0 -22 -6 -22 -14 0 -7 -14 -19
-31 -26 -17 -7 -36 -18 -42 -24 -7 -6 -34 -22 -60 -35 -33 -17 -44 -27 -35
-33 10 -6 10 -8 -2 -8 -14 0 -122 -13 -250 -29 -30 -4 235 -10 590 -13 603 -6
943 -16 1256 -37 84 -6 148 -6 180 1 64 13 180 69 224 109 19 17 51 45 70 62
19 17 78 70 130 117 254 231 474 383 690 477 22 10 19 11 -27 10 -28 -1 -50
-4 -48 -7z m-1455 -227 c-14 -2 -42 -8 -62 -15 -20 -6 -45 -7 -55 -3 -15 7
-13 9 12 15 17 4 53 8 80 7 28 0 39 -1 25 -4z"/>
<path d="M8765 4654 c-11 -8 -27 -13 -37 -11 -18 5 -29 -19 -32 -70 -1 -25 3
-34 19 -39 11 -4 62 -26 114 -50 52 -25 96 -42 100 -39 3 3 -1 10 -9 15 -17
11 -6 25 25 33 11 3 -4 5 -33 6 -29 0 -69 8 -89 16 -19 8 -47 16 -62 16 -23 2
-24 2 -3 6 12 2 22 9 22 14 0 5 6 9 13 9 8 0 14 6 14 13 0 8 -13 11 -41 8 -35
-3 -39 -1 -29 11 9 11 10 17 1 26 -8 8 -4 13 16 18 14 3 26 10 26 14 0 5 8 11
18 13 12 3 13 5 2 6 -8 0 -24 -6 -35 -15z"/>
<path d="M8923 4663 c9 -2 23 -2 30 0 6 3 -1 5 -18 5 -16 0 -22 -2 -12 -5z"/>
<path d="M9228 4653 c7 -3 16 -2 19 1 4 3 -2 6 -13 5 -11 0 -14 -3 -6 -6z"/>
<path d="M8855 4640 c-3 -5 1 -10 9 -10 8 0 18 5 21 10 3 6 -1 10 -9 10 -8 0
-18 -4 -21 -10z"/>
<path d="M8765 4620 c-8 -13 5 -13 25 0 13 8 13 10 -2 10 -9 0 -20 -4 -23 -10z"/>
<path d="M9100 4605 c14 -8 34 -14 45 -14 15 1 13 4 -10 14 -40 19 -67 18 -35
0z"/>
<path d="M7800 4604 c-25 -2 -76 -9 -115 -15 -311 -45 -649 -266 -938 -613
-105 -125 -162 -210 -152 -226 4 -7 36 -10 81 -9 41 1 77 -1 81 -4 3 -4 -9 -7
-28 -7 -32 0 -75 -17 -54 -22 6 -1 -28 -5 -75 -8 -82 -6 -81 -6 53 -9 75 -2
142 -5 147 -6 6 -1 22 -3 38 -4 21 -1 24 -3 12 -11 -13 -8 -12 -10 3 -10 10 0
28 6 40 14 16 10 88 17 267 24 163 7 270 16 320 27 45 11 132 19 215 21 481
13 1207 53 1199 66 -3 4 -25 5 -49 1 -31 -4 -45 -2 -45 6 0 6 12 11 28 12 19
1 15 4 -17 10 -65 13 -63 20 5 15 32 -2 42 -1 22 1 l-37 4 6 164 6 164 -35 31
c-33 29 -35 34 -30 80 2 28 1 50 -4 51 -42 3 -71 19 -38 20 10 0 -3 9 -31 20
-27 11 -63 26 -80 34 -16 7 -33 11 -39 8 -5 -4 -6 -1 -1 7 6 10 4 12 -8 7 -10
-3 -17 -3 -17 2 0 5 -12 12 -26 15 -15 4 -24 9 -22 12 3 2 43 -10 89 -27 46
-16 107 -39 136 -49 49 -18 112 -48 283 -137 41 -22 80 -49 86 -61 14 -29 29
-42 21 -19 -4 9 -2 17 3 17 13 0 201 -143 235 -179 36 -39 41 -97 10 -132 -14
-15 -16 -21 -5 -17 8 2 23 19 33 36 16 27 17 37 7 69 -16 49 -45 80 -153 164
-198 154 -499 302 -781 384 -75 21 -208 47 -361 70 -57 8 -232 14 -285 9z
m165 -34 c4 -6 -16 -10 -52 -10 -41 0 -54 3 -43 10 20 13 87 13 95 0z m-178
-6 c-3 -3 -12 -4 -19 -1 -8 3 -5 6 6 6 11 1 17 -2 13 -5z m670 -80 c-3 -3 -12
-4 -19 -1 -8 3 -5 6 6 6 11 1 17 -2 13 -5z m-1064 -475 c66 -11 129 -25 140
-30 23 -13 54 -79 63 -135 7 -49 0 -53 -86 -47 -30 2 -171 -1 -314 -7 -142 -6
-260 -10 -262 -8 -2 3 14 39 35 82 42 83 83 129 134 151 46 20 152 18 290 -6z
m814 -161 c-3 -8 -6 -5 -6 6 -1 11 2 17 5 13 3 -3 4 -12 1 -19z m-437 -68 c-8
-5 -33 -9 -55 -8 l-40 1 40 7 c65 12 73 12 55 0z m278 -7 c-10 -2 -26 -2 -35
0 -10 3 -2 5 17 5 19 0 27 -2 18 -5z m-990 -70 c-10 -2 -28 -2 -40 0 -13 2 -5
4 17 4 22 1 32 -1 23 -4z"/>
<path d="M8973 4603 c9 -2 25 -2 35 0 9 3 1 5 -18 5 -19 0 -27 -2 -17 -5z"/>
<path d="M8830 4580 c-11 -7 -7 -10 18 -10 20 0 31 4 27 10 -8 13 -26 13 -45
0z"/>
<path d="M8880 4560 c-18 -12 -2 -12 25 0 13 6 15 9 5 9 -8 0 -22 -4 -30 -9z"/>
<path d="M9110 4560 l-55 -7 55 -1 c30 0 64 3 75 8 l20 9 -20 -1 c-11 -1 -45
-4 -75 -8z"/>
<path d="M8878 4513 c7 -3 16 -2 19 1 4 3 -2 6 -13 5 -11 0 -14 -3 -6 -6z"/>
<path d="M7170 4433 c-144 -94 -330 -260 -484 -433 -92 -103 -237 -310 -217
-310 4 0 12 10 18 23 36 77 185 259 333 407 138 139 181 177 287 254 48 36 97
72 108 80 37 28 11 15 -45 -21z"/>
<path d="M5505 4410 c-13 -6 -15 -9 -5 -9 8 0 22 4 30 9 18 12 2 12 -25 0z"/>
<path d="M10800 4365 c0 -8 7 -15 16 -15 14 0 14 3 4 15 -7 8 -14 15 -16 15
-2 0 -4 -7 -4 -15z"/>
<path d="M4384 4336 c-3 -7 -4 -19 -2 -27 2 -8 -7 -15 -19 -17 -13 -2 -27 -16
-35 -33 -7 -16 -16 -29 -20 -29 -5 0 -8 -7 -8 -15 0 -8 -9 -15 -20 -15 -11 0
-19 -6 -17 -12 1 -7 -5 -13 -13 -13 -19 0 -26 55 -8 66 9 6 5 9 -12 9 -14 0
-35 3 -46 6 -16 4 -23 0 -27 -16 -6 -23 -27 -19 -27 6 0 29 -21 13 -40 -31
-11 -25 -24 -45 -30 -45 -7 0 -10 -6 -7 -12 6 -18 -12 -50 -24 -43 -5 4 -9 15
-9 26 0 10 -5 19 -12 19 -6 0 -8 3 -5 6 8 8 -24 64 -35 64 -4 0 -8 7 -8 15 0
8 -3 15 -7 15 -12 -1 -43 -26 -43 -36 -1 -17 -38 -54 -55 -54 -9 0 -27 11 -41
25 -32 32 -37 31 -67 -5 -29 -34 -39 -37 -57 -15 -15 19 -40 20 -40 2 0 -8 -9
-22 -20 -32 -11 -10 -20 -26 -20 -35 0 -16 -42 -70 -55 -70 -4 0 -3 9 0 20 4
11 2 20 -4 20 -6 0 -20 9 -31 20 -28 28 -120 26 -120 -2 0 -5 -10 -24 -22 -41
-13 -18 -22 -38 -20 -44 2 -7 -6 -13 -18 -13 -11 0 -20 6 -20 14 0 7 -7 19
-15 26 -13 11 -18 10 -31 -8 -14 -21 -42 -32 -30 -13 3 5 -1 12 -10 15 -8 3
-13 10 -9 15 3 5 1 12 -5 16 -5 3 -10 15 -10 26 0 20 -8 24 -26 11 -10 -7 -44
-74 -44 -87 0 -3 -12 -22 -26 -41 -25 -32 -54 -45 -54 -24 0 6 -8 10 -19 10
-14 0 -18 6 -15 29 3 23 -1 30 -19 35 -32 8 -39 7 -32 -4 3 -5 2 -10 -3 -10
-5 0 -12 -9 -15 -20 -7 -26 -27 -26 -34 0 -7 25 -39 22 -35 -3 2 -11 -6 -19
-23 -23 -16 -4 -24 -12 -21 -19 3 -8 -5 -16 -20 -19 -20 -5 -30 -18 -22 -28 1
-2 -6 -13 -17 -25 -13 -15 -23 -19 -34 -14 -8 5 -21 5 -30 -1 -23 -14 -70 7
-81 37 -13 34 -39 32 -51 -5 -13 -35 -25 -38 -34 -10 -3 11 -12 20 -20 20 -7
0 -15 9 -18 20 -8 32 -32 34 -61 5 -26 -26 -26 -26 -56 -8 l-31 18 -33 -37
c-19 -20 -31 -40 -27 -44 3 -4 -5 -4 -18 -1 -16 4 -32 -1 -48 -13 -24 -19 -26
-19 -186 -5 -40 4 -90 1 -123 -6 -43 -10 -60 -10 -75 -1 -10 7 -35 12 -54 12
-47 0 -105 25 -105 44 0 9 -4 16 -10 16 -5 0 -10 -9 -10 -21 0 -20 -3 -20 -52
-13 -29 5 -67 8 -85 9 -17 0 -31 5 -30 10 1 6 -11 11 -26 13 -23 3 -26 6 -17
17 9 11 7 15 -14 21 -15 3 -41 4 -58 2 -17 -3 -48 -1 -67 3 -20 5 -67 12 -106
15 -38 3 -73 8 -78 11 -5 3 -34 9 -65 13 -32 4 -93 17 -137 28 -118 31 -305
44 -457 32 -137 -10 -274 -2 -367 23 -30 8 -60 13 -67 10 -7 -2 -22 0 -33 7
l-21 11 0 -2046 0 -2045 6000 0 6000 0 0 911 0 911 -42 -7 c-24 -3 -110 -18
-193 -31 -218 -37 -496 -82 -605 -99 -234 -37 -415 -65 -535 -84 -71 -12 -204
-32 -295 -46 -281 -43 -350 -54 -505 -79 -540 -88 -653 -106 -679 -106 -29 0
-28 1 17 31 48 32 60 34 367 84 85 13 252 40 370 59 118 19 334 53 480 76 146
22 290 45 320 50 30 6 129 21 220 35 91 14 208 33 260 41 52 8 136 21 185 29
50 8 155 25 235 39 80 13 202 32 273 42 70 10 127 22 127 27 0 6 -20 7 -47 4
-106 -13 -535 -78 -633 -96 -58 -10 -114 -19 -125 -18 -44 1 -201 -26 -222
-39 -12 -8 -28 -14 -35 -13 -7 0 -4 4 7 9 34 15 0 11 -245 -24 -129 -19 -300
-44 -380 -56 -80 -11 -228 -34 -330 -50 -355 -57 -671 -101 -693 -98 -20 3
-18 5 14 25 35 22 140 43 434 88 61 9 151 22 200 30 50 8 187 28 305 45 524
75 634 92 775 114 83 13 218 34 300 46 83 12 182 28 220 35 l70 14 -124 -4
c-71 -3 -127 -9 -131 -15 -3 -5 -39 -13 -80 -16 -40 -3 -77 -7 -82 -10 -9 -6
-168 -21 -288 -28 -41 -2 -86 -9 -100 -15 -14 -6 -74 -15 -135 -21 -60 -6
-175 -17 -255 -25 -80 -8 -161 -17 -181 -20 -21 -4 -40 -2 -43 4 -6 10 -18 9
-238 -9 -249 -21 -359 -33 -364 -42 -3 -4 -10 -8 -17 -8 -8 0 -8 3 1 12 7 7
69 20 140 30 l127 17 -100 -4 c-55 -3 -112 -6 -127 -9 -16 -2 -26 0 -25 6 1 6
-14 16 -33 23 -32 11 -33 13 -13 19 62 20 154 171 192 316 11 41 29 98 40 125
11 28 22 58 25 68 4 13 16 17 49 17 24 0 167 7 318 15 151 8 355 20 454 25 99
5 248 14 330 20 146 10 602 33 898 46 l147 7 0 59 c0 57 -1 59 -22 51 -13 -4
-99 -7 -193 -5 -149 2 -291 -9 -319 -26 -5 -2 2 -11 15 -18 18 -10 20 -13 7
-14 -38 0 -173 22 -178 30 -3 5 -14 9 -25 8 -11 0 -54 7 -95 17 -95 21 -236
22 -320 2 -47 -11 -96 -14 -175 -10 -121 5 -147 5 -350 1 -172 -4 -392 -34
-419 -57 -18 -15 -19 -15 -12 27 l6 43 -37 -26 c-21 -14 -40 -25 -44 -25 -3 0
-9 64 -12 143 -6 155 -20 224 -69 325 -34 72 -126 175 -173 192 -28 11 -29 13
-12 25 16 11 14 14 -24 29 -30 12 -55 15 -83 10 -197 -32 -348 -285 -440 -738
-15 -71 -29 -132 -31 -136 -2 -4 -46 -10 -97 -14 -51 -4 -230 -22 -398 -41
-168 -19 -308 -35 -312 -35 -4 0 2 26 13 57 11 32 18 64 17 73 -2 8 -14 -18
-27 -58 -22 -66 -27 -72 -55 -77 -46 -8 -269 -30 -800 -80 -263 -25 -506 -49
-540 -54 -33 -5 -62 -8 -63 -7 -2 1 2 67 8 147 16 231 -10 411 -86 589 -84
196 -223 341 -390 406 -70 27 -266 27 -345 0 -355 -122 -630 -570 -730 -1192
l-11 -71 -82 -7 c-108 -8 -284 -6 -322 4 -20 6 -10 7 30 3 33 -2 71 0 85 6
l25 11 -25 -2 c-53 -3 -113 2 -106 9 4 4 28 6 54 6 l47 -1 -50 8 c-27 4 -166
8 -308 9 -142 0 -306 3 -365 6 -59 3 -138 2 -177 -3 l-70 -9 85 -3 c47 -2 74
-5 60 -9 -16 -3 5 -8 55 -12 63 -4 47 -5 -70 -6 -82 0 -163 2 -179 6 -39 8
-47 30 -9 23 15 -2 25 -2 22 2 -4 4 -21 8 -38 8 -24 1 -41 13 -83 62 -104 119
-203 212 -249 234 -52 23 -89 28 -554 67 -165 14 -309 28 -320 31 -11 2 -92
13 -179 23 -185 22 -200 19 -211 -50 -4 -21 -10 -37 -13 -35 -4 2 -7 -6 -8
-17 -1 -12 -2 -48 -4 -79 -2 -38 -7 -58 -15 -58 -16 0 -30 33 -16 38 6 2 -1
15 -14 30 -31 33 -31 39 0 84 46 68 57 202 28 335 -14 59 -14 75 -3 87 7 9 19
16 27 16 8 0 11 4 8 10 -3 5 5 43 18 82 23 70 32 116 42 220 10 102 75 222
191 352 66 73 123 106 269 154 50 17 126 46 171 65 143 62 354 119 599 162
422 74 440 79 650 202 72 42 135 78 140 80 40 17 -221 -153 -280 -182 -17 -8
-23 -15 -15 -16 26 -3 41 2 58 17 26 24 102 76 162 114 71 44 110 76 103 84
-4 3 0 7 8 8 8 0 19 2 24 2 6 1 28 13 50 27 22 14 55 34 73 44 48 29 44 34
-35 50 -24 5 -33 12 -33 26 0 43 -34 77 -46 45z m-2947 -422 c-3 -3 -12 -4
-19 -1 -8 3 -5 6 6 6 11 1 17 -2 13 -5z m-80 -10 c-3 -3 -12 -4 -19 -1 -8 3
-5 6 6 6 11 1 17 -2 13 -5z m101 -25 c11 -18 9 -19 -40 -18 -29 1 -64 5 -78
10 -19 7 -16 7 15 3 27 -3 35 -2 26 5 -11 7 -10 10 5 13 39 9 61 5 72 -13z
m381 -65 c9 -8 -75 -2 -94 6 -12 5 1 6 35 3 30 -3 57 -7 59 -9z m7728 -640
c-3 -3 -12 -4 -19 -1 -8 3 -5 6 6 6 11 1 17 -2 13 -5z m-7293 -106 c-8 -54
-21 -69 -30 -34 -4 17 -1 35 10 51 23 35 27 31 20 -17z m3500 -563 c-4 -8 -10
-12 -15 -9 -11 6 -2 24 11 24 5 0 7 -7 4 -15z m5803 -31 c-3 -3 -12 -4 -19 -1
-8 3 -5 6 6 6 11 1 17 -2 13 -5z m-2257 -50 c0 -14 -12 -19 -23 -8 -9 9 4 35
14 28 5 -3 9 -12 9 -20z m747 -60 c-3 -3 -12 -4 -19 -1 -8 3 -5 6 6 6 11 1 17
-2 13 -5z m-689 -75 c-3 -8 -7 -3 -11 10 -4 17 -3 21 5 13 5 -5 8 -16 6 -23z
m-7029 -255 c9 -8 -45 -2 -64 6 -14 7 -8 8 20 3 22 -3 42 -7 44 -9z m3611 -16
c0 -19 -2 -20 -10 -8 -13 19 -13 30 0 30 6 0 10 -10 10 -22z m-1723 -14 c-3
-3 -12 -4 -19 -1 -8 3 -5 6 6 6 11 1 17 -2 13 -5z m286 -11 c-24 -2 -62 -2
-85 0 -24 2 -5 4 42 4 47 0 66 -2 43 -4z m170 0 c-18 -2 -48 -2 -65 0 -18 2
-4 4 32 4 36 0 50 -2 33 -4z m4102 -21 c30 -5 45 -16 62 -42 55 -86 84 -112
150 -135 l36 -12 -89 -13 c-70 -10 -116 -10 -219 -1 -158 14 -405 55 -414 69
-6 10 -184 47 -283 58 -32 4 -58 10 -58 13 0 9 708 80 745 75 17 -2 48 -8 70
-12z m-4417 1 c-16 -2 -40 -2 -55 0 -16 2 -3 4 27 4 30 0 43 -2 28 -4z m262
-3 c0 -9 -135 -11 -178 -2 -21 4 7 8 73 8 58 1 105 -2 105 -6z m4822 -60 c56
-8 68 -16 38 -25 -29 -9 -68 2 -99 27 -19 16 -21 19 -6 13 11 -4 41 -11 67
-15z m-6695 -34 c13 -11 23 -22 23 -25 0 -3 -33 -7 -73 -8 -39 -2 -178 -10
-307 -18 -303 -20 -594 -34 -599 -29 -13 12 32 17 286 30 153 8 292 18 309 24
17 5 58 10 92 10 34 0 62 3 62 8 0 4 35 6 77 6 44 -1 67 1 53 5 -17 5 -21 9
-12 15 8 4 24 0 40 -10 l27 -17 -19 29 c-21 32 -20 31 41 -20z m967 -81 c-7
-16 -24 -21 -24 -6 0 8 7 13 27 20 1 1 0 -6 -3 -14z m297 -33 c-7 -2 -18 1
-23 6 -8 8 -4 9 13 5 13 -4 18 -8 10 -11z m-391 -22 c0 -5 -8 -10 -17 -10 -15
0 -16 2 -3 10 19 12 20 12 20 0z m-653 -6 c-3 -3 -12 -4 -19 -1 -8 3 -5 6 6 6
11 1 17 -2 13 -5z m7008 -9 c-23 -8 -83 -10 -79 -3 3 4 24 8 47 7 23 0 38 -2
32 -4z m-82 -32 c-7 -2 -21 -2 -30 0 -10 3 -4 5 12 5 17 0 24 -2 18 -5z m737
-13 c-8 -5 -22 -9 -30 -9 -10 0 -8 3 5 9 27 12 43 12 25 0z m-223 -36 c-3 -3
-12 -4 -19 -1 -8 3 -5 6 6 6 11 1 17 -2 13 -5z m-4557 -115 c25 -10 59 -26 75
-33 l30 -15 -28 0 c-35 -1 -111 37 -157 79 l-35 32 35 -22 c19 -12 55 -30 80
-41z"/>
<path d="M1418 3873 c7 -3 16 -2 19 1 4 3 -2 6 -13 5 -11 0 -14 -3 -6 -6z"/>
<path d="M8888 4280 c2 -17 8 -33 13 -36 5 -3 9 -16 9 -30 0 -13 5 -24 10 -24
6 0 10 -10 11 -22 0 -13 3 -17 6 -10 2 7 -2 33 -11 58 -9 26 -14 50 -11 54 2
4 -4 15 -14 24 -17 15 -17 14 -13 -14z"/>
<path d="M4571 4282 c-10 -20 -6 -32 12 -32 6 0 7 3 4 7 -4 3 -2 12 4 19 6 8
7 14 0 18 -6 4 -15 -2 -20 -12z"/>
<path d="M4200 4270 c0 -5 7 -10 16 -10 8 0 12 5 9 10 -3 6 -10 10 -16 10 -5
0 -9 -4 -9 -10z"/>
<path d="M4505 4270 c3 -5 8 -10 11 -10 2 0 4 5 4 10 0 6 -5 10 -11 10 -5 0
-7 -4 -4 -10z"/>
<path d="M10878 4226 l-4 -33 43 15 c24 9 43 19 43 22 0 6 -59 30 -72 30 -3 0
-8 -15 -10 -34z"/>
<path d="M9101 4150 c0 -8 6 -26 15 -40 l15 -25 -7 25 c-3 14 -10 32 -15 40
-7 13 -8 13 -8 0z"/>
<path d="M8951 4094 c0 -11 3 -14 6 -6 3 7 2 16 -1 19 -3 4 -6 -2 -5 -13z"/>
<path d="M9130 4074 c0 -13 52 -146 56 -142 1 2 -8 34 -21 72 -23 65 -35 90
-35 70z"/>
<path d="M2980 4056 c0 -9 7 -16 16 -16 17 0 14 22 -4 28 -7 2 -12 -3 -12 -12z"/>
<path d="M8961 4044 c0 -11 3 -14 6 -6 3 7 2 16 -1 19 -3 4 -6 -2 -5 -13z"/>
<path d="M10960 4004 c0 -15 26 -19 34 -5 3 5 -3 11 -14 14 -13 3 -20 0 -20
-9z"/>
<path d="M8982 3955 c0 -16 2 -22 5 -12 2 9 2 23 0 30 -3 6 -5 -1 -5 -18z"/>
<path d="M1918 3963 c12 -2 32 -2 45 0 12 2 2 4 -23 4 -25 0 -35 -2 -22 -4z"/>
<path d="M2088 3963 c7 -3 16 -2 19 1 4 3 -2 6 -13 5 -11 0 -14 -3 -6 -6z"/>
<path d="M1550 3940 c-8 -5 -25 -10 -38 -10 -14 0 -21 -4 -17 -11 4 -6 13 -8
20 -5 7 2 25 -2 40 -10 27 -14 50 -10 40 7 -4 5 0 9 8 9 8 0 17 7 21 15 4 11
-2 15 -27 15 -18 0 -39 -5 -47 -10z"/>
<path d="M8990 3891 c0 -12 5 -21 10 -21 6 0 10 6 10 14 0 8 -4 18 -10 21 -5
3 -10 -3 -10 -14z"/>
<path d="M9192 3895 c0 -11 3 -29 8 -40 11 -25 11 1 0 35 -6 20 -8 21 -8 5z"/>
<path d="M6186 3833 c-30 -62 -47 -103 -41 -103 8 0 66 121 63 132 -2 5 -12
-8 -22 -29z"/>
<path d="M8945 3840 c-16 -7 -17 -9 -3 -9 9 -1 20 4 23 9 7 11 7 11 -20 0z"/>
<path d="M8996 3835 c4 -8 10 -15 15 -15 5 0 9 7 9 15 0 8 -7 15 -15 15 -9 0
-12 -6 -9 -15z"/>
<path d="M7528 3703 c6 -2 18 -2 25 0 6 3 1 5 -13 5 -14 0 -19 -2 -12 -5z"/>
<path d="M6761 3654 c0 -11 3 -14 6 -6 3 7 2 16 -1 19 -3 4 -6 -2 -5 -13z"/>
<path d="M8272 3550 c0 -14 2 -19 5 -12 2 6 2 18 0 25 -3 6 -5 1 -5 -13z"/>
<path d="M5009 3470 c-74 -38 -84 -40 -270 -60 -370 -40 -528 -65 -687 -106
-95 -25 -311 -109 -426 -166 l-59 -30 -46 25 c-59 32 -145 52 -296 71 -262 33
-369 40 -585 40 -203 0 -229 -2 -264 -20 -45 -22 -66 -48 -51 -63 6 -6 73 -20
150 -31 196 -29 213 -35 251 -92 17 -27 39 -57 49 -68 17 -19 18 -18 54 35 20
30 47 59 60 65 17 8 129 11 350 9 l326 -2 125 62 125 63 70 -40 c135 -77 190
-95 300 -99 55 -2 192 0 305 5 l205 9 -300 1 -300 2 -65 31 c-73 34 -150 81
-150 90 0 23 43 14 124 -23 l91 -43 220 1 c202 2 488 17 554 30 23 5 27 10 23
30 -5 27 5 30 42 13 21 -10 31 -7 80 27 31 22 54 44 52 50 -6 15 35 53 50 48
5 -3 29 12 52 32 l43 36 94 -7 c52 -4 97 -11 100 -16 8 -12 -193 -213 -232
-233 -18 -9 -56 -23 -85 -31 -52 -15 -52 -15 -10 -10 77 10 132 44 232 144 53
53 106 110 118 127 l22 32 -43 6 c-129 18 -282 27 -354 22 -46 -4 -83 -5 -83
-2 0 3 30 21 68 40 37 19 63 35 57 35 -5 0 -44 -18 -86 -39z m101 -80 c0 -13
-5 -18 -15 -14 -16 7 -19 17 -8 27 12 13 23 7 23 -13z m-90 -24 c0 -3 -4 -8
-10 -11 -5 -3 -10 -1 -10 4 0 6 5 11 10 11 6 0 10 -2 10 -4z m-2138 -164 c14
-14 -2 -43 -22 -37 -21 7 -26 -4 -35 -71 -13 -86 -24 -84 -25 5 0 71 -2 82
-14 72 -9 -8 -16 -8 -20 -2 -4 6 3 15 14 21 16 9 22 8 26 -5 5 -12 10 -13 20
-4 7 6 23 8 36 4 22 -6 22 -6 4 9 -23 18 -59 21 -87 6 -12 -7 -19 -7 -19 -1 0
21 101 24 122 3z m1872 -8 c3 -9 6 -17 6 -18 0 -2 -13 -3 -30 -4 -21 0 -30 4
-30 15 0 9 6 13 15 9 8 -3 15 -1 15 4 0 16 17 11 24 -6z"/>
<path d="M6578 3383 c7 -3 16 -2 19 1 4 3 -2 6 -13 5 -11 0 -14 -3 -6 -6z"/>
<path d="M6511 3365 c0 -11 15 -37 34 -59 39 -44 41 -43 120 28 l40 37 -33 -7
c-18 -3 -45 -12 -60 -20 -17 -9 -30 -10 -36 -4 -6 6 -18 10 -28 10 -9 0 -22 8
-27 18 -10 16 -10 15 -10 -3z"/>
<path d="M6791 3344 c0 -11 3 -14 6 -6 3 7 2 16 -1 19 -3 4 -6 -2 -5 -13z"/>
<path d="M11543 3272 c-32 -5 -28 -22 5 -22 36 0 61 15 35 21 -10 3 -28 3 -40
1z"/>
<path d="M6801 3164 c0 -11 3 -14 6 -6 3 7 2 16 -1 19 -3 4 -6 -2 -5 -13z"/>
<path d="M6804 2860 c0 -151 2 -213 3 -137 2 75 2 199 0 275 -1 75 -3 13 -3
-138z"/>
<path d="M4968 3093 c6 -2 18 -2 25 0 6 3 1 5 -13 5 -14 0 -19 -2 -12 -5z"/>
<path d="M4768 3083 c29 -2 74 -2 100 0 26 2 2 3 -53 3 -55 0 -76 -1 -47 -3z"/>
<path d="M11360 2992 c0 -6 -8 -13 -17 -16 -10 -2 -4 -4 12 -3 17 1 29 6 28
12 -2 13 -23 19 -23 7z"/>
<path d="M11245 2970 c-3 -5 -3 -10 2 -10 4 0 18 -3 31 -6 18 -5 21 -3 16 10
-7 18 -39 22 -49 6z"/>
<path d="M11155 2960 c-3 -5 0 -10 7 -10 7 0 24 -3 38 -7 23 -6 24 -6 8 10
-19 19 -44 22 -53 7z"/>
<path d="M11985 2960 c-3 -5 -1 -10 4 -10 6 0 11 5 11 10 0 6 -2 10 -4 10 -3
0 -8 -4 -11 -10z"/>
<path d="M10990 2929 c0 -5 -11 -9 -25 -9 -33 0 -32 -18 0 -26 31 -8 27 -14
-20 -30 -21 -7 -38 -8 -41 -2 -3 5 -14 6 -24 3 -10 -3 -21 -1 -25 5 -6 10 -44
4 -55 -9 -3 -3 -22 -15 -42 -26 -21 -11 -38 -23 -38 -27 0 -4 18 -13 40 -19
49 -15 44 -25 -16 -32 -26 -2 -50 -10 -54 -17 -4 -7 -25 -11 -51 -10 -105 6
-104 -6 3 -26 90 -17 128 -18 128 -1 0 16 46 37 84 38 17 0 25 3 19 6 -40 16
28 53 97 53 11 0 23 7 26 15 4 9 19 15 40 15 33 0 46 14 22 23 -7 2 -9 8 -5
13 12 12 117 8 130 -5 11 -11 11 -12 -65 -31 -27 -7 -48 -17 -48 -21 0 -5 27
-9 59 -9 69 0 84 -13 41 -35 -40 -20 -40 -45 0 -45 23 0 30 -5 30 -19 0 -11
-8 -22 -17 -24 -11 -3 -7 -5 9 -6 16 0 57 13 91 29 75 35 80 36 72 11 -8 -27
29 -47 59 -33 11 6 30 12 40 14 10 2 24 11 30 21 15 23 -7 37 -55 35 -20 -1
-41 2 -47 6 -22 13 -12 26 21 26 72 0 72 41 -1 55 -20 4 -44 13 -52 20 -25 23
-68 36 -73 22 -3 -9 -9 -8 -22 3 -17 14 -16 15 6 22 22 6 21 6 -6 6 -16 0 -55
5 -85 10 -82 15 -180 21 -180 11z"/>
<path d="M11434 2911 c3 -5 35 -8 72 -8 41 0 61 3 53 8 -18 11 -132 12 -125 0z"/>
<path d="M11425 2880 c-3 -5 -1 -10 4 -10 6 0 11 5 11 10 0 6 -2 10 -4 10 -3
0 -8 -4 -11 -10z"/>
<path d="M11887 2883 c-17 -17 -2 -22 53 -20 40 1 60 6 60 15 0 13 -101 18
-113 5z"/>
<path d="M11460 2870 c0 -5 9 -10 20 -10 11 0 20 5 20 10 0 6 -9 10 -20 10
-11 0 -20 -4 -20 -10z"/>
<path d="M11664 2866 c21 -17 78 -20 111 -6 15 6 7 9 -30 9 -27 1 -61 4 -75 7
-24 5 -24 5 -6 -10z"/>
<path d="M11625 2799 c-22 -4 -62 -8 -90 -9 -37 -1 -45 -4 -30 -10 11 -5 35
-9 53 -9 17 -1 32 -5 32 -11 0 -5 7 -10 15 -10 8 0 15 -4 15 -9 0 -4 19 -11
43 -14 24 -3 56 -13 71 -21 18 -9 35 -11 45 -6 9 5 37 14 64 21 26 6 50 16 54
22 4 6 -2 8 -15 5 -12 -4 -22 -2 -22 4 0 6 -7 8 -14 5 -10 -4 -13 -1 -9 8 3
10 13 13 29 9 30 -8 32 12 2 21 -15 5 -26 1 -38 -15 -15 -19 -22 -21 -66 -14
-84 12 -96 20 -44 32 l45 10 -50 0 c-27 0 -68 -4 -90 -9z"/>
<path d="M11440 2770 c0 -5 4 -10 9 -10 6 0 13 5 16 10 3 6 -1 10 -9 10 -9 0
-16 -4 -16 -10z"/>
<path d="M11970 2745 c7 -8 16 -15 21 -15 5 0 9 7 9 15 0 9 -9 15 -21 15 -18
0 -19 -2 -9 -15z"/>
<path d="M11928 2743 c7 -3 16 -2 19 1 4 3 -2 6 -13 5 -11 0 -14 -3 -6 -6z"/>
<path d="M4640 2574 c-336 -27 -521 -45 -602 -59 -46 -8 -87 -15 -92 -15 -5 0
-7 -2 -5 -5 3 -2 54 2 115 9 132 17 351 31 343 22 -9 -10 10 -89 23 -97 12 -8
-58 -16 -210 -25 -76 -4 -112 -10 -109 -18 4 -11 290 -11 351 1 l29 5 -6 -52
c-7 -57 -20 -80 -46 -79 -12 0 -11 2 4 9 16 7 11 9 -20 9 -31 0 -36 -2 -20 -9
16 -7 11 -9 -20 -9 -29 -1 -36 2 -25 9 13 8 13 10 -2 10 -9 0 -19 -4 -22 -9
-3 -5 -35 -6 -71 -3 -45 3 -65 1 -65 -7 0 -13 -4 -12 87 -14 39 -1 74 -5 78
-9 6 -6 15 -63 18 -110 3 -39 219 -48 288 -12 36 18 78 69 102 123 23 52 97
305 97 332 0 22 11 22 -220 3z m-30 -39 c0 -8 -7 -15 -15 -15 -16 0 -20 12 -8
23 11 12 23 8 23 -8z m147 -122 c-7 -7 -139 -4 -146 3 -2 2 31 4 74 4 43 0 75
-3 72 -7z m-174 -10 c-13 -2 -33 -2 -45 0 -13 2 -3 4 22 4 25 0 35 -2 23 -4z
m-246 -10 c-20 -2 -52 -2 -70 0 -17 2 0 4 38 4 39 0 53 -2 32 -4z m250 -119
c-3 -3 -12 -4 -19 -1 -8 3 -5 6 6 6 11 1 17 -2 13 -5z"/>
<path d="M6792 2524 c-1 -28 -4 -80 -7 -115 l-4 -64 10 60 c5 33 8 85 6 115
l-3 55 -2 -51z"/>
<path d="M6771 2254 c0 -11 3 -14 6 -6 3 7 2 16 -1 19 -3 4 -6 -2 -5 -13z"/>
<path d="M11925 2263 c-53 -4 -351 -40 -490 -58 -60 -8 -162 -19 -225 -25
-226 -21 -405 -43 -410 -51 -3 -4 -21 -9 -40 -12 -20 -3 -16 -3 10 -2 78 5
351 35 450 50 52 8 151 19 220 26 181 16 500 57 535 68 31 10 21 10 -50 4z"/>
<path d="M6762 2185 c0 -16 2 -22 5 -12 2 9 2 23 0 30 -3 6 -5 -1 -5 -18z"/>
<path d="M11533 2143 c9 -2 23 -2 30 0 6 3 -1 5 -18 5 -16 0 -22 -2 -12 -5z"/>
<path d="M6751 2124 c0 -11 3 -14 6 -6 3 7 2 16 -1 19 -3 4 -6 -2 -5 -13z"/>
<path d="M10648 2103 c7 -3 16 -2 19 1 4 3 -2 6 -13 5 -11 0 -14 -3 -6 -6z"/>
<path d="M11915 2030 l-50 -7 45 0 c25 -1 56 3 70 7 31 10 8 10 -65 0z"/>
<path d="M4873 2023 c9 -2 25 -2 35 0 9 3 1 5 -18 5 -19 0 -27 -2 -17 -5z"/>
<path d="M11773 2013 c9 -2 25 -2 35 0 9 3 1 5 -18 5 -19 0 -27 -2 -17 -5z"/>
<path d="M3938 1993 c12 -2 32 -2 45 0 12 2 2 4 -23 4 -25 0 -35 -2 -22 -4z"/>
<path d="M11688 1993 c7 -3 16 -2 19 1 4 3 -2 6 -13 5 -11 0 -14 -3 -6 -6z"/>
<path d="M4968 1983 c7 -3 16 -2 19 1 4 3 -2 6 -13 5 -11 0 -14 -3 -6 -6z"/>
<path d="M11826 1939 c-32 -5 -61 -11 -64 -14 -9 -9 60 -4 138 9 64 11 68 13
30 14 -25 0 -72 -4 -104 -9z"/>
<path d="M11528 1923 c6 -2 18 -2 25 0 6 3 1 5 -13 5 -14 0 -19 -2 -12 -5z"/>
<path d="M11678 1913 c12 -2 30 -2 40 0 9 3 -1 5 -23 4 -22 0 -30 -2 -17 -4z"/>
<path d="M11098 1883 c7 -3 16 -2 19 1 4 3 -2 6 -13 5 -11 0 -14 -3 -6 -6z"/>
<path d="M10983 1863 c15 -2 39 -2 55 0 15 2 2 4 -28 4 -30 0 -43 -2 -27 -4z"/>
<path d="M10858 1843 c7 -3 16 -2 19 1 4 3 -2 6 -13 5 -11 0 -14 -3 -6 -6z"/>
</g>
</svg>
